<?xml version="1.0" encoding="UTF-8" standalone="no"?>
<!DOCTYPE svg PUBLIC "-//W3C//DTD SVG 1.1//EN" "http://www.w3.org/Graphics/SVG/1.1/DTD/svg11.dtd">
<svg xmlns="http://www.w3.org/2000/svg" xmlns:xlink="http://www.w3.org/1999/xlink" version="1.1" width="567pt" height="387pt" viewBox="0 0 567 387">
<g enable-background="new">
<path transform="matrix(1,0,0,-1,0,387)" d="M 0 0 L 566.929 0 L 566.929 386.616 L 0 386.616 Z " fill="#ffffff" fill-rule="evenodd"/>
<path transform="matrix(1,0,0,-1,0,387)" stroke-width=".4" stroke-linecap="butt" stroke-miterlimit="10" stroke-linejoin="miter" fill="none" stroke="#ffffff" d="M 0 0 L 566.929 0 L 566.929 386.616 L 0 386.616 Z "/>
<path transform="matrix(1,0,0,-1,0,387)" d="M 68.0315 42.5278 L 549.9215 42.5278 L 549.9215 359.5528 L 68.0315 359.5528 Z " fill="#ffffff" fill-rule="evenodd"/>
<path transform="matrix(1,0,0,-1,0,387)" stroke-width=".4" stroke-linecap="butt" stroke-miterlimit="10" stroke-linejoin="miter" fill="none" stroke="#ffffff" d="M 68.0315 42.5278 L 549.9215 42.5278 L 549.9215 359.5528 L 68.0315 359.5528 Z "/>
<path transform="matrix(1,0,0,-1,0,387)" stroke-width=".75" stroke-linecap="butt" stroke-miterlimit="10" stroke-linejoin="miter" fill="none" stroke="#000000" d="M 68.0315 42.5278 L 549.9215 42.5278 L 549.9215 359.5528 L 68.0315 359.5528 Z "/>
<path transform="matrix(1,0,0,-1,0,387)" d="M 68.0315 42.5278 L 549.9215 42.5278 L 549.9215 359.5528 L 68.0315 359.5528 Z " fill="#ffffff" fill-rule="evenodd"/>
<path transform="matrix(1,0,0,-1,0,387)" stroke-width=".4" stroke-linecap="butt" stroke-miterlimit="10" stroke-linejoin="miter" fill="none" stroke="#ffffff" d="M 68.0315 42.5278 L 549.9215 42.5278 L 549.9215 359.5528 L 68.0315 359.5528 Z "/>
<path transform="matrix(1,0,0,-1,0,387)" stroke-width=".75" stroke-linecap="butt" stroke-miterlimit="10" stroke-linejoin="miter" fill="none" stroke="#000000" d="M 68.0315 42.5278 L 549.9215 42.5278 L 549.9215 359.5528 L 68.0315 359.5528 Z "/>
<path transform="matrix(1,0,0,-1,0,387)" stroke-width="1.5" stroke-linecap="butt" stroke-miterlimit="10" stroke-linejoin="miter" fill="none" stroke="#0000ff" d="M 68.0315 60.299 L 92.126 60.299 L 92.126 239.622 L 108.992 239.622 L 108.992 287.992 L 116.22 287.992 L 116.22 300.183 L 121.039 300.183 L 121.039 300.519 L 124.654 300.519 L 124.654 299.147 L 128.268 299.147 L 128.268 296.532 L 135.496 296.532 L 135.496 293.357 L 137.906 293.357 L 137.906 291.303 L 140.315 291.303 L 140.315 289.563 L 142.724 289.563 L 142.724 287.769 L 145.134 287.769 L 145.134 285.598 L 147.543 285.598 L 147.543 283.934 L 149.953 283.934 L 149.953 279.966 L 155.976 279.966 L 155.976 259.752 L 182.48 259.752 L 182.48 221.999 L 224.646 221.999 L 224.646 182.9 L 272.835 182.9 L 272.835 117.98 L 549.921 117.98 "/>
<path transform="matrix(1,0,0,-1,0,387)" stroke-width=".75" stroke-linecap="butt" stroke-miterlimit="10" stroke-linejoin="miter" fill="none" stroke="#000000" d="M 68.0315 42.5278 L 549.921 42.5278 "/>
<path transform="matrix(1,0,0,-1,0,387)" stroke-width=".75" stroke-linecap="butt" stroke-miterlimit="10" stroke-linejoin="miter" fill="none" stroke="#000000" d="M 68.0315 52.3865 L 68.0315 42.5278 "/>
<path transform="matrix(1,0,0,-1,0,387)" stroke-width=".75" stroke-linecap="butt" stroke-miterlimit="10" stroke-linejoin="miter" fill="none" stroke="#000000" d="M 80.0787 47.4572 L 80.0787 42.5278 "/>
<path transform="matrix(1,0,0,-1,0,387)" stroke-width=".75" stroke-linecap="butt" stroke-miterlimit="10" stroke-linejoin="miter" fill="none" stroke="#000000" d="M 92.126 47.4572 L 92.126 42.5278 "/>
<path transform="matrix(1,0,0,-1,0,387)" stroke-width=".75" stroke-linecap="butt" stroke-miterlimit="10" stroke-linejoin="miter" fill="none" stroke="#000000" d="M 104.173 47.4572 L 104.173 42.5278 "/>
<path transform="matrix(1,0,0,-1,0,387)" stroke-width=".75" stroke-linecap="butt" stroke-miterlimit="10" stroke-linejoin="miter" fill="none" stroke="#000000" d="M 116.22 47.4572 L 116.22 42.5278 "/>
<path transform="matrix(1,0,0,-1,0,387)" stroke-width=".75" stroke-linecap="butt" stroke-miterlimit="10" stroke-linejoin="miter" fill="none" stroke="#000000" d="M 128.268 52.3865 L 128.268 42.5278 "/>
<path transform="matrix(1,0,0,-1,0,387)" stroke-width=".75" stroke-linecap="butt" stroke-miterlimit="10" stroke-linejoin="miter" fill="none" stroke="#000000" d="M 140.315 47.4572 L 140.315 42.5278 "/>
<path transform="matrix(1,0,0,-1,0,387)" stroke-width=".75" stroke-linecap="butt" stroke-miterlimit="10" stroke-linejoin="miter" fill="none" stroke="#000000" d="M 152.362 47.4572 L 152.362 42.5278 "/>
<path transform="matrix(1,0,0,-1,0,387)" stroke-width=".75" stroke-linecap="butt" stroke-miterlimit="10" stroke-linejoin="miter" fill="none" stroke="#000000" d="M 164.409 47.4572 L 164.409 42.5278 "/>
<path transform="matrix(1,0,0,-1,0,387)" stroke-width=".75" stroke-linecap="butt" stroke-miterlimit="10" stroke-linejoin="miter" fill="none" stroke="#000000" d="M 176.457 47.4572 L 176.457 42.5278 "/>
<path transform="matrix(1,0,0,-1,0,387)" stroke-width=".75" stroke-linecap="butt" stroke-miterlimit="10" stroke-linejoin="miter" fill="none" stroke="#000000" d="M 188.504 52.3865 L 188.504 42.5278 "/>
<path transform="matrix(1,0,0,-1,0,387)" stroke-width=".75" stroke-linecap="butt" stroke-miterlimit="10" stroke-linejoin="miter" fill="none" stroke="#000000" d="M 200.551 47.4572 L 200.551 42.5278 "/>
<path transform="matrix(1,0,0,-1,0,387)" stroke-width=".75" stroke-linecap="butt" stroke-miterlimit="10" stroke-linejoin="miter" fill="none" stroke="#000000" d="M 212.598 47.4572 L 212.598 42.5278 "/>
<path transform="matrix(1,0,0,-1,0,387)" stroke-width=".75" stroke-linecap="butt" stroke-miterlimit="10" stroke-linejoin="miter" fill="none" stroke="#000000" d="M 224.646 47.4572 L 224.646 42.5278 "/>
<path transform="matrix(1,0,0,-1,0,387)" stroke-width=".75" stroke-linecap="butt" stroke-miterlimit="10" stroke-linejoin="miter" fill="none" stroke="#000000" d="M 236.693 47.4572 L 236.693 42.5278 "/>
<path transform="matrix(1,0,0,-1,0,387)" stroke-width=".75" stroke-linecap="butt" stroke-miterlimit="10" stroke-linejoin="miter" fill="none" stroke="#000000" d="M 248.74 52.3865 L 248.74 42.5278 "/>
<path transform="matrix(1,0,0,-1,0,387)" stroke-width=".75" stroke-linecap="butt" stroke-miterlimit="10" stroke-linejoin="miter" fill="none" stroke="#000000" d="M 260.787 47.4572 L 260.787 42.5278 "/>
<path transform="matrix(1,0,0,-1,0,387)" stroke-width=".75" stroke-linecap="butt" stroke-miterlimit="10" stroke-linejoin="miter" fill="none" stroke="#000000" d="M 272.835 47.4572 L 272.835 42.5278 "/>
<path transform="matrix(1,0,0,-1,0,387)" stroke-width=".75" stroke-linecap="butt" stroke-miterlimit="10" stroke-linejoin="miter" fill="none" stroke="#000000" d="M 284.882 47.4572 L 284.882 42.5278 "/>
<path transform="matrix(1,0,0,-1,0,387)" stroke-width=".75" stroke-linecap="butt" stroke-miterlimit="10" stroke-linejoin="miter" fill="none" stroke="#000000" d="M 296.929 47.4572 L 296.929 42.5278 "/>
<path transform="matrix(1,0,0,-1,0,387)" stroke-width=".75" stroke-linecap="butt" stroke-miterlimit="10" stroke-linejoin="miter" fill="none" stroke="#000000" d="M 308.976 52.3865 L 308.976 42.5278 "/>
<path transform="matrix(1,0,0,-1,0,387)" stroke-width=".75" stroke-linecap="butt" stroke-miterlimit="10" stroke-linejoin="miter" fill="none" stroke="#000000" d="M 321.024 47.4572 L 321.024 42.5278 "/>
<path transform="matrix(1,0,0,-1,0,387)" stroke-width=".75" stroke-linecap="butt" stroke-miterlimit="10" stroke-linejoin="miter" fill="none" stroke="#000000" d="M 333.071 47.4572 L 333.071 42.5278 "/>
<path transform="matrix(1,0,0,-1,0,387)" stroke-width=".75" stroke-linecap="butt" stroke-miterlimit="10" stroke-linejoin="miter" fill="none" stroke="#000000" d="M 345.118 47.4572 L 345.118 42.5278 "/>
<path transform="matrix(1,0,0,-1,0,387)" stroke-width=".75" stroke-linecap="butt" stroke-miterlimit="10" stroke-linejoin="miter" fill="none" stroke="#000000" d="M 357.165 47.4572 L 357.165 42.5278 "/>
<path transform="matrix(1,0,0,-1,0,387)" stroke-width=".75" stroke-linecap="butt" stroke-miterlimit="10" stroke-linejoin="miter" fill="none" stroke="#000000" d="M 369.213 52.3865 L 369.213 42.5278 "/>
<path transform="matrix(1,0,0,-1,0,387)" stroke-width=".75" stroke-linecap="butt" stroke-miterlimit="10" stroke-linejoin="miter" fill="none" stroke="#000000" d="M 381.26 47.4572 L 381.26 42.5278 "/>
<path transform="matrix(1,0,0,-1,0,387)" stroke-width=".75" stroke-linecap="butt" stroke-miterlimit="10" stroke-linejoin="miter" fill="none" stroke="#000000" d="M 393.307 47.4572 L 393.307 42.5278 "/>
<path transform="matrix(1,0,0,-1,0,387)" stroke-width=".75" stroke-linecap="butt" stroke-miterlimit="10" stroke-linejoin="miter" fill="none" stroke="#000000" d="M 405.354 47.4572 L 405.354 42.5278 "/>
<path transform="matrix(1,0,0,-1,0,387)" stroke-width=".75" stroke-linecap="butt" stroke-miterlimit="10" stroke-linejoin="miter" fill="none" stroke="#000000" d="M 417.402 47.4572 L 417.402 42.5278 "/>
<path transform="matrix(1,0,0,-1,0,387)" stroke-width=".75" stroke-linecap="butt" stroke-miterlimit="10" stroke-linejoin="miter" fill="none" stroke="#000000" d="M 429.449 52.3865 L 429.449 42.5278 "/>
<path transform="matrix(1,0,0,-1,0,387)" stroke-width=".75" stroke-linecap="butt" stroke-miterlimit="10" stroke-linejoin="miter" fill="none" stroke="#000000" d="M 441.496 47.4572 L 441.496 42.5278 "/>
<path transform="matrix(1,0,0,-1,0,387)" stroke-width=".75" stroke-linecap="butt" stroke-miterlimit="10" stroke-linejoin="miter" fill="none" stroke="#000000" d="M 453.543 47.4572 L 453.543 42.5278 "/>
<path transform="matrix(1,0,0,-1,0,387)" stroke-width=".75" stroke-linecap="butt" stroke-miterlimit="10" stroke-linejoin="miter" fill="none" stroke="#000000" d="M 465.591 47.4572 L 465.591 42.5278 "/>
<path transform="matrix(1,0,0,-1,0,387)" stroke-width=".75" stroke-linecap="butt" stroke-miterlimit="10" stroke-linejoin="miter" fill="none" stroke="#000000" d="M 477.638 47.4572 L 477.638 42.5278 "/>
<path transform="matrix(1,0,0,-1,0,387)" stroke-width=".75" stroke-linecap="butt" stroke-miterlimit="10" stroke-linejoin="miter" fill="none" stroke="#000000" d="M 489.685 52.3865 L 489.685 42.5278 "/>
<path transform="matrix(1,0,0,-1,0,387)" stroke-width=".75" stroke-linecap="butt" stroke-miterlimit="10" stroke-linejoin="miter" fill="none" stroke="#000000" d="M 501.732 47.4572 L 501.732 42.5278 "/>
<path transform="matrix(1,0,0,-1,0,387)" stroke-width=".75" stroke-linecap="butt" stroke-miterlimit="10" stroke-linejoin="miter" fill="none" stroke="#000000" d="M 513.78 47.4572 L 513.78 42.5278 "/>
<path transform="matrix(1,0,0,-1,0,387)" stroke-width=".75" stroke-linecap="butt" stroke-miterlimit="10" stroke-linejoin="miter" fill="none" stroke="#000000" d="M 525.827 47.4572 L 525.827 42.5278 "/>
<path transform="matrix(1,0,0,-1,0,387)" stroke-width=".75" stroke-linecap="butt" stroke-miterlimit="10" stroke-linejoin="miter" fill="none" stroke="#000000" d="M 537.874 47.4572 L 537.874 42.5278 "/>
<path transform="matrix(1,0,0,-1,0,387)" stroke-width=".75" stroke-linecap="butt" stroke-miterlimit="10" stroke-linejoin="miter" fill="none" stroke="#000000" d="M 549.921 52.3865 L 549.921 42.5278 "/>
<clipPath id="cp0">
<path transform="matrix(1,0,0,-1,0,387)" d="M 0 0 L 566.929 0 L 566.929 386.616 L 0 386.616 Z "/>
</clipPath>
<g clip-path="url(#cp0)">
<text xml:space="preserve" transform="matrix(1 0 -0 1 63.3531 356.9479)" font-size="12.9955" font-family="Helvetica"><tspan y="0" x="0">0</tspan></text>
</g>
<clipPath id="cp1">
<path transform="matrix(1,0,0,-1,0,387)" d="M 0 0 L 566.929 0 L 566.929 386.616 L 0 386.616 Z "/>
</clipPath>
<g clip-path="url(#cp1)">
<text xml:space="preserve" transform="matrix(1 0 -0 1 123.457 356.9479)" font-size="12.9955" font-family="Helvetica"><tspan y="0" x="0">5</tspan></text>
</g>
<clipPath id="cp2">
<path transform="matrix(1,0,0,-1,0,387)" d="M 0 0 L 566.929 0 L 566.929 386.616 L 0 386.616 Z "/>
</clipPath>
<g clip-path="url(#cp2)">
<text xml:space="preserve" transform="matrix(1 0 -0 1 181.125 356.9479)" font-size="12.9955" font-family="Helvetica"><tspan y="0" x="0 7.2254989">10</tspan></text>
</g>
<clipPath id="cp3">
<path transform="matrix(1,0,0,-1,0,387)" d="M 0 0 L 566.929 0 L 566.929 386.616 L 0 386.616 Z "/>
</clipPath>
<g clip-path="url(#cp3)">
<text xml:space="preserve" transform="matrix(1 0 -0 1 241.229 356.9479)" font-size="12.9955" font-family="Helvetica"><tspan y="0" x="0 7.2254989">15</tspan></text>
</g>
<clipPath id="cp4">
<path transform="matrix(1,0,0,-1,0,387)" d="M 0 0 L 566.929 0 L 566.929 386.616 L 0 386.616 Z "/>
</clipPath>
<g clip-path="url(#cp4)">
<text xml:space="preserve" transform="matrix(1 0 -0 1 301.333 356.9479)" font-size="12.9955" font-family="Helvetica"><tspan y="0" x="0 7.2254989">20</tspan></text>
</g>
<clipPath id="cp5">
<path transform="matrix(1,0,0,-1,0,387)" d="M 0 0 L 566.929 0 L 566.929 386.616 L 0 386.616 Z "/>
</clipPath>
<g clip-path="url(#cp5)">
<text xml:space="preserve" transform="matrix(1 0 -0 1 361.438 356.9479)" font-size="12.9955" font-family="Helvetica"><tspan y="0" x="0 7.2254989">25</tspan></text>
</g>
<clipPath id="cp6">
<path transform="matrix(1,0,0,-1,0,387)" d="M 0 0 L 566.929 0 L 566.929 386.616 L 0 386.616 Z "/>
</clipPath>
<g clip-path="url(#cp6)">
<text xml:space="preserve" transform="matrix(1 0 -0 1 421.542 356.9479)" font-size="12.9955" font-family="Helvetica"><tspan y="0" x="0 7.2254989">30</tspan></text>
</g>
<clipPath id="cp7">
<path transform="matrix(1,0,0,-1,0,387)" d="M 0 0 L 566.929 0 L 566.929 386.616 L 0 386.616 Z "/>
</clipPath>
<g clip-path="url(#cp7)">
<text xml:space="preserve" transform="matrix(1 0 -0 1 481.646 356.9479)" font-size="12.9955" font-family="Helvetica"><tspan y="0" x="0 7.2254989">35</tspan></text>
</g>
<clipPath id="cp8">
<path transform="matrix(1,0,0,-1,0,387)" d="M 0 0 L 566.929 0 L 566.929 386.616 L 0 386.616 Z "/>
</clipPath>
<g clip-path="url(#cp8)">
<text xml:space="preserve" transform="matrix(1 0 -0 1 542.563 356.9479)" font-size="12.9955" font-family="Helvetica"><tspan y="0" x="0 7.2254989">40</tspan></text>
</g>
<clipPath id="cp9">
<path transform="matrix(1,0,0,-1,0,387)" d="M 0 0 L 566.929 0 L 566.929 386.616 L 0 386.616 Z "/>
</clipPath>
<g clip-path="url(#cp9)">
<text xml:space="preserve" transform="matrix(1 0 -0 1 503.576 367.5067)" font-size="12.9955" font-family="Helvetica"><tspan y="0" x="0 3.6127494 7.2254989 17.335999 24.561497 33.229497 36.842248 43.339998"> [GeV/c]</tspan></text>
</g>
<clipPath id="cp10">
<path transform="matrix(1,0,0,-1,0,387)" d="M 0 0 L 566.929 0 L 566.929 386.616 L 0 386.616 Z "/>
</clipPath>
<g clip-path="url(#cp10)">
<text xml:space="preserve" transform="matrix(1 0 -0 1 501.139 374.0045)" font-size="8.12219" font-family="Helvetica"><tspan y="0" x="0">t</tspan></text>
</g>
<clipPath id="cp11">
<path transform="matrix(1,0,0,-1,0,387)" d="M 0 0 L 566.929 0 L 566.929 386.616 L 0 386.616 Z "/>
</clipPath>
<g clip-path="url(#cp11)">
<text xml:space="preserve" transform="matrix(1 0 -0 1 493.829 367.5067)" font-size="12.9955" font-family="Helvetica"><tspan y="0" x="0">p</tspan></text>
</g>
<path transform="matrix(1,0,0,-1,0,387)" stroke-width=".75" stroke-linecap="butt" stroke-miterlimit="10" stroke-linejoin="miter" fill="none" stroke="#000000" d="M 68.0315 42.5278 L 68.0315 359.553 "/>
<path transform="matrix(1,0,0,-1,0,387)" stroke-width=".75" stroke-linecap="butt" stroke-miterlimit="10" stroke-linejoin="miter" fill="none" stroke="#000000" d="M 75.0047 44.0121 L 68.0315 44.0121 "/>
<path transform="matrix(1,0,0,-1,0,387)" stroke-width=".75" stroke-linecap="butt" stroke-miterlimit="10" stroke-linejoin="miter" fill="none" stroke="#000000" d="M 75.0047 49.7331 L 68.0315 49.7331 "/>
<path transform="matrix(1,0,0,-1,0,387)" stroke-width=".75" stroke-linecap="butt" stroke-miterlimit="10" stroke-linejoin="miter" fill="none" stroke="#000000" d="M 75.0047 54.4075 L 68.0315 54.4075 "/>
<path transform="matrix(1,0,0,-1,0,387)" stroke-width=".75" stroke-linecap="butt" stroke-miterlimit="10" stroke-linejoin="miter" fill="none" stroke="#000000" d="M 75.0047 58.3597 L 68.0315 58.3597 "/>
<path transform="matrix(1,0,0,-1,0,387)" stroke-width=".75" stroke-linecap="butt" stroke-miterlimit="10" stroke-linejoin="miter" fill="none" stroke="#000000" d="M 75.0047 61.7832 L 68.0315 61.7832 "/>
<path transform="matrix(1,0,0,-1,0,387)" stroke-width=".75" stroke-linecap="butt" stroke-miterlimit="10" stroke-linejoin="miter" fill="none" stroke="#000000" d="M 75.0047 64.803 L 68.0315 64.803 "/>
<path transform="matrix(1,0,0,-1,0,387)" stroke-width=".75" stroke-linecap="butt" stroke-miterlimit="10" stroke-linejoin="miter" fill="none" stroke="#000000" d="M 81.978 67.5042 L 68.0315 67.5042 "/>
<clipPath id="cp12">
<path transform="matrix(1,0,0,-1,0,387)" d="M 0 0 L 566.929 0 L 566.929 386.616 L 0 386.616 Z "/>
</clipPath>
<g clip-path="url(#cp12)">
<text xml:space="preserve" transform="matrix(1 0 -0 1 58.4798 318.7736)" font-size="8.12219" font-family="Helvetica"><tspan y="0" x="0">2</tspan></text>
</g>
<clipPath id="cp13">
<path transform="matrix(1,0,0,-1,0,387)" d="M 0 0 L 566.929 0 L 566.929 386.616 L 0 386.616 Z "/>
</clipPath>
<g clip-path="url(#cp13)">
<text xml:space="preserve" transform="matrix(1 0 -0 1 43.8598 325.2713)" font-size="12.9955" font-family="Helvetica"><tspan y="0" x="0 7.2254989">10</tspan></text>
</g>
<path transform="matrix(1,0,0,-1,0,387)" stroke-width=".75" stroke-linecap="butt" stroke-miterlimit="10" stroke-linejoin="miter" fill="none" stroke="#000000" d="M 75.0047 85.2754 L 68.0315 85.2754 "/>
<path transform="matrix(1,0,0,-1,0,387)" stroke-width=".75" stroke-linecap="butt" stroke-miterlimit="10" stroke-linejoin="miter" fill="none" stroke="#000000" d="M 75.0047 95.6709 L 68.0315 95.6709 "/>
<path transform="matrix(1,0,0,-1,0,387)" stroke-width=".75" stroke-linecap="butt" stroke-miterlimit="10" stroke-linejoin="miter" fill="none" stroke="#000000" d="M 75.0047 103.047 L 68.0315 103.047 "/>
<path transform="matrix(1,0,0,-1,0,387)" stroke-width=".75" stroke-linecap="butt" stroke-miterlimit="10" stroke-linejoin="miter" fill="none" stroke="#000000" d="M 75.0047 108.768 L 68.0315 108.768 "/>
<path transform="matrix(1,0,0,-1,0,387)" stroke-width=".75" stroke-linecap="butt" stroke-miterlimit="10" stroke-linejoin="miter" fill="none" stroke="#000000" d="M 75.0047 113.442 L 68.0315 113.442 "/>
<path transform="matrix(1,0,0,-1,0,387)" stroke-width=".75" stroke-linecap="butt" stroke-miterlimit="10" stroke-linejoin="miter" fill="none" stroke="#000000" d="M 75.0047 117.394 L 68.0315 117.394 "/>
<path transform="matrix(1,0,0,-1,0,387)" stroke-width=".75" stroke-linecap="butt" stroke-miterlimit="10" stroke-linejoin="miter" fill="none" stroke="#000000" d="M 75.0047 120.818 L 68.0315 120.818 "/>
<path transform="matrix(1,0,0,-1,0,387)" stroke-width=".75" stroke-linecap="butt" stroke-miterlimit="10" stroke-linejoin="miter" fill="none" stroke="#000000" d="M 75.0047 123.837 L 68.0315 123.837 "/>
<path transform="matrix(1,0,0,-1,0,387)" stroke-width=".75" stroke-linecap="butt" stroke-miterlimit="10" stroke-linejoin="miter" fill="none" stroke="#000000" d="M 81.978 126.539 L 68.0315 126.539 "/>
<clipPath id="cp14">
<path transform="matrix(1,0,0,-1,0,387)" d="M 0 0 L 566.929 0 L 566.929 386.616 L 0 386.616 Z "/>
</clipPath>
<g clip-path="url(#cp14)">
<text xml:space="preserve" transform="matrix(1 0 -0 1 58.4798 259.482)" font-size="8.12219" font-family="Helvetica"><tspan y="0" x="0">3</tspan></text>
</g>
<clipPath id="cp15">
<path transform="matrix(1,0,0,-1,0,387)" d="M 0 0 L 566.929 0 L 566.929 386.616 L 0 386.616 Z "/>
</clipPath>
<g clip-path="url(#cp15)">
<text xml:space="preserve" transform="matrix(1 0 -0 1 43.8598 266.792)" font-size="12.9955" font-family="Helvetica"><tspan y="0" x="0 7.2254989">10</tspan></text>
</g>
<path transform="matrix(1,0,0,-1,0,387)" stroke-width=".75" stroke-linecap="butt" stroke-miterlimit="10" stroke-linejoin="miter" fill="none" stroke="#000000" d="M 75.0047 144.31 L 68.0315 144.31 "/>
<path transform="matrix(1,0,0,-1,0,387)" stroke-width=".75" stroke-linecap="butt" stroke-miterlimit="10" stroke-linejoin="miter" fill="none" stroke="#000000" d="M 75.0047 154.705 L 68.0315 154.705 "/>
<path transform="matrix(1,0,0,-1,0,387)" stroke-width=".75" stroke-linecap="butt" stroke-miterlimit="10" stroke-linejoin="miter" fill="none" stroke="#000000" d="M 75.0047 162.081 L 68.0315 162.081 "/>
<path transform="matrix(1,0,0,-1,0,387)" stroke-width=".75" stroke-linecap="butt" stroke-miterlimit="10" stroke-linejoin="miter" fill="none" stroke="#000000" d="M 75.0047 167.802 L 68.0315 167.802 "/>
<path transform="matrix(1,0,0,-1,0,387)" stroke-width=".75" stroke-linecap="butt" stroke-miterlimit="10" stroke-linejoin="miter" fill="none" stroke="#000000" d="M 75.0047 172.477 L 68.0315 172.477 "/>
<path transform="matrix(1,0,0,-1,0,387)" stroke-width=".75" stroke-linecap="butt" stroke-miterlimit="10" stroke-linejoin="miter" fill="none" stroke="#000000" d="M 75.0047 176.429 L 68.0315 176.429 "/>
<path transform="matrix(1,0,0,-1,0,387)" stroke-width=".75" stroke-linecap="butt" stroke-miterlimit="10" stroke-linejoin="miter" fill="none" stroke="#000000" d="M 75.0047 179.852 L 68.0315 179.852 "/>
<path transform="matrix(1,0,0,-1,0,387)" stroke-width=".75" stroke-linecap="butt" stroke-miterlimit="10" stroke-linejoin="miter" fill="none" stroke="#000000" d="M 75.0047 182.872 L 68.0315 182.872 "/>
<path transform="matrix(1,0,0,-1,0,387)" stroke-width=".75" stroke-linecap="butt" stroke-miterlimit="10" stroke-linejoin="miter" fill="none" stroke="#000000" d="M 81.978 185.573 L 68.0315 185.573 "/>
<clipPath id="cp16">
<path transform="matrix(1,0,0,-1,0,387)" d="M 0 0 L 566.929 0 L 566.929 386.616 L 0 386.616 Z "/>
</clipPath>
<g clip-path="url(#cp16)">
<text xml:space="preserve" transform="matrix(1 0 -0 1 58.4798 201.002)" font-size="8.12219" font-family="Helvetica"><tspan y="0" x="0">4</tspan></text>
</g>
<clipPath id="cp17">
<path transform="matrix(1,0,0,-1,0,387)" d="M 0 0 L 566.929 0 L 566.929 386.616 L 0 386.616 Z "/>
</clipPath>
<g clip-path="url(#cp17)">
<text xml:space="preserve" transform="matrix(1 0 -0 1 43.8598 207.5)" font-size="12.9955" font-family="Helvetica"><tspan y="0" x="0 7.2254989">10</tspan></text>
</g>
<path transform="matrix(1,0,0,-1,0,387)" stroke-width=".75" stroke-linecap="butt" stroke-miterlimit="10" stroke-linejoin="miter" fill="none" stroke="#000000" d="M 75.0047 203.344 L 68.0315 203.344 "/>
<path transform="matrix(1,0,0,-1,0,387)" stroke-width=".75" stroke-linecap="butt" stroke-miterlimit="10" stroke-linejoin="miter" fill="none" stroke="#000000" d="M 75.0047 213.74 L 68.0315 213.74 "/>
<path transform="matrix(1,0,0,-1,0,387)" stroke-width=".75" stroke-linecap="butt" stroke-miterlimit="10" stroke-linejoin="miter" fill="none" stroke="#000000" d="M 75.0047 221.116 L 68.0315 221.116 "/>
<path transform="matrix(1,0,0,-1,0,387)" stroke-width=".75" stroke-linecap="butt" stroke-miterlimit="10" stroke-linejoin="miter" fill="none" stroke="#000000" d="M 75.0047 226.837 L 68.0315 226.837 "/>
<path transform="matrix(1,0,0,-1,0,387)" stroke-width=".75" stroke-linecap="butt" stroke-miterlimit="10" stroke-linejoin="miter" fill="none" stroke="#000000" d="M 75.0047 231.511 L 68.0315 231.511 "/>
<path transform="matrix(1,0,0,-1,0,387)" stroke-width=".75" stroke-linecap="butt" stroke-miterlimit="10" stroke-linejoin="miter" fill="none" stroke="#000000" d="M 75.0047 235.463 L 68.0315 235.463 "/>
<path transform="matrix(1,0,0,-1,0,387)" stroke-width=".75" stroke-linecap="butt" stroke-miterlimit="10" stroke-linejoin="miter" fill="none" stroke="#000000" d="M 75.0047 238.887 L 68.0315 238.887 "/>
<path transform="matrix(1,0,0,-1,0,387)" stroke-width=".75" stroke-linecap="butt" stroke-miterlimit="10" stroke-linejoin="miter" fill="none" stroke="#000000" d="M 75.0047 241.906 L 68.0315 241.906 "/>
<path transform="matrix(1,0,0,-1,0,387)" stroke-width=".75" stroke-linecap="butt" stroke-miterlimit="10" stroke-linejoin="miter" fill="none" stroke="#000000" d="M 81.978 244.608 L 68.0315 244.608 "/>
<clipPath id="cp18">
<path transform="matrix(1,0,0,-1,0,387)" d="M 0 0 L 566.929 0 L 566.929 386.616 L 0 386.616 Z "/>
</clipPath>
<g clip-path="url(#cp18)">
<text xml:space="preserve" transform="matrix(1 0 -0 1 58.4798 140.898)" font-size="8.12219" font-family="Helvetica"><tspan y="0" x="0">5</tspan></text>
</g>
<clipPath id="cp19">
<path transform="matrix(1,0,0,-1,0,387)" d="M 0 0 L 566.929 0 L 566.929 386.616 L 0 386.616 Z "/>
</clipPath>
<g clip-path="url(#cp19)">
<text xml:space="preserve" transform="matrix(1 0 -0 1 43.8598 148.208)" font-size="12.9955" font-family="Helvetica"><tspan y="0" x="0 7.2254989">10</tspan></text>
</g>
<path transform="matrix(1,0,0,-1,0,387)" stroke-width=".75" stroke-linecap="butt" stroke-miterlimit="10" stroke-linejoin="miter" fill="none" stroke="#000000" d="M 75.0047 262.379 L 68.0315 262.379 "/>
<path transform="matrix(1,0,0,-1,0,387)" stroke-width=".75" stroke-linecap="butt" stroke-miterlimit="10" stroke-linejoin="miter" fill="none" stroke="#000000" d="M 75.0047 272.774 L 68.0315 272.774 "/>
<path transform="matrix(1,0,0,-1,0,387)" stroke-width=".75" stroke-linecap="butt" stroke-miterlimit="10" stroke-linejoin="miter" fill="none" stroke="#000000" d="M 75.0047 280.15 L 68.0315 280.15 "/>
<path transform="matrix(1,0,0,-1,0,387)" stroke-width=".75" stroke-linecap="butt" stroke-miterlimit="10" stroke-linejoin="miter" fill="none" stroke="#000000" d="M 75.0047 285.871 L 68.0315 285.871 "/>
<path transform="matrix(1,0,0,-1,0,387)" stroke-width=".75" stroke-linecap="butt" stroke-miterlimit="10" stroke-linejoin="miter" fill="none" stroke="#000000" d="M 75.0047 290.546 L 68.0315 290.546 "/>
<path transform="matrix(1,0,0,-1,0,387)" stroke-width=".75" stroke-linecap="butt" stroke-miterlimit="10" stroke-linejoin="miter" fill="none" stroke="#000000" d="M 75.0047 294.498 L 68.0315 294.498 "/>
<path transform="matrix(1,0,0,-1,0,387)" stroke-width=".75" stroke-linecap="butt" stroke-miterlimit="10" stroke-linejoin="miter" fill="none" stroke="#000000" d="M 75.0047 297.921 L 68.0315 297.921 "/>
<path transform="matrix(1,0,0,-1,0,387)" stroke-width=".75" stroke-linecap="butt" stroke-miterlimit="10" stroke-linejoin="miter" fill="none" stroke="#000000" d="M 75.0047 300.941 L 68.0315 300.941 "/>
<path transform="matrix(1,0,0,-1,0,387)" stroke-width=".75" stroke-linecap="butt" stroke-miterlimit="10" stroke-linejoin="miter" fill="none" stroke="#000000" d="M 81.978 303.642 L 68.0315 303.642 "/>
<clipPath id="cp20">
<path transform="matrix(1,0,0,-1,0,387)" d="M 0 0 L 566.929 0 L 566.929 386.616 L 0 386.616 Z "/>
</clipPath>
<g clip-path="url(#cp20)">
<text xml:space="preserve" transform="matrix(1 0 -0 1 58.4798 82.418)" font-size="8.12219" font-family="Helvetica"><tspan y="0" x="0">6</tspan></text>
</g>
<clipPath id="cp21">
<path transform="matrix(1,0,0,-1,0,387)" d="M 0 0 L 566.929 0 L 566.929 386.616 L 0 386.616 Z "/>
</clipPath>
<g clip-path="url(#cp21)">
<text xml:space="preserve" transform="matrix(1 0 -0 1 43.8598 89.728)" font-size="12.9955" font-family="Helvetica"><tspan y="0" x="0 7.2254989">10</tspan></text>
</g>
<path transform="matrix(1,0,0,-1,0,387)" stroke-width=".75" stroke-linecap="butt" stroke-miterlimit="10" stroke-linejoin="miter" fill="none" stroke="#000000" d="M 75.0047 321.413 L 68.0315 321.413 "/>
<path transform="matrix(1,0,0,-1,0,387)" stroke-width=".75" stroke-linecap="butt" stroke-miterlimit="10" stroke-linejoin="miter" fill="none" stroke="#000000" d="M 75.0047 331.809 L 68.0315 331.809 "/>
<path transform="matrix(1,0,0,-1,0,387)" stroke-width=".75" stroke-linecap="butt" stroke-miterlimit="10" stroke-linejoin="miter" fill="none" stroke="#000000" d="M 75.0047 339.185 L 68.0315 339.185 "/>
<path transform="matrix(1,0,0,-1,0,387)" stroke-width=".75" stroke-linecap="butt" stroke-miterlimit="10" stroke-linejoin="miter" fill="none" stroke="#000000" d="M 75.0047 344.906 L 68.0315 344.906 "/>
<path transform="matrix(1,0,0,-1,0,387)" stroke-width=".75" stroke-linecap="butt" stroke-miterlimit="10" stroke-linejoin="miter" fill="none" stroke="#000000" d="M 75.0047 349.58 L 68.0315 349.58 "/>
<path transform="matrix(1,0,0,-1,0,387)" stroke-width=".75" stroke-linecap="butt" stroke-miterlimit="10" stroke-linejoin="miter" fill="none" stroke="#000000" d="M 75.0047 353.532 L 68.0315 353.532 "/>
<path transform="matrix(1,0,0,-1,0,387)" stroke-width=".75" stroke-linecap="butt" stroke-miterlimit="10" stroke-linejoin="miter" fill="none" stroke="#000000" d="M 75.0047 356.956 L 68.0315 356.956 "/>
<clipPath id="cp22">
<path transform="matrix(1,0,0,-1,0,387)" d="M 0 0 L 566.929 0 L 566.929 386.616 L 0 386.616 Z "/>
</clipPath>
<g clip-path="url(#cp22)">
<text xml:space="preserve" transform="matrix(0 -1 1 0 33.301 66.98599)" font-size="12.9955" font-family="Helvetica"><tspan y="0" x="0 8.667999 15.165749 22.391247 29.616745 33.229497">Events</tspan></text>
</g>
<path transform="matrix(1,0,0,-1,0,387)" stroke-width="1.5" stroke-linecap="butt" stroke-dasharray="3,3" stroke-miterlimit="10" stroke-linejoin="miter" fill="none" stroke="#0000ff" d="M 68.0315 42.5278 L 92.126 42.5278 L 92.126 171.226 L 108.992 171.226 L 108.992 212.91 L 116.22 212.91 L 116.22 224.031 L 121.039 224.031 L 121.039 224.126 L 124.654 224.126 L 124.654 222.948 L 128.268 222.948 L 128.268 220.273 L 135.496 220.273 L 135.496 217.144 L 137.906 217.144 L 137.906 215.242 L 140.315 215.242 L 140.315 213.152 L 142.724 213.152 L 142.724 211.364 L 145.134 211.364 L 145.134 209.472 L 147.543 209.472 L 147.543 207.348 L 149.953 207.348 L 149.953 204.142 L 155.976 204.142 L 155.976 185.666 L 182.48 185.666 L 182.48 150.415 L 224.646 150.415 L 224.646 114.886 L 272.835 114.886 L 272.835 52.837 L 549.921 52.837 "/>
<path transform="matrix(1,0,0,-1,0,387)" stroke-width="1.5" stroke-linecap="butt" stroke-miterlimit="10" stroke-linejoin="miter" fill="none" stroke="#ff00ff" d="M 68.0315 57.8709 L 92.126 57.8709 L 92.126 237.826 L 108.992 237.826 L 108.992 286.62 L 116.22 286.62 L 116.22 298.868 L 121.039 298.868 L 121.039 299.217 L 124.654 299.217 L 124.654 297.835 L 128.268 297.835 L 128.268 295.223 L 135.496 295.223 L 135.496 292.046 L 137.906 292.046 L 137.906 289.983 L 140.315 289.983 L 140.315 288.262 L 142.724 288.262 L 142.724 286.468 L 145.134 286.468 L 145.134 284.282 L 147.543 284.282 L 147.543 282.642 L 149.953 282.642 L 149.953 278.634 L 155.976 278.634 L 155.976 258.324 L 182.48 258.324 L 182.48 220.42 L 224.646 220.42 L 224.646 181.077 L 272.835 181.077 L 272.835 115.931 L 549.921 115.931 "/>
<clipPath id="cp23">
<path transform="matrix(1,0,0,-1,0,387)" d="M 0 0 L 566.929 0 L 566.929 386.616 L 0 386.616 Z "/>
</clipPath>
<g clip-path="url(#cp23)">
<text xml:space="preserve" transform="matrix(1 0 -0 1 205.492 19.065003)" font-size="17.0566" font-family="Helvetica"><tspan y="0" x="0 10.421583 16.10143 25.584902 34.1132 42.641504 52.124975 57.80482 62.546556 76.7547 86.238178 95.72165 105.205127 109.94686 121.323619 127.00346 136.48694 145.97042">Tracker Muon Probe</tspan></text>
</g>
<path transform="matrix(1,0,0,-1,0,387)" d="M 419.528 289.962 L 532.914 289.962 L 532.914 344.08833 L 419.528 344.08833 Z " fill="#ffffff" fill-rule="evenodd"/>
<path transform="matrix(1,0,0,-1,0,387)" stroke-width=".4" stroke-linecap="butt" stroke-miterlimit="10" stroke-linejoin="miter" fill="none" stroke="#ffffff" d="M 419.528 289.962 L 532.914 289.962 L 532.914 344.08833 L 419.528 344.08833 Z "/>
<path transform="matrix(1,0,0,-1,0,387)" stroke-width=".75" stroke-linecap="butt" stroke-miterlimit="10" stroke-linejoin="miter" fill="none" stroke="#000000" d="M 419.528 289.962 L 532.913 289.962 "/>
<path transform="matrix(1,0,0,-1,0,387)" stroke-width=".75" stroke-linecap="butt" stroke-miterlimit="10" stroke-linejoin="miter" fill="none" stroke="#000000" d="M 532.913 289.962 L 532.913 344.089 "/>
<path transform="matrix(1,0,0,-1,0,387)" stroke-width=".75" stroke-linecap="butt" stroke-miterlimit="10" stroke-linejoin="miter" fill="none" stroke="#000000" d="M 532.913 344.089 L 419.528 344.089 "/>
<path transform="matrix(1,0,0,-1,0,387)" stroke-width=".75" stroke-linecap="butt" stroke-miterlimit="10" stroke-linejoin="miter" fill="none" stroke="#000000" d="M 419.528 344.089 L 419.528 289.962 "/>
<clipPath id="cp24">
<path transform="matrix(1,0,0,-1,0,387)" d="M 0 0 L 566.929 0 L 566.929 386.616 L 0 386.616 Z "/>
</clipPath>
<g clip-path="url(#cp24)">
<text xml:space="preserve" transform="matrix(1 0 -0 1 447.533 55.61499)" font-size="14.6199" font-family="Helvetica"><tspan y="0" x="0 8.932758 17.061425 21.125758 29.254422">Total</tspan></text>
</g>
<path transform="matrix(1,0,0,-1,0,387)" stroke-width="1.5" stroke-linecap="butt" stroke-miterlimit="10" stroke-linejoin="miter" fill="none" stroke="#0000ff" d="M 423.78 335.068 L 443.622 335.068 "/>
<clipPath id="cp25">
<path transform="matrix(1,0,0,-1,0,387)" d="M 0 0 L 566.929 0 L 566.929 386.616 L 0 386.616 Z "/>
</clipPath>
<g clip-path="url(#cp25)">
<text xml:space="preserve" transform="matrix(1 0 -0 1 447.533 73.483)" font-size="14.6199" font-family="Helvetica"><tspan y="0" x="0 9.751474 17.880139 25.190089 32.50004 40.628705 45.49713 53.625799 61.754465 69.883129">Background</tspan></text>
</g>
<path transform="matrix(1,0,0,-1,0,387)" stroke-width="1.5" stroke-linecap="butt" stroke-dasharray="3,3" stroke-miterlimit="10" stroke-linejoin="miter" fill="none" stroke="#0000ff" d="M 423.78 317.025 L 443.622 317.025 "/>
<clipPath id="cp26">
<path transform="matrix(1,0,0,-1,0,387)" d="M 0 0 L 566.929 0 L 566.929 386.616 L 0 386.616 Z "/>
</clipPath>
<g clip-path="url(#cp26)">
<text xml:space="preserve" transform="matrix(1 0 -0 1 447.533 91.35199)" font-size="14.6199" font-family="Helvetica"><tspan y="0" x="0 9.751474 12.997092 21.125758 29.254422 37.383089">Signal</tspan></text>
</g>
<path transform="matrix(1,0,0,-1,0,387)" stroke-width="1.5" stroke-linecap="butt" stroke-miterlimit="10" stroke-linejoin="miter" fill="none" stroke="#ff00ff" d="M 423.78 298.983 L 443.622 298.983 "/>
<clipPath id="cp27">
<path transform="matrix(1,0,0,-1,0,387)" d="M 0 0 L 566.929 0 L 566.929 386.616 L 0 386.616 Z "/>
</clipPath>
<g clip-path="url(#cp27)">
<text xml:space="preserve" transform="matrix(1 0 -0 1 84.4708 58.050996)" font-size="14.6199" font-family="Helvetica" font-weight="bold"><tspan y="0" x="0 10.555569 22.733946 32.48542 36.54975 47.924036 56.856794 64.98546 73.91821 77.982547 88.53812 96.66678 101.5352">CMS Open Data</tspan></text>
</g>
</g>
</svg>
