<svg xmlns="http://www.w3.org/2000/svg" xmlns:xlink="http://www.w3.org/1999/xlink" width="362.835" height="356.172" viewBox="0 0 272.126 267.129"><g data-name="Camada 1"><path d="M0 267.129h272.126V0H0z" fill="#fff"/><clipPath id="a"><path transform="matrix(1 0 0 -1 0 267.129)" d="M0 267.129h272.126V0H0z"/></clipPath><g clip-path="url(#a)"><path stroke-width=".4" stroke-miterlimit="10" fill="none" stroke="#fff" d="M0 267.129h272.126V0H0z"/></g><path d="M38.098 243.087h228.586V18.699H38.098z" fill="#fff" fill-rule="evenodd"/><path stroke-width=".4" stroke-miterlimit="10" fill="none" stroke="#fff" d="M38.098 243.087h228.586V18.699H38.098z"/><path stroke-width=".75" stroke-miterlimit="10" fill="none" stroke="#000" d="M38.098 243.087h228.586V18.699H38.098z"/><path d="M38.098 243.087h228.586V18.699H38.098z" fill="#fff" fill-rule="evenodd"/><path stroke-width=".4" stroke-miterlimit="10" fill="none" stroke="#fff" d="M38.098 243.087h228.586V18.699H38.098z"/><path stroke-width=".75" stroke-miterlimit="10" fill="none" stroke="#000" d="M38.098 243.087h228.586V18.699H38.098z"/><clipPath id="b"><path transform="matrix(1 0 0 -1 0 267.129)" d="M0 267.129h272.126V0H0z"/></clipPath><g clip-path="url(#b)"><path d="M36.919 237.447c0-2.524 3.786-2.524 3.786 0s-3.786 2.524-3.786 0"/><path d="M38.348 237.472c0-2.524 3.785-2.524 3.785 0s-3.785 2.524-3.785 0"/><path d="M39.776 237.449c0-2.524 3.786-2.524 3.786 0s-3.786 2.524-3.786 0"/><path d="M41.205 237.368c0-2.524 3.786-2.524 3.786 0s-3.786 2.524-3.786 0"/><path d="M42.634 237.32c0-2.523 3.785-2.523 3.785 0 0 2.524-3.785 2.524-3.785 0"/><path d="M44.062 237.286c0-2.524 3.786-2.524 3.786 0s-3.786 2.524-3.786 0"/><path d="M45.491 237.567c0-2.524 3.786-2.524 3.786 0s-3.786 2.524-3.786 0"/><path d="M46.92 237.31c0-2.524 3.785-2.524 3.785 0 0 2.523-3.785 2.523-3.785 0"/><path d="M48.348 237.133c0-2.524 3.786-2.524 3.786 0s-3.786 2.524-3.786 0"/><path d="M49.777 237.326c0-2.524 3.786-2.524 3.786 0s-3.786 2.524-3.786 0"/><path d="M51.206 237.229c0-2.524 3.785-2.524 3.785 0s-3.785 2.524-3.785 0"/><path d="M52.634 237.25c0-2.523 3.786-2.523 3.786 0 0 2.525-3.786 2.525-3.786 0"/><path d="M54.063 237.052c0-2.524 3.786-2.524 3.786 0 0 2.523-3.786 2.523-3.786 0"/><path d="M55.492 237.155c0-2.524 3.785-2.524 3.785 0s-3.785 2.524-3.785 0"/><path d="M56.92 237.203c0-2.524 3.786-2.524 3.786 0s-3.786 2.524-3.786 0"/><path d="M58.349 237.065c0-2.524 3.786-2.524 3.786 0s-3.786 2.524-3.786 0"/><path d="M59.777 236.95c0-2.524 3.786-2.524 3.786 0s-3.786 2.524-3.786 0"/><path d="M61.206 236.955c0-2.524 3.786-2.524 3.786 0s-3.786 2.524-3.786 0"/><path d="M62.635 236.992c0-2.523 3.786-2.523 3.786 0 0 2.524-3.786 2.524-3.786 0"/><path d="M64.063 236.926c0-2.524 3.786-2.524 3.786 0s-3.786 2.524-3.786 0"/><path d="M65.492 236.837c0-2.524 3.786-2.524 3.786 0s-3.786 2.524-3.786 0"/><path d="M66.921 236.859c0-2.524 3.786-2.524 3.786 0s-3.786 2.524-3.786 0"/><path d="M68.349 236.446c0-2.524 3.786-2.524 3.786 0s-3.786 2.524-3.786 0"/><path d="M69.778 236.385c0-2.524 3.786-2.524 3.786 0s-3.786 2.524-3.786 0"/><path d="M71.207 236.422c0-2.524 3.786-2.524 3.786 0s-3.786 2.524-3.786 0"/><path d="M72.635 236.224c0-2.524 3.786-2.524 3.786 0s-3.786 2.524-3.786 0"/><path d="M74.064 236.292c0-2.523 3.786-2.523 3.786 0 0 2.524-3.786 2.524-3.786 0"/><path d="M75.493 236.228c0-2.524 3.786-2.524 3.786 0s-3.786 2.524-3.786 0"/><path d="M76.921 235.969c0-2.524 3.786-2.524 3.786 0s-3.786 2.524-3.786 0"/><path d="M78.35 235.736c0-2.524 3.786-2.524 3.786 0s-3.786 2.524-3.786 0"/><path d="M79.78 235.783c0-2.524 3.785-2.524 3.785 0s-3.786 2.524-3.786 0"/><path d="M81.207 235.543c0-2.524 3.786-2.524 3.786 0s-3.786 2.524-3.786 0"/><path d="M82.636 235.471c0-2.523 3.786-2.523 3.786 0 0 2.524-3.786 2.524-3.786 0"/><path d="M84.065 234.995c0-2.524 3.786-2.524 3.786 0s-3.786 2.524-3.786 0"/><path d="M85.493 234.958c0-2.524 3.786-2.524 3.786 0s-3.786 2.524-3.786 0"/><path d="M86.922 234.709c0-2.523 3.786-2.523 3.786 0 0 2.524-3.786 2.524-3.786 0"/><path d="M88.35 234.163c0-2.524 3.787-2.524 3.787 0s-3.786 2.524-3.786 0"/><path d="M89.78 234c0-2.524 3.785-2.524 3.785 0s-3.786 2.524-3.786 0"/><path d="M91.208 233.478c0-2.524 3.786-2.524 3.786 0s-3.786 2.524-3.786 0"/><path d="M92.637 233.188c0-2.523 3.786-2.523 3.786 0 0 2.524-3.786 2.524-3.786 0"/><path d="M94.065 232.835c0-2.524 3.786-2.524 3.786 0s-3.786 2.524-3.786 0"/><path d="M95.494 232.154c0-2.524 3.786-2.524 3.786 0s-3.786 2.524-3.786 0"/><path d="M96.923 231.431c0-2.524 3.786-2.524 3.786 0s-3.786 2.524-3.786 0"/><path d="M98.35 231.044c0-2.524 3.787-2.524 3.787 0s-3.786 2.524-3.786 0"/><path d="M99.78 230.058c0-2.524 3.786-2.524 3.786 0s-3.786 2.524-3.786 0"/><path d="M101.209 229.15c0-2.524 3.786-2.524 3.786 0s-3.786 2.524-3.786 0"/><path d="M102.637 227.692c0-2.524 3.786-2.524 3.786 0s-3.786 2.524-3.786 0"/><path d="M104.066 226.523c0-2.524 3.786-2.524 3.786 0s-3.786 2.524-3.786 0"/><path d="M105.495 225.427c0-2.524 3.785-2.524 3.785 0s-3.785 2.524-3.785 0"/><path d="M106.923 224.096c0-2.524 3.786-2.524 3.786 0s-3.786 2.524-3.786 0"/><path d="M108.352 221.975c0-2.524 3.786-2.524 3.786 0s-3.786 2.524-3.786 0"/><path d="M109.781 219.951c0-2.524 3.785-2.524 3.785 0s-3.785 2.524-3.785 0"/><path d="M111.209 217.63c0-2.523 3.786-2.523 3.786 0 0 2.525-3.786 2.525-3.786 0"/><path d="M112.638 214.984c0-2.524 3.786-2.524 3.786 0 0 2.523-3.786 2.523-3.786 0"/><path d="M114.067 212.205c0-2.524 3.785-2.524 3.785 0s-3.785 2.524-3.785 0"/><path d="M115.495 208.693c0-2.524 3.786-2.524 3.786 0 0 2.523-3.786 2.523-3.786 0M116.924 204.517c0-2.524 3.786-2.524 3.786 0s-3.786 2.524-3.786 0M118.353 200.242c0-2.524 3.785-2.524 3.785 0s-3.785 2.524-3.785 0M119.781 195.514c0-2.524 3.786-2.524 3.786 0 0 2.523-3.786 2.523-3.786 0M121.21 189.898c0-2.524 3.786-2.524 3.786 0s-3.786 2.524-3.786 0M122.639 183.143c0-2.524 3.785-2.524 3.785 0s-3.785 2.524-3.785 0M124.067 176.107c0-2.524 3.786-2.524 3.786 0s-3.786 2.524-3.786 0M125.496 168.196c0-2.524 3.786-2.524 3.786 0 0 2.523-3.786 2.523-3.786 0M126.925 160.15c0-2.524 3.785-2.524 3.785 0s-3.785 2.524-3.785 0M128.353 149.56c0-2.524 3.786-2.524 3.786 0s-3.786 2.524-3.786 0M129.782 139.845c0-2.524 3.786-2.524 3.786 0s-3.786 2.524-3.786 0M131.21 128.653c0-2.524 3.786-2.524 3.786 0 0 2.523-3.785 2.523-3.785 0M132.639 117.404c0-2.524 3.786-2.524 3.786 0s-3.786 2.524-3.786 0M134.068 105.21c0-2.524 3.786-2.524 3.786 0s-3.786 2.524-3.786 0M135.497 93.239c0-2.523 3.785-2.523 3.785 0 0 2.524-3.785 2.524-3.785 0M136.925 80.09c0-2.524 3.786-2.524 3.786 0s-3.786 2.524-3.786 0M138.354 69.41c0-2.524 3.786-2.524 3.786 0s-3.786 2.524-3.786 0M139.783 58.535c0-2.524 3.785-2.524 3.785 0s-3.785 2.524-3.785 0M141.21 49.558c0-2.524 3.787-2.524 3.787 0s-3.786 2.524-3.786 0M142.64 41.066c0-2.524 3.786-2.524 3.786 0s-3.786 2.524-3.786 0M144.07 35.246c0-2.523 3.784-2.523 3.784 0 0 2.524-3.785 2.524-3.785 0M145.497 30.886c0-2.523 3.786-2.523 3.786 0 0 2.524-3.786 2.524-3.786 0"/><path d="M146.926 30.039c0-2.524 3.786-2.524 3.786 0s-3.786 2.524-3.786 0"/><path d="M148.354 29.985c0-2.524 3.786-2.524 3.786 0s-3.786 2.524-3.786 0"/><path d="M149.783 33.383c0-2.524 3.786-2.524 3.786 0s-3.786 2.524-3.786 0M151.212 41.55c0-2.524 3.786-2.524 3.786 0s-3.786 2.524-3.786 0M152.64 48.129c0-2.524 3.786-2.524 3.786 0s-3.786 2.524-3.786 0M154.07 58.66c0-2.524 3.785-2.524 3.785 0s-3.786 2.524-3.786 0M155.498 68.554c0-2.524 3.786-2.524 3.786 0s-3.786 2.524-3.786 0M156.926 80.193c0-2.524 3.786-2.524 3.786 0s-3.786 2.524-3.786 0M158.355 93.688c0-2.524 3.786-2.524 3.786 0s-3.786 2.524-3.786 0M159.784 106.764c0-2.524 3.786-2.524 3.786 0s-3.786 2.524-3.786 0M161.212 120.046c0-2.524 3.786-2.524 3.786 0s-3.786 2.524-3.786 0M162.64 131.578c0-2.523 3.787-2.523 3.787 0 0 2.524-3.786 2.524-3.786 0M164.07 142.999c0-2.523 3.786-2.523 3.786 0 0 2.524-3.786 2.524-3.786 0M165.498 153.898c0-2.524 3.786-2.524 3.786 0s-3.786 2.524-3.786 0M166.927 164.488c0-2.523 3.786-2.523 3.786 0 0 2.524-3.786 2.524-3.786 0M168.356 173.116c0-2.524 3.786-2.524 3.786 0s-3.786 2.524-3.786 0M169.784 181.221c0-2.524 3.786-2.524 3.786 0s-3.786 2.524-3.786 0M171.213 188.63c0-2.522 3.786-2.522 3.786 0 0 2.525-3.786 2.525-3.786 0M172.642 195.2c0-2.523 3.786-2.523 3.786 0 0 2.524-3.786 2.524-3.786 0M174.07 201.422c0-2.524 3.786-2.524 3.786 0s-3.786 2.524-3.786 0M175.499 206.267c0-2.524 3.786-2.524 3.786 0s-3.786 2.524-3.786 0M176.928 210.546c0-2.524 3.786-2.524 3.786 0s-3.786 2.524-3.786 0M178.356 214.848c0-2.524 3.786-2.524 3.786 0s-3.786 2.524-3.786 0"/><path d="M179.785 218.213c0-2.524 3.786-2.524 3.786 0s-3.786 2.524-3.786 0"/><path d="M181.214 221.003c0-2.524 3.786-2.524 3.786 0s-3.786 2.524-3.786 0"/><path d="M182.642 223.072c0-2.524 3.786-2.524 3.786 0s-3.786 2.524-3.786 0"/><path d="M184.071 225.955c0-2.524 3.786-2.524 3.786 0 0 2.523-3.786 2.523-3.786 0"/><path d="M185.5 227.46c0-2.524 3.786-2.524 3.786 0s-3.786 2.524-3.786 0"/><path d="M186.928 228.642c0-2.524 3.786-2.524 3.786 0s-3.786 2.524-3.786 0"/><path d="M188.357 230.488c0-2.524 3.786-2.524 3.786 0s-3.786 2.524-3.786 0"/><path d="M189.786 232.016c0-2.524 3.786-2.524 3.786 0s-3.786 2.524-3.786 0"/><path d="M191.214 233.018c0-2.524 3.786-2.524 3.786 0s-3.786 2.524-3.786 0"/><path d="M192.643 233.82c0-2.524 3.786-2.524 3.786 0s-3.786 2.524-3.786 0"/><path d="M194.072 234.59c0-2.523 3.786-2.523 3.786 0 0 2.525-3.786 2.525-3.786 0"/><path d="M195.5 235.035c0-2.524 3.786-2.524 3.786 0s-3.786 2.524-3.786 0"/><path d="M196.929 235.84c0-2.523 3.786-2.523 3.786 0 0 2.525-3.786 2.525-3.786 0"/><path d="M198.358 236.461c0-2.524 3.785-2.524 3.785 0s-3.785 2.524-3.785 0"/><path d="M199.786 236.869c0-2.524 3.786-2.524 3.786 0 0 2.523-3.786 2.523-3.786 0"/><path d="M201.215 237.418c0-2.524 3.786-2.524 3.786 0s-3.786 2.524-3.786 0"/><path d="M202.644 237.674c0-2.524 3.785-2.524 3.785 0s-3.785 2.524-3.785 0"/><path d="M204.072 237.907c0-2.524 3.786-2.524 3.786 0s-3.786 2.524-3.786 0"/><path d="M205.5 238.177c0-2.524 3.787-2.524 3.787 0s-3.786 2.524-3.786 0"/><path d="M206.93 238.5c0-2.525 3.785-2.525 3.785 0 0 2.522-3.785 2.522-3.785 0"/><path d="M208.358 238.672c0-2.524 3.786-2.524 3.786 0s-3.786 2.524-3.786 0"/><path d="M209.787 238.738c0-2.524 3.786-2.524 3.786 0s-3.786 2.524-3.786 0"/><path d="M211.216 238.849c0-2.524 3.785-2.524 3.785 0s-3.785 2.524-3.785 0"/><path d="M212.644 239.326c0-2.524 3.786-2.524 3.786 0s-3.786 2.524-3.786 0"/><path d="M214.073 239.257c0-2.524 3.786-2.524 3.786 0s-3.786 2.524-3.786 0"/><path d="M215.502 239.423c0-2.524 3.785-2.524 3.785 0s-3.785 2.524-3.785 0"/><path d="M216.93 239.404c0-2.524 3.786-2.524 3.786 0s-3.786 2.524-3.786 0"/><path d="M218.36 239.512c0-2.524 3.785-2.524 3.785 0s-3.786 2.524-3.786 0"/><path d="M219.788 239.434c0-2.524 3.785-2.524 3.785 0s-3.785 2.524-3.785 0"/><path d="M221.216 239.446c0-2.524 3.786-2.524 3.786 0s-3.786 2.524-3.786 0"/><path d="M222.645 239.719c0-2.524 3.786-2.524 3.786 0s-3.786 2.524-3.786 0"/><path d="M224.074 239.622c0-2.523 3.785-2.523 3.785 0 0 2.524-3.785 2.524-3.785 0"/><path d="M225.502 239.905c0-2.524 3.786-2.524 3.786 0s-3.786 2.524-3.786 0"/><path d="M226.931 239.962c0-2.524 3.786-2.524 3.786 0s-3.786 2.524-3.786 0"/><path d="M228.36 239.962c0-2.524 3.785-2.524 3.785 0s-3.785 2.524-3.785 0"/><path d="M229.788 239.864c0-2.524 3.786-2.524 3.786 0s-3.786 2.524-3.786 0"/><path d="M231.217 239.997c0-2.524 3.786-2.524 3.786 0s-3.786 2.524-3.786 0"/><path d="M232.646 239.986c0-2.524 3.785-2.524 3.785 0s-3.785 2.524-3.785 0"/><path d="M234.074 240.146c0-2.524 3.786-2.524 3.786 0s-3.786 2.524-3.786 0"/><path d="M235.503 240.03c0-2.524 3.786-2.524 3.786 0s-3.786 2.524-3.786 0"/><path d="M236.931 240.189c0-2.524 3.786-2.524 3.786 0s-3.786 2.524-3.786 0"/><path d="M238.36 240.199c0-2.524 3.786-2.524 3.786 0s-3.786 2.524-3.786 0"/><path d="M239.789 240.17c0-2.524 3.786-2.524 3.786 0s-3.786 2.524-3.786 0"/><path d="M241.218 240.11c0-2.523 3.785-2.523 3.785 0 0 2.525-3.785 2.525-3.785 0"/><path d="M242.646 240.126c0-2.523 3.786-2.523 3.786 0 0 2.524-3.786 2.524-3.786 0"/><path d="M244.075 240.32c0-2.523 3.786-2.523 3.786 0 0 2.525-3.786 2.525-3.786 0"/><path d="M245.503 240.24c0-2.525 3.786-2.525 3.786 0 0 2.523-3.786 2.523-3.786 0"/><path d="M246.932 240.307c0-2.524 3.786-2.524 3.786 0s-3.786 2.524-3.786 0"/><path d="M248.361 240.297c0-2.523 3.786-2.523 3.786 0 0 2.524-3.786 2.524-3.786 0"/><path d="M249.789 240.295c0-2.524 3.786-2.524 3.786 0s-3.786 2.524-3.786 0"/><path d="M251.218 240.31c0-2.524 3.786-2.524 3.786 0s-3.786 2.524-3.786 0"/><path d="M252.647 240.383c0-2.524 3.786-2.524 3.786 0s-3.786 2.524-3.786 0"/><path d="M254.075 240.329c0-2.524 3.786-2.524 3.786 0s-3.786 2.524-3.786 0"/><path d="M255.504 240.34c0-2.525 3.786-2.525 3.786 0 0 2.523-3.786 2.523-3.786 0"/><path d="M256.933 240.42c0-2.524 3.786-2.524 3.786 0s-3.786 2.524-3.786 0"/><path d="M258.361 240.302c0-2.524 3.786-2.524 3.786 0s-3.786 2.524-3.786 0"/><path d="M259.79 240.358c0-2.524 3.786-2.524 3.786 0s-3.786 2.524-3.786 0"/><path d="M261.22 240.454c0-2.523 3.785-2.523 3.785 0 0 2.524-3.786 2.524-3.786 0"/><path d="M262.647 240.5c0-2.524 3.786-2.524 3.786 0s-3.786 2.524-3.786 0"/><path d="M264.076 240.451c0-2.524 3.786-2.524 3.786 0 0 2.523-3.786 2.523-3.786 0"/><path stroke-width=".75" stroke-miterlimit="10" fill="none" stroke="#000" d="M38.098 243.087h228.585M38.098 236.356v6.73M43.812 239.721v3.366M49.527 239.721v3.366M55.241 239.721v3.366M60.956 239.721v3.366M66.671 236.356v6.73M72.385 239.721v3.366M78.1 239.721v3.366M83.815 239.721v3.366M89.53 239.721v3.366M95.244 236.356v6.73M100.959 239.721v3.366M106.673 239.721v3.366M112.388 239.721v3.366M118.103 239.721v3.366M123.817 236.356v6.73M129.532 239.721v3.366M135.246 239.721v3.366M140.96 239.721v3.366M146.676 239.721v3.366M152.39 236.356v6.73M158.105 239.721v3.366M163.82 239.721v3.366M169.534 239.721v3.366M175.249 239.721v3.366M180.964 236.356v6.73M186.678 239.721v3.366M192.393 239.721v3.366M198.108 239.721v3.366M203.822 239.721v3.366M209.537 236.356v6.73M215.25 239.721v3.366M220.966 239.721v3.366M226.681 239.721v3.366M232.395 239.721v3.366M238.11 236.356v6.73M243.825 239.721v3.366M249.539 239.721v3.366M255.254 239.721v3.366M260.97 239.721v3.366M266.683 236.356v6.73M266.683 236.356v6.73"/></g><symbol id="c"><path d="M.474.084V0H0C0 .021.003.042.01.061a.325.325 0 00.058.095.923.923 0 00.115.109c.078.063.13.114.157.151a.183.183 0 01.041.106.116.116 0 01-.037.088.133.133 0 01-.097.036.137.137 0 01-.102-.038.144.144 0 01-.038-.106l-.09.01c.005.067.029.118.07.154C.127.7.181.719.25.719A.227.227 0 00.413.662.188.188 0 00.473.52.215.215 0 00.455.436.325.325 0 00.397.348 1.392 1.392 0 00.26.222 1.46 1.46 0 01.16.132.281.281 0 01.123.084h.35z"/></symbol><symbol id="d"><path d="M0 0v.1h.1V0H0z"/></symbol><symbol id="e"><path d="M.013.178l.085.008a.147.147 0 01.04-.087.113.113 0 01.078-.027c.027 0 .05.006.071.019.02.012.037.029.05.05C.35.16.361.188.37.223A.441.441 0 01.383.35.203.203 0 00.212.255a.2.2 0 00-.15.064A.236.236 0 000 .49C0 .562.021.62.064.665A.215.215 0 00.225.73.228.228 0 00.44.586.522.522 0 00.47.385.654.654 0 00.44.166.255.255 0 00.353.042.228.228 0 00.214 0a.201.201 0 00-.137.046.202.202 0 00-.064.132m.36.316c0 .05-.013.09-.04.12a.126.126 0 01-.097.044A.134.134 0 01.134.61.177.177 0 01.09.486C.09.441.104.404.131.375A.137.137 0 01.233.333a.13.13 0 01.1.042c.027.029.04.068.04.119z"/></symbol><symbol id="f"><path d="M0 .2l.092.008A.167.167 0 01.14.106.13.13 0 01.23.072.14.14 0 01.337.12a.18.18 0 01.044.127c0 .05-.014.09-.042.119a.146.146 0 01-.11.043.152.152 0 01-.13-.07L.015.352l.069.367h.356V.634H.155L.117.442c.043.03.088.045.135.045A.214.214 0 00.41.422.227.227 0 00.475.255.26.26 0 00.418.087.227.227 0 00.23 0a.232.232 0 00-.16.055A.214.214 0 000 .2z"/></symbol><symbol id="g"><path d="M0 .202l.088.011A.196.196 0 01.139.105.129.129 0 01.228.073c.041 0 .076.014.105.043a.145.145 0 01.042.106.136.136 0 01-.14.14.252.252 0 01-.062-.01l.01.077.014-.001c.038 0 .071.01.101.029.03.02.045.05.045.09 0 .033-.01.06-.032.08A.116.116 0 01.226.66.12.12 0 01.141.627.162.162 0 01.097.53L.009.546c.01.059.035.104.073.137A.211.211 0 00.224.73C.264.731.3.723.332.706a.179.179 0 00.102-.16C.434.513.425.485.409.46A.17.17 0 00.335.4.166.166 0 00.434.338.184.184 0 00.469.224.212.212 0 00.4.064.24.24 0 00.228 0 .218.218 0 000 .202z"/></symbol><symbol id="h"><path d="M0 .365C0 .45.009.518.026.57a.257.257 0 00.078.12.2.2 0 00.13.042.21.21 0 00.1-.023A.19.19 0 00.406.64.355.355 0 00.451.534.704.704 0 00.467.365.66.66 0 00.44.162a.255.255 0 00-.078-.12A.198.198 0 00.233 0a.196.196 0 00-.162.074C.024.134 0 .231 0 .365m.09 0C.09.248.104.17.131.13.16.092.193.072.233.072c.04 0 .075.02.102.059.028.039.041.117.041.234C.376.483.363.561.335.6.308.64.273.658.232.658A.113.113 0 01.136.607C.106.563.09.483.09.365z"/></symbol><symbol id="i"><path d="M.264 0H.176v.56A.582.582 0 000 .454V.54a.53.53 0 01.129.084.33.33 0 01.078.096h.057V0z"/></symbol><use xlink:href="#c" transform="matrix(8.5254 0 0 -8.5254 31.968 251.872)"/><use xlink:href="#d" transform="matrix(8.5254 0 0 -8.5254 37.23 251.872)"/><use xlink:href="#e" transform="matrix(8.5254 0 0 -8.5254 39.18 251.976)"/><use xlink:href="#c" transform="matrix(8.5254 0 0 -8.5254 57.996 251.872)"/><use xlink:href="#d" transform="matrix(8.5254 0 0 -8.5254 63.258 251.872)"/><use xlink:href="#e" transform="matrix(8.5254 0 0 -8.5254 65.208 251.976)"/><use xlink:href="#f" transform="matrix(8.5254 0 0 -8.5254 69.948 251.976)"/><use xlink:href="#g" transform="matrix(8.5254 0 0 -8.5254 93.124 251.98)"/><use xlink:href="#g" transform="matrix(8.5254 0 0 -8.5254 115.367 251.98)"/><use xlink:href="#d" transform="matrix(8.5254 0 0 -8.5254 120.523 251.872)"/><use xlink:href="#h" transform="matrix(8.5254 0 0 -8.5254 122.473 251.976)"/><use xlink:href="#f" transform="matrix(8.5254 0 0 -8.5254 127.213 251.976)"/><use xlink:href="#g" transform="matrix(8.5254 0 0 -8.5254 147.55 251.98)"/><use xlink:href="#d" transform="matrix(8.5254 0 0 -8.5254 152.707 251.872)"/><use xlink:href="#i" transform="matrix(8.5254 0 0 -8.5254 155.23 251.872)"/><use xlink:href="#g" transform="matrix(8.5254 0 0 -8.5254 172.632 251.98)"/><use xlink:href="#d" transform="matrix(8.5254 0 0 -8.5254 177.788 251.872)"/><use xlink:href="#i" transform="matrix(8.5254 0 0 -8.5254 180.313 251.872)"/><use xlink:href="#f" transform="matrix(8.5254 0 0 -8.5254 184.478 251.976)"/><use xlink:href="#g" transform="matrix(8.5254 0 0 -8.5254 203.392 251.98)"/><use xlink:href="#d" transform="matrix(8.5254 0 0 -8.5254 208.548 251.872)"/><use xlink:href="#c" transform="matrix(8.5254 0 0 -8.5254 210.396 251.872)"/><use xlink:href="#g" transform="matrix(8.5254 0 0 -8.5254 229.889 251.98)"/><use xlink:href="#d" transform="matrix(8.5254 0 0 -8.5254 235.045 251.872)"/><use xlink:href="#c" transform="matrix(8.5254 0 0 -8.5254 236.893 251.872)"/><use xlink:href="#f" transform="matrix(8.5254 0 0 -8.5254 241.735 251.976)"/><clipPath id="j"><path transform="matrix(1 0 0 -1 0 267.129)" d="M0 0h272.126v267.129H0z"/></clipPath><g clip-path="url(#j)"><use xlink:href="#g" transform="matrix(8.5254 0 0 -8.5254 260.644 251.98)"/><use xlink:href="#d" transform="matrix(8.5254 0 0 -8.5254 265.8 251.872)"/><use xlink:href="#g" transform="matrix(8.5254 0 0 -8.5254 267.754 251.98)"/></g><symbol id="k"><path d="M.194 0H0v.073h.106v.769H0v.073h.194V0z"/></symbol><use xlink:href="#k" transform="matrix(8.5254 0 0 -8.5254 264.707 263.03)"/><use xlink:href="#c" transform="matrix(5.6836 0 0 -5.6836 261.4 257.55)"/><symbol id="m"><path d="M0 .615v.1h.088v-.1H0M0 0v.519h.088V0H0z"/></symbol><symbol id="n"><path d="M0 0v.519h.08V.445A.186.186 0 00.243.53C.275.53.304.525.33.513A.134.134 0 00.39.47.17.17 0 00.416.404.503.503 0 00.42.32V0H.333v.315a.235.235 0 01-.01.08.083.083 0 01-.036.043.113.113 0 01-.061.016.143.143 0 01-.098-.036C.101.395.088.35.088.283V0H0z"/></symbol><symbol id="o"><path d="M.197 0L0 .519h.093L.204.208C.216.174.227.14.237.104.245.13.256.164.27.202L.385.52h.09L.28 0H.197z"/></symbol><symbol id="p"><path d="M.368.076A.27.27 0 00.178 0C.12 0 .075.014.045.042A.139.139 0 000 .148a.142.142 0 00.063.12c.018.013.04.023.063.03A.628.628 0 00.204.31a.803.803 0 01.157.03v.023C.361.4.353.424.336.439.314.46.281.47.236.47.195.47.164.462.145.447.125.433.11.407.1.371L.015.382a.21.21 0 00.039.09c.018.022.043.04.077.051A.342.342 0 00.25.542c.044 0 .08-.005.108-.016a.141.141 0 00.061-.04.136.136 0 00.027-.059.495.495 0 00.005-.08V.228C.45.147.45.096.455.074A.2.2 0 01.478.012H.386a.186.186 0 00-.018.064M.361.272A.645.645 0 00.217.239.332.332 0 01.141.22a.076.076 0 01-.047-.07C.094.127.103.108.12.092.138.077.164.07.198.07s.064.007.09.022a.138.138 0 01.059.06c.01.02.014.05.014.089v.032z"/></symbol><symbol id="q"><path d="M0 0v.519h.08v-.08C.1.478.117.502.134.514A.099.099 0 00.19.53c.03 0 .06-.01.09-.028L.252.42a.126.126 0 01-.064.02.083.083 0 01-.052-.018.093.093 0 01-.032-.048.342.342 0 01-.015-.103V0H0z"/></symbol><symbol id="r"><path d="M.24.085L.253.008A.326.326 0 00.187 0a.15.15 0 00-.075.015.085.085 0 00-.037.04.317.317 0 00-.01.104v.298H0v.068h.064v.129l.088.053V.525H.24V.457H.152V.154c0-.025.001-.041.004-.049A.038.038 0 01.171.088a.06.06 0 01.03-.006l.04.003z"/></symbol><symbol id="s"><path d="M0 0v.519h.079V.446A.183.183 0 00.236.53.17.17 0 00.33.506.128.128 0 00.382.44C.423.5.477.53.542.53.594.53.633.516.662.487.688.46.701.415.701.356V0H.616v.327c0 .035-.003.06-.009.075a.072.072 0 01-.03.038.122.122 0 01-.144-.022C.408.392.396.354.396.3V0H.308v.337c0 .039-.007.068-.021.088-.015.02-.038.03-.07.03a.129.129 0 01-.07-.02.111.111 0 01-.045-.058A.322.322 0 01.088.27V0H0z"/></symbol><symbol id="t"><path d="M0 .167L.087.18A.122.122 0 01.127.1.143.143 0 01.221.072c.04 0 .07.008.09.025.02.016.03.036.03.058C.34.175.33.19.313.202a.381.381 0 01-.09.03.854.854 0 00-.134.041.134.134 0 00-.056.05.133.133 0 00-.02.07c0 .023.006.044.016.064.011.02.026.036.044.049.013.01.032.018.055.025A.298.298 0 00.312.524.145.145 0 00.382.477a.184.184 0 00.03-.08L.325.384a.094.094 0 01-.034.062.123.123 0 01-.08.023C.172.47.144.463.126.45.108.436.1.42.1.403.1.39.103.38.11.373A.078.078 0 01.144.348C.153.345.179.338.222.326.284.31.327.296.352.286A.13.13 0 00.41.238.148.148 0 00.405.081.166.166 0 00.33.021.272.272 0 00.221 0a.245.245 0 00-.154.042A.196.196 0 000 .167z"/></symbol><symbol id="u"><path d="M0 0v.915h.194V.842H.088v-.77h.106V0H0z"/></symbol><symbol id="v"><path d="M.359.293v.084h.303V.112A.54.54 0 00.518.028a.43.43 0 00-.344.017.3.3 0 00-.13.13.444.444 0 000 .386c.029.061.07.106.125.135.055.03.118.044.19.044a.37.37 0 00.14-.025.23.23 0 00.098-.07.31.31 0 00.054-.117L.566.504a.264.264 0 01-.04.086.162.162 0 01-.068.05.287.287 0 01-.21-.001.21.21 0 01-.123-.122.375.375 0 01-.027-.144c0-.064.01-.118.032-.16A.212.212 0 01.227.116.297.297 0 01.36.085.32.32 0 01.48.11c.04.016.07.033.09.05v.134H.358z"/></symbol><symbol id="w"><path d="M.384.179L.475.167a.222.222 0 00-.08-.123A.24.24 0 00.248 0a.238.238 0 00-.18.07A.275.275 0 000 .267C0 .354.022.422.067.47a.228.228 0 00.175.072c.07 0 .126-.024.17-.07a.281.281 0 00.066-.2.82.82 0 000-.023H.09A.2.2 0 01.139.118.144.144 0 01.248.072c.032 0 .06.009.082.026.023.017.04.044.054.08M.096.322h.29a.176.176 0 01-.034.098.135.135 0 01-.109.05.14.14 0 01-.102-.04.161.161 0 01-.045-.108z"/></symbol><symbol id="x"><path d="M.277 0L0 .716h.103l.186-.52C.304.154.316.116.326.079.337.118.35.157.365.196l.193.52h.097L.375 0H.277z"/></symbol><symbol id="y"><path d="M0 0l.208.74h.07L.07 0H0z"/></symbol><symbol id="z"><path d="M.365.202L.452.19A.225.225 0 00.379.05.21.21 0 00.236 0a.224.224 0 00-.172.07C.021.115 0 .181 0 .268c0 .056.01.105.028.147A.193.193 0 00.112.51c.038.021.08.032.124.032A.214.214 0 00.375.499.195.195 0 00.443.378L.358.365a.141.141 0 01-.044.078A.11.11 0 01.24.47.136.136 0 01.132.422C.104.39.09.34.09.272c0-.07.014-.12.04-.152A.13.13 0 01.235.072c.034 0 .063.01.086.032a.158.158 0 01.044.098z"/></symbol><use xlink:href="#l" transform="matrix(8.5254 0 0 -8.5254 175.578 261.336)"/><use xlink:href="#m" transform="matrix(8.5254 0 0 -8.5254 178.514 261.336)"/><use xlink:href="#n" transform="matrix(8.5254 0 0 -8.5254 180.403 261.336)"/><use xlink:href="#o" transform="matrix(8.5254 0 0 -8.5254 184.69 261.336)"/><use xlink:href="#p" transform="matrix(8.5254 0 0 -8.5254 189.152 261.436)"/><use xlink:href="#q" transform="matrix(8.5254 0 0 -8.5254 194.137 261.336)"/><use xlink:href="#m" transform="matrix(8.5254 0 0 -8.5254 196.989 261.336)"/><use xlink:href="#p" transform="matrix(8.5254 0 0 -8.5254 198.623 261.436)"/><use xlink:href="#n" transform="matrix(8.5254 0 0 -8.5254 203.617 261.336)"/><use xlink:href="#r" transform="matrix(8.5254 0 0 -8.5254 207.945 261.394)"/><use xlink:href="#l" transform="matrix(8.5254 0 0 -8.5254 210.166 261.336)"/><use xlink:href="#s" transform="matrix(8.5254 0 0 -8.5254 213.098 261.336)"/><use xlink:href="#p" transform="matrix(8.5254 0 0 -8.5254 219.945 261.436)"/><use xlink:href="#t" transform="matrix(8.5254 0 0 -8.5254 224.64 261.436)"/><use xlink:href="#t" transform="matrix(8.5254 0 0 -8.5254 228.902 261.436)"/><use xlink:href="#l" transform="matrix(8.5254 0 0 -8.5254 232.903 261.336)"/><use xlink:href="#u" transform="matrix(8.5254 0 0 -8.5254 235.852 263.03)"/><use xlink:href="#v" transform="matrix(8.5254 0 0 -8.5254 238.097 261.44)"/><use xlink:href="#w" transform="matrix(8.5254 0 0 -8.5254 244.588 261.436)"/><use xlink:href="#x" transform="matrix(8.5254 0 0 -8.5254 249.053 261.336)"/><use xlink:href="#y" transform="matrix(8.5254 0 0 -8.5254 254.702 261.44)"/><use xlink:href="#z" transform="matrix(8.5254 0 0 -8.5254 257.405 261.436)"/><symbol id="A"><path d="M0 0v.088h.27V0H0z"/></symbol><use xlink:href="#A" transform="matrix(5.6836 0 0 -5.6836 173.866 256.802)"/><symbol id="B"><path d="M.33.273C.338.211.373.187.416.187c.014 0 .02.001.03.004l.007.064C.418.257.407.278.407.331v.351H.32V.385A.129.129 0 00.312.34.13.13 0 00.196.259C.119.259.087.321.087.396v.286H0V.178C0 .101.004.03.014 0h.079C.083.04.082.129.082.182v.06C.103.205.144.189.188.189c.072 0 .119.046.139.084H.33z"/></symbol><use xlink:href="#B" transform="matrix(8.5254 0 0 -8.5254 169.102 263.024)"/><symbol id="C"><path d="M.195 0v.196H0v.082h.195v.195h.083V.278h.195V.196H.278V0H.195z"/></symbol><use xlink:href="#C" transform="matrix(5.6836 0 0 -5.6836 165.482 257.84)"/><use xlink:href="#B" transform="matrix(8.5254 0 0 -8.5254 160.583 263.024)"/><clipPath id="D"><path transform="matrix(1 0 0 -1 0 267.129)" d="M0 267.129h272.126V0H0z"/></clipPath><g clip-path="url(#D)" stroke-width=".75" stroke-miterlimit="10" fill="none" stroke="#000"><path d="M38.098 243.087V18.7M44.955 243.087h-6.857M41.526 234.631h-3.428M41.526 226.175h-3.428M41.526 217.719h-3.428M44.955 209.262h-6.857M41.526 200.806h-3.428M41.526 192.35h-3.428M41.526 183.894h-3.428M44.955 175.437h-6.857M41.526 166.98h-3.428M41.526 158.525h-3.428M41.526 150.069h-3.428M44.955 141.613h-6.857M41.526 133.156h-3.428M41.526 124.7h-3.428M41.526 116.244h-3.428M44.955 107.788h-6.857M41.526 99.33h-3.428M41.526 90.875h-3.428M41.526 82.419h-3.428M44.955 73.963h-6.857M41.526 65.506h-3.428M41.526 57.05h-3.428M41.526 48.594h-3.428M44.955 40.138h-6.857M44.955 40.138h-6.857M41.526 31.68h-3.428M41.526 23.225h-3.428"/></g><symbol id="E"><path d="M.31 0v.171H0v.081l.327.464h.071V.252h.097v-.08H.398V0H.311m0 .252v.323L.086.252h.225z"/></symbol><symbol id="F"><path d="M.46.553L.373.546A.166.166 0 01.339.62.116.116 0 01.251.66.12.12 0 01.178.635.2.2 0 01.112.547.462.462 0 01.087.38a.204.204 0 00.174.096.198.198 0 00.15-.065.23.23 0 00.062-.167.275.275 0 00-.03-.126A.21.21 0 00.25 0a.225.225 0 00-.18.08C.023.136 0 .224 0 .348c0 .139.026.24.077.302a.22.22 0 00.18.082.201.201 0 00.138-.047A.2.2 0 00.46.553M.101.244c0-.03.006-.06.02-.087A.147.147 0 01.173.094.136.136 0 01.247.072c.037 0 .07.015.096.045.026.03.04.07.04.122 0 .05-.013.089-.04.117a.13.13 0 01-.1.043.135.135 0 01-.1-.043A.153.153 0 01.1.244z"/></symbol><symbol id="G"><path d="M.136.4a.165.165 0 00-.08.058.15.15 0 00-.027.088c0 .052.019.096.056.132a.208.208 0 00.15.053.21.21 0 00.15-.055.175.175 0 00.057-.132.146.146 0 00-.026-.087A.164.164 0 00.336.4.191.191 0 00.438.331.19.19 0 00.472.217.206.206 0 00.407.063.236.236 0 00.236 0C.166 0 .108.02.065.063A.21.21 0 000 .218c0 .047.012.086.035.117A.178.178 0 00.136.4M.12.55c0-.035.01-.062.032-.084A.116.116 0 01.236.434c.034 0 .062.01.083.032a.106.106 0 01.033.078c0 .033-.011.06-.034.081A.113.113 0 01.235.66.115.115 0 01.152.626.104.104 0 01.119.55M.09.22A.16.16 0 01.108.146.129.129 0 01.16.091.156.156 0 01.237.072c.042 0 .076.014.104.04a.139.139 0 01.04.104.144.144 0 01-.148.146A.14.14 0 01.09.22z"/></symbol><use xlink:href="#h" transform="matrix(8.5254 0 0 -8.5254 32.07 246.298)"/><use xlink:href="#c" transform="matrix(8.5254 0 0 -8.5254 27.237 212.117)"/><use xlink:href="#h" transform="matrix(8.5254 0 0 -8.5254 32.078 212.222)"/><use xlink:href="#E" transform="matrix(8.5254 0 0 -8.5254 27.092 178.519)"/><use xlink:href="#h" transform="matrix(8.5254 0 0 -8.5254 32.078 178.623)"/><use xlink:href="#F" transform="matrix(8.5254 0 0 -8.5254 27.305 145.024)"/><use xlink:href="#h" transform="matrix(8.5254 0 0 -8.5254 32.078 145.024)"/><use xlink:href="#G" transform="matrix(8.5254 0 0 -8.5254 27.33 110.948)"/><use xlink:href="#h" transform="matrix(8.5254 0 0 -8.5254 32.078 110.948)"/><use xlink:href="#i" transform="matrix(8.5254 0 0 -8.5254 23.18 77.246)"/><use xlink:href="#h" transform="matrix(8.5254 0 0 -8.5254 27.347 77.35)"/><use xlink:href="#h" transform="matrix(8.5254 0 0 -8.5254 32.087 77.35)"/><use xlink:href="#i" transform="matrix(8.5254 0 0 -8.5254 23.18 43.17)"/><use xlink:href="#c" transform="matrix(8.5254 0 0 -8.5254 27.245 43.17)"/><use xlink:href="#h" transform="matrix(8.5254 0 0 -8.5254 32.087 43.274)"/><use xlink:href="#g" transform="matrix(5.6836 0 0 -5.6836 52.304 13.437)"/><use xlink:href="#i" transform="matrix(8.5254 0 0 -8.5254 43.529 17.623)"/><use xlink:href="#h" transform="matrix(8.5254 0 0 -8.5254 47.695 17.727)"/><symbol id="H"><path d="M0 .482L.214.263 0 .044.044 0l.214.219L.472 0l.044.044-.215.219.215.219-.044.044L.258.307.044.526 0 .482z"/></symbol><use xlink:href="#H" transform="matrix(8.5254 0 0 -8.5254 38.21 17.623)"/><symbol id="I"><path d="M.063 0H0a.881.881 0 01.146.47.802.802 0 01-.067.322A1.65 1.65 0 010 .938h.063A.936.936 0 00.199.692.664.664 0 00.186.215.888.888 0 00.063 0z"/></symbol><use xlink:href="#I" transform="matrix(0 -8.5254 -8.5254 0 19.313 20.42)"/><use xlink:href="#c" transform="matrix(0 -5.6836 -5.6836 0 13.733 24.08)"/><symbol id="J"><path d="M0 0v.716h.518V.63H.095V.412H.49V.328H.095V.084h.44V0H0z"/></symbol><symbol id="K"><path d="M.173 0A.879.879 0 00.05.215a.668.668 0 00-.012.477c.029.083.074.165.135.246h.063A1.685 1.685 0 01.158.793.792.792 0 01.09.47C.09.313.14.156.236 0H.173z"/></symbol><use xlink:href="#J" transform="matrix(0 -8.5254 -8.5254 0 17.519 106.862)"/><use xlink:href="#o" transform="matrix(0 -8.5254 -8.5254 0 17.519 101.742)"/><use xlink:href="#w" transform="matrix(0 -8.5254 -8.5254 0 17.619 97.275)"/><use xlink:href="#n" transform="matrix(0 -8.5254 -8.5254 0 17.519 92.285)"/><use xlink:href="#r" transform="matrix(0 -8.5254 -8.5254 0 17.577 87.957)"/><use xlink:href="#t" transform="matrix(0 -8.5254 -8.5254 0 17.619 85.475)"/><use xlink:href="#l" transform="matrix(0 -8.5254 -8.5254 0 17.519 81.475)"/><use xlink:href="#y" transform="matrix(0 -8.5254 -8.5254 0 17.623 79.104)"/><use xlink:href="#l" transform="matrix(0 -8.5254 -8.5254 0 17.519 76.734)"/><use xlink:href="#K" transform="matrix(0 -8.5254 -8.5254 0 19.313 73.848)"/><use xlink:href="#h" transform="matrix(0 -8.5254 -8.5254 0 17.623 71.172)"/><use xlink:href="#d" transform="matrix(0 -8.5254 -8.5254 0 17.519 66.011)"/><use xlink:href="#h" transform="matrix(0 -8.5254 -8.5254 0 17.623 64.061)"/><use xlink:href="#h" transform="matrix(0 -8.5254 -8.5254 0 17.623 59.321)"/><use xlink:href="#c" transform="matrix(0 -8.5254 -8.5254 0 17.519 54.682)"/><use xlink:href="#l" transform="matrix(0 -8.5254 -8.5254 0 17.519 50.195)"/><use xlink:href="#v" transform="matrix(0 -8.5254 -8.5254 0 17.623 47.371)"/><use xlink:href="#w" transform="matrix(0 -8.5254 -8.5254 0 17.619 40.88)"/><use xlink:href="#x" transform="matrix(0 -8.5254 -8.5254 0 17.519 36.414)"/><use xlink:href="#y" transform="matrix(0 -8.5254 -8.5254 0 17.623 30.765)"/><use xlink:href="#z" transform="matrix(0 -8.5254 -8.5254 0 17.619 28.062)"/><clipPath id="L"><path transform="matrix(1 0 0 -1 0 267.129)" d="M0 267.129h272.126V0H0z"/></clipPath><g clip-path="url(#L)" stroke-width="2.25" stroke-miterlimit="10" fill="none"><path stroke="#00f" d="M38.212 237.316H40.27l.228-.001h.458l.227-.001h.23l.228-.001h.228l.23-.001h.227l.23-.001.228-.001h.228l.23-.001.227-.001.23-.001.227-.001.23-.001.228-.001.228-.001.23-.001.227-.001.23-.001.228-.001.228-.002.23-.001.227-.001.23-.001.227-.002.23-.002.228-.001.228-.002.23-.001.227-.002.23-.002.228-.002.228-.002.23-.002.227-.002.23-.002.227-.002M49.412 237.27l.229-.002.229-.002.228-.003.229-.002.228-.003.229-.002.229-.003.228-.002.229-.003.228-.003.229-.003.229-.002.228-.003.229-.004.228-.003.229-.002.228-.004.229-.003.229-.004.228-.003.229-.004.228-.003.229-.004.229-.004.228-.004.229-.004.228-.004.229-.004.228-.004.229-.004.229-.005.228-.004.229-.004.228-.005.229-.005.229-.005.228-.004.229-.006.228-.005.229-.005.229-.005.228-.006.229-.005.228-.006.229-.005.228-.006.229-.006.229-.006.228-.006M60.613 237.076l.23-.006.227-.006.23-.007.228-.006.228-.007.23-.008.227-.007.23-.007.227-.007.23-.007.228-.008.228-.008.23-.007.227-.008.23-.008.228-.008.228-.009.23-.008.227-.008.23-.009.228-.009.228-.009.23-.009.227-.009.23-.009.227-.01.23-.01.228-.01.228-.01.23-.01.227-.01.23-.01.228-.011.228-.011.23-.011.227-.011.23-.011.227-.012.23-.012.228-.012.228-.012.23-.013.227-.012.23-.013.228-.013.228-.013.23-.014.227-.013.23-.015M71.814 236.603l.228-.014.23-.014.228-.015.228-.015.23-.015.227-.015.23-.016.228-.016.228-.015.23-.017.227-.016.23-.017.228-.018.228-.017.23-.017.227-.018.23-.02.227-.017.23-.02.228-.018.228-.02.23-.02.227-.02.23-.02.228-.021.228-.021.23-.021.227-.022.23-.022.227-.023.23-.022.228-.023.228-.024.228-.024.23-.024.228-.025.23-.025.227-.026.23-.026.227-.026.23-.027.228-.027.228-.028.23-.028.227-.028.23-.03.227-.03.23-.03.228-.03M83.015 235.56l.228-.03.229-.033.228-.032.229-.032.229-.034.228-.033.229-.035.228-.035.229-.035.228-.036.229-.036.229-.038.228-.037.229-.039.228-.039.229-.039.229-.04.228-.043.229-.04.228-.043.229-.044.228-.044.229-.045.229-.045.228-.047.229-.047.228-.048.229-.049.229-.049.228-.05.229-.052.228-.052.229-.053.229-.054.228-.055.229-.057.228-.056.229-.058.228-.059.229-.06.229-.062.228-.062.229-.063.228-.065.229-.066.229-.067.228-.068.229-.069.228-.07M94.215 233.215l.23-.072.227-.074.23-.074.228-.076.228-.078.23-.08.227-.08.23-.081.228-.084.228-.085.23-.087.227-.088.23-.09.228-.092.228-.093.23-.096.227-.098.23-.1.227-.1.23-.103.228-.106.228-.107.23-.11.227-.112.23-.114.228-.117.228-.12.23-.121.227-.124.23-.127.227-.13.23-.131.228-.135.228-.138.23-.141.227-.144.23-.147.228-.15.228-.154.23-.157.227-.162.23-.164.227-.168.23-.172.228-.176.228-.18.23-.185.227-.19.23-.192M105.416 227.31l.229-.199.228-.202.229-.208.228-.213.229-.218.229-.224.228-.229.229-.235.228-.24.229-.247.228-.254.229-.26.229-.267.228-.273.229-.28.228-.288.229-.293.229-.298.228-.302.229-.308.228-.314.229-.318.228-.324.229-.33.229-.336.228-.34.229-.349.228-.354.229-.36.229-.367.228-.373.229-.38.228-.387.229-.395.229-.4.228-.41.229-.417.228-.425.229-.432.228-.44.229-.45.229-.458.228-.467.229-.476.228-.485.229-.495.229-.505.228-.514.229-.525M116.617 210.446l.228-.536.229-.546.228-.557.229-.569.229-.58.228-.592.229-.605.228-.617.229-.629.229-.643.228-.656.229-.67.228-.683.229-.698.229-.713.228-.727.229-.743.228-.758.229-.774.228-.79.229-.807.229-.823.228-.84.229-.859.228-.876.229-.894.229-.912.228-.93.229-.95.228-.97.229-.989.228-1.008.229-1.029.229-1.049.228-1.07.229-1.09.228-1.11.229-1.134.229-1.155.228-1.175.229-1.198.228-1.22.229-1.242.229-1.264.228-1.287.229-1.309.228-1.33.229-1.356.228-1.376M127.817 166.108l.23-1.4.228-1.422.228-1.444.23-1.467.227-1.49.23-1.511.228-1.534.228-1.555.23-1.578.227-1.598.23-1.62.227-1.641.23-1.661.228-1.681.228-1.701.23-1.72.227-1.74.23-1.756.228-1.775.228-1.792.23-1.808.227-1.824.23-1.84.228-1.854.228-1.867.23-1.881.227-1.892.23-1.904.227-1.913.23-1.923.228-1.932.228-1.938.23-1.945.227-1.95.23-1.954.228-1.957.228-1.958.23-1.96.227-1.958.23-1.956.227-1.953.23-1.95.228-1.941.228-1.935.23-1.927.227-1.917.23-1.905.228-1.892.228-1.878M139.018 78.51l.229-1.862.228-1.845.229-1.826.228-1.806.229-1.784.229-1.761.228-1.737.229-1.71.228-1.683.229-1.653.229-1.623.228-1.591.229-1.558.228-1.523.229-1.486.229-1.449.228-1.41.229-1.37.228-1.328.229-1.285.228-1.24.229-1.196.229-1.149.228-1.101.229-1.052.228-1.002.229-.952.229-.899.228-.847.229-.792.228-.739.229-.683.228-.627.229-.57.229-.512.228-.455.229-.396.228-.338.229-.278.229-.218.228-.158.229-.098.228-.038.229.022.229.083.228.143.229.204.228.264.229.323M150.22 31.919l.227.384.23.442.228.502.228.56.23.618.227.675.23.732.228.788.228.844.23.898.227.952.23 1.004.227 1.056.23 1.108.228 1.157.228 1.205.23 1.254.227 1.3.23 1.345.228 1.389.228 1.432.23 1.473.227 1.514.23 1.552.227 1.59.23 1.626.228 1.66.228 1.694.23 1.725.227 1.755.23 1.785.228 1.81.228 1.838.23 1.86.227 1.885.23 1.905.228 1.925.228 1.943.23 1.959.227 1.975.23 1.988.227 2 .23 2.012.228 2.02.228 2.029.23 2.035.227 2.04.23 2.043.228 2.046M161.42 103.25l.229 2.048.228 2.047.229 2.045.228 2.042.228 2.039.229 2.033.229 2.027.228 2.019.229 2.01.228 2.003.229 1.99.229 1.979.228 1.967.229 1.953.228 1.939.229 1.924.229 1.908.228 1.89.229 1.875.228 1.856.229 1.837.228 1.818.229 1.797.229 1.778.228 1.756.229 1.735.228 1.713.229 1.69.229 1.67.228 1.645.229 1.622.228 1.599.229 1.575.228 1.55.229 1.528.229 1.503.228 1.478.23 1.454.227 1.43.229 1.405.229 1.38.228 1.357.229 1.332.228 1.308.229 1.283.229 1.259.228 1.235.229 1.212.228 1.187M172.62 186.98l.229 1.164.228 1.14.229 1.119.229 1.095.228 1.072.229 1.05.228 1.027.229 1.006.229.985.228.964.229.942.228.92.229.903.228.882.229.86.229.844.228.823.229.806.228.786.229.769.229.75.228.735.229.717.228.7.229.685.228.668.229.653.229.638.228.623.229.608.228.594.229.58.229.568.228.553.229.54.228.529.229.516.229.504.228.493.229.48.228.47.229.459.228.449.229.438.229.428.228.419.229.409.228.4.229.39M183.821 222.133l.23.382.227.373.23.366.227.357.23.35.227.34.23.334.228.327.228.32.23.312.227.306.23.3.228.292.228.287.23.281.227.275.23.27.228.262.228.258.23.253.227.247.23.242.227.237.23.233.228.227.228.223.23.22.227.213.23.21.228.205.228.202.23.197.227.194.23.19.227.185.23.182.228.18.228.174.23.171.227.17.23.163.228.162.228.16.23.154.227.152.23.15.227.145.23.144.228.14M195.022 233.85l.228.138.23.135.227.132.23.13.228.127.228.125.23.122.227.12.23.117.228.115.228.113.23.11.227.108.23.106.227.104.23.101.228.1.228.098.23.095.227.094.23.091.228.09.228.088.23.086.227.084.23.083.227.08.23.08.228.076.228.076.23.074.226.073.23.071.228.07.23.067.228.066.228.065.23.064.228.062.228.061.23.06.227.057.23.057.227.055.23.055.228.053.228.052.23.05.227.05M206.222 238.136l.229.048.229.048.228.046.229.045.228.044.229.043.228.042.229.041.229.04.228.039.229.038.228.037.229.037.229.035.228.035.229.034.228.033.229.032.228.031.229.031.229.03.228.029.229.028.228.028.229.027.229.027.228.025.229.026.228.024.229.024.229.023.228.023.229.022.228.022.229.021.228.02.229.02.229.019.228.019.229.019.228.018.229.018.229.017.228.017.229.016.228.015.229.016.228.015.229.015M217.423 239.538l.23.014.227.014.23.014.227.013.23.013.228.013.228.012.23.012.227.012.23.01.228.012.228.01.23.01.227.012.23.01.227.009.23.01.228.009.228.009.23.009.227.009.23.008.228.008.228.008.23.008.227.008.23.007.227.008.23.006.228.008.228.006.23.007.227.006.23.007.228.006.228.006.23.006.227.005.23.006.228.006.228.005.23.005.227.005.23.006.227.005.23.004.228.005.228.005.23.004M228.624 239.948l.228.004.229.005.229.004.228.005.229.003.228.005.229.004.228.004.229.004.229.003.228.004.229.004.228.003.229.004.229.003.228.003.229.004.228.003.229.004.229.003.228.003.229.003.228.003.229.003.228.003.229.003.229.003.228.003.229.003.228.002.229.003.229.003.228.003.229.003.228.002.229.003.228.003.229.002.229.002.228.003.229.003.228.002.229.003.229.002.228.003.229.002.228.002.229.002.228.003M239.824 240.102l.229.002.229.003.228.002.229.002.228.003.229.002.229.002.228.002.229.003h.228l.229.004.229.002.228.002.229.002.228.003.229.002.228.002.229.002.229.002.228.002.229.002.228.002.229.002.229.002.228.003.229.002.228.002.229.002h.228l.229.003.229.003.228.002.229.002.228.002.229.002.229.002.228.002.229.002.228.002h.229l.229.003.228.002.229.002.228.003h.229l.228.004h.229l.229.004h.228M251.025 240.204l.23.002.227.002.23.002.228.002.228.002.23.002.227.002.23.002.227.002.23.002h.228l.228.003.23.002.227.002.23.002.228.002.228.002.23.002.227.002.23.002.227.002h.23l.228.003.228.002.23.002.227.002.23.002.228.002.228.002h.23l.227.003.23.002.228.002.228.002h.23l.227.003.23.002.227.002.23.002.228.002.228.002.23.002.227.002h.23l.228.003.228.002.23.002.227.002.23.002"/><path stroke="#00f" d="M262.226 240.297h.229l.228.003.229.002.228.002.229.002.228.002.229.002.229.002h.228l.229.003.228.002.229.002h.229l.228.003.229.002.228.002.229.002.228.002.229.002"/><path stroke-dasharray="3,3" stroke="#f0f" d="M38.212 243.087H49.412M49.412 243.087H60.613M60.613 243.087H71.815M71.814 243.087H83.015M83.015 243.087H94.215M94.215 243.087H99.244l.23-.023.227-.002.23-.002.228-.003.228-.002.23-.003.227-.003.23-.003.227-.003.23-.003.228-.004.228-.004.23-.005.227-.004.23-.006.228-.005.228-.006.23-.006.227-.007.23-.007.227-.008.23-.008.228-.008.228-.01.23-.01.227-.01.23-.012M105.416 242.92l.229-.012.228-.013.229-.014.228-.015.229-.016.229-.017.228-.017.229-.02.228-.02.229-.022.228-.023.229-.024.229-.026.228-.028.229-.03.228-.031.229-.033.229-.035.228-.037.229-.04.228-.041.229-.045.228-.046.229-.05.229-.052.228-.055.229-.06.228-.06.229-.065.229-.07.228-.072.229-.076.228-.081.229-.085.229-.09.228-.093.229-.1.228-.104.229-.11.228-.114.229-.121.229-.127.228-.134.229-.14.228-.146.229-.154.229-.162.228-.17.229-.175M116.617 239.648l.228-.185.229-.193.228-.203.229-.212.229-.22.228-.232.229-.24.228-.253.229-.262.229-.274.228-.286.229-.297.228-.31.229-.322.229-.335.228-.349.229-.362.228-.377.229-.39.228-.407.229-.422.229-.437.228-.453.229-.47.228-.487.229-.503.229-.522.228-.539.229-.558.228-.577.229-.596.228-.615.229-.635.229-.656.228-.675.229-.697.228-.718.229-.739.229-.762.228-.782.229-.805.228-.829.229-.85.229-.874.228-.897.229-.92.228-.943.229-.968.228-.99M127.817 214.02l.23-1.016.228-1.039.228-1.063.23-1.087.227-1.11.23-1.135.228-1.159.228-1.183.23-1.206.227-1.229.23-1.253.227-1.276.23-1.3.228-1.32.228-1.346.23-1.365.227-1.388.23-1.409.228-1.429.228-1.45.23-1.469.227-1.488.23-1.508.228-1.524.228-1.542.23-1.559.227-1.574.23-1.589.227-1.603.23-1.617.228-1.629.228-1.64.23-1.65.227-1.66.23-1.67.228-1.678.228-1.68.23-1.689.227-1.693.23-1.694.227-1.696.23-1.698.228-1.696.228-1.695.23-1.69.227-1.686.23-1.679.228-1.673.228-1.664M139.018 141.925l.229-1.653.228-1.642.229-1.63.228-1.613.229-1.598.229-1.582.228-1.562.229-1.543.228-1.521.229-1.497.229-1.474.228-1.448.229-1.421.228-1.392.229-1.362.229-1.331.228-1.298.229-1.265.228-1.23.229-1.192.228-1.156.229-1.116.229-1.077.228-1.035.229-.993.228-.951.229-.905.229-.861.228-.814.229-.768.228-.72.229-.671.228-.622.229-.571.229-.522.228-.47.229-.418.228-.366.229-.313.229-.261.228-.207.229-.154.228-.1.229-.047.229.008.228.06.229.115.228.169.229.22M150.22 98.126l.227.275.23.328.228.38.228.432.23.484.227.535.23.585.228.635.228.685.23.732.227.78.23.828.227.873.23.917.228.962.228 1.005.23 1.047.227 1.087.23 1.127.228 1.166.228 1.203.23 1.239.227 1.274.23 1.307.227 1.339.23 1.37.228 1.4.228 1.429.23 1.455.227 1.48.23 1.504.228 1.527.228 1.548.23 1.568.227 1.586.23 1.603.228 1.618.228 1.633.23 1.645.227 1.656.23 1.666.227 1.675.23 1.68.228 1.688.228 1.692.23 1.695.227 1.696.23 1.697.228 1.696M161.42 157.558l.229 1.694.228 1.69.229 1.688.228 1.68.228 1.676.229 1.666.229 1.658.228 1.648.229 1.638.228 1.626.229 1.613.229 1.599.228 1.586.229 1.57.228 1.554.229 1.537.229 1.52.228 1.502.229 1.483.228 1.465.229 1.444.228 1.424.229 1.403.229 1.382.228 1.359.229 1.339.228 1.315.229 1.293.229 1.27.228 1.247.229 1.223.228 1.2.229 1.176.228 1.153.229 1.128.229 1.105.228 1.08.23 1.056.227 1.033.229 1.008.229.985.228.96.229.938.228.914.229.89.229.868.228.844.229.822.228.799M172.62 222.31l.229.776.228.755.229.734.229.712.228.69.229.671.228.65.229.63.229.61.228.59.229.572.228.553.229.535.228.516.229.5.229.482.228.465.229.45.228.431.229.418.229.402.228.387.229.373.228.358.229.345.228.332.229.32.229.305.228.294.229.282.228.271.229.26.229.248.228.24.229.227.228.22.229.208.229.2.228.192.229.183.228.174.229.167.228.16.229.151.229.145.228.138.229.132.228.125.229.12M183.821 241.01l.23.113.227.108.23.103.227.097.23.093.227.088.23.084.228.08.228.075.23.072.227.067.23.064.228.061.228.058.23.054.227.052.23.048.228.046.228.044.23.041.227.04.23.035.227.035.23.032.228.031.228.03.23.026.227.026.23.024.228.023.228.021.23.02.227.02.23.017.227.016.23.016.228.014.228.014.23.013.227.012.23.011.228.011.228.01.23.01.227.007.23.01.227.006.23.007.228.007M195.022 243.002l.228.006.23.006.227.005.23.005.228.005.228.004.23.004.227.004.23.003.228.004.228.003.23.002.227.003.23.003.227.002.23.002h.228l.228.024H206.222M206.222 243.087H217.423M217.423 243.087H228.625M228.624 243.087H239.824M239.824 243.087H251.025M251.025 243.087H262.227M262.226 243.087H266.569"/><path stroke-dasharray="1,2" stroke="#fc0" d="M38.212 242.635l.228-.004.23-.003.228-.004.228-.003.23-.004.227-.003.23-.004.227-.004.23-.003.228-.004.228-.004.23-.004.227-.004.23-.004.228-.004.228-.004.23-.003.227-.004.23-.004.228-.005.228-.004.23-.004.227-.004.23-.005.227-.004.23-.004.228-.004.228-.005.23-.005.227-.004.23-.005.228-.004.228-.005.23-.005.227-.005.23-.004.227-.005.23-.005.228-.005.228-.005.23-.005.227-.006.23-.005.228-.005.228-.005.23-.006.227-.005.23-.005.227-.006M49.412 242.42l.229-.006.229-.005.228-.006.229-.006.228-.006.229-.006.229-.006.228-.005.229-.007.228-.006.229-.006.229-.006.228-.006.229-.007.228-.006.229-.007.228-.007.229-.006.229-.007.228-.007.229-.006.228-.007.229-.008.229-.006.228-.008.229-.007.228-.007.229-.008.228-.007.229-.008.229-.008.228-.007.229-.008.228-.008.229-.008.229-.008.228-.008.229-.01.228-.007.229-.01.229-.007.228-.01.229-.008.228-.01.229-.008.228-.01.229-.008.229-.01.228-.01M60.613 242.062l.23-.01.227-.01.23-.01.228-.01.228-.008.23-.011.227-.01.23-.01.227-.01.23-.011.228-.011.228-.011.23-.011.227-.011.23-.011.228-.012.228-.011.23-.011.227-.012.23-.012.228-.012.228-.012.23-.013.227-.012.23-.013.227-.013.23-.012.228-.013.228-.014.23-.013.227-.014.23-.014.228-.014.228-.014.23-.014.227-.015.23-.014.227-.015.23-.015.228-.015.228-.016.23-.016.227-.015.23-.016.228-.016.228-.017.23-.017.227-.016.23-.017M71.814 241.431l.228-.018.23-.017.228-.018.228-.018.23-.018.227-.018.23-.019.228-.019.228-.02.23-.019.227-.02.23-.02.228-.02.228-.02.23-.02.227-.023.23-.02.227-.023.23-.022.228-.022.228-.023.23-.022.227-.023.23-.024.228-.024.228-.024.23-.025.227-.024.23-.025.227-.026.23-.026.228-.027.228-.026.228-.027.23-.028.228-.027.23-.029.227-.029.23-.028.227-.03.23-.03.228-.03.228-.03.23-.032.227-.032.23-.032.227-.032.23-.034.228-.033M83.015 240.235l.228-.034.229-.035.228-.035.229-.036.229-.036.228-.036.229-.038.228-.038.229-.038.228-.039.229-.04.229-.04.228-.04.229-.042.228-.042.229-.043.229-.044.228-.044.229-.045.228-.046.229-.045.228-.048.229-.048.229-.048.228-.049.229-.05.228-.05.229-.053.229-.052.228-.054.229-.054.228-.055.229-.057.229-.057.228-.058.229-.058.228-.06.229-.062.228-.062.229-.062.229-.064.228-.065.229-.067.228-.067.229-.069.229-.069.228-.07.229-.073.228-.074M94.215 237.744l.23-.075.227-.075.23-.078.228-.078.228-.08.23-.082.227-.083.23-.084.228-.086.228-.088.23-.088.227-.09.23-.094.228-.093.228-.096.23-.097.227-.1.23-.1.227-.103.23-.105.228-.107.228-.109.23-.11.227-.114.23-.115.228-.117.228-.119.23-.122.227-.125.23-.126.227-.129.23-.132.228-.134.228-.137.23-.139.227-.142.23-.145.228-.148.228-.15.23-.155.227-.157.23-.16.227-.164.23-.166.228-.17.228-.174.23-.178.227-.18.23-.185M105.416 231.86l.229-.188.228-.193.229-.197.228-.2.229-.206.229-.209.228-.214.229-.219.228-.223.229-.228.228-.234.229-.238.229-.243.228-.249.229-.254.228-.26.229-.262.229-.266.228-.268.229-.27.228-.275.229-.277.228-.28.229-.284.229-.286.228-.289.229-.292.228-.295.229-.298.229-.3.228-.305.229-.306.228-.309.229-.313.229-.315.228-.317.229-.32.228-.324.229-.326.228-.329.229-.33.229-.334.228-.337.229-.338.228-.342.229-.344.229-.346.228-.348.229-.35M116.617 218.13l.228-.355.229-.355.228-.357.229-.36.229-.362.228-.364.229-.366.228-.368.229-.369.229-.372.228-.373.229-.376.228-.376.229-.379.229-.38.228-.382.229-.383.228-.384.229-.385.228-.388.229-.387.229-.389.228-.39.229-.392.228-.392.229-.392.229-.394.228-.394.229-.395.228-.395.229-.396.228-.396.229-.396.229-.396.228-.396.229-.397.228-.396.229-.397.229-.395.228-.396.229-.395.228-.395.229-.394.229-.394.228-.392.229-.392.228-.39.229-.39.228-.388M127.817 199.285l.23-.387.228-.386.228-.385.23-.383.227-.38.23-.38.228-.378.228-.375.23-.374.227-.372.23-.37.227-.366.23-.364.228-.363.228-.36.23-.356.227-.354.23-.351.228-.348.228-.345.23-.342.227-.34.23-.334.228-.332.228-.328.23-.324.227-.321.23-.317.227-.313.23-.31.228-.304.228-.301.23-.297.227-.292.23-.287.228-.283.228-.28.23-.273.227-.27.23-.263.227-.26.23-.253.228-.25.228-.243.23-.24.227-.232.23-.228.228-.223.228-.217M139.018 183.651l.229-.21.228-.207.229-.2.228-.194.229-.189.229-.182.228-.176.229-.17.228-.165.229-.159.229-.15.228-.147.229-.14.228-.133.229-.127.229-.12.228-.115.229-.108.228-.1.229-.095.228-.088.229-.08.229-.077.228-.067.229-.062.228-.055.229-.048.229-.04.228-.036.229-.028.228-.02.229-.016.228-.007h.229l.229.005.228.013.229.02.228.025.229.033.229.04.228.046.229.053.228.06.229.066.229.074.228.08.229.086.228.092.229.1M150.22 180.733l.227.106.23.112.228.12.228.124.23.132.227.138.23.144.228.151.228.157.23.162.227.17.23.174.227.181.23.187.228.192.228.2.23.203.227.21.23.216.228.221.228.226.23.232.227.238.23.242.227.248.23.253.228.258.228.263.23.267.227.273.23.277.228.282.228.287.23.291.227.295.23.3.228.303.228.31.23.311.227.315.23.32.227.324.23.327.228.331.228.334.23.338.227.341.23.345.228.347M161.42 192.511l.229.35.228.354.229.356.228.358.228.362.229.364.229.366.228.369.229.371.228.373.229.376.229.376.228.379.229.381.228.383.229.384.229.385.228.387.229.388.228.389.229.391.228.391.229.392.229.394.228.394.229.394.228.395.229.396.229.396.228.396.229.396.228.397.229.396.228.397.229.396.229.396.228.396.23.395.227.395.229.394.229.394.228.392.229.393.228.391.229.39.229.39.228.388.229.387.228.386M172.62 211.37l.229.385.228.383.229.382.229.38.228.379.229.378.228.375.229.374.229.372.228.37.229.369.228.366.229.365.228.362.229.36.229.358.228.357.229.353.228.352.229.349.229.347.228.344.229.342.228.34.229.337.228.334.229.332.229.329.228.326.229.324.228.32.229.32.229.316.228.313.229.31.228.307.229.304.229.302.228.299.229.295.228.293.229.29.228.287.229.284.229.28.228.279.229.275.228.272.229.269M183.821 227.709l.23.267.227.262.23.26.227.257.23.254.227.25.23.249.228.245.228.242.23.239.227.236.23.233.228.23.228.227.23.224.227.22.23.219.228.215.228.212.23.209.227.206.23.204.227.2.23.198.228.194.228.192.23.189.227.186.23.184.228.18.228.178.23.175.227.173.23.169.227.167.23.165.228.162.228.159.23.156.227.154.23.15.228.15.228.146.23.144.227.142.23.138.227.137.23.134.228.132M195.022 237.322l.228.13.23.126.227.125.23.123.228.12.228.118.23.116.227.114.23.111.228.11.228.108.23.106.227.102.23.102.227.099.23.097.228.097.228.093.23.092.227.09.23.088.228.086.228.085.23.082.227.08.23.08.227.078.23.076.228.075.228.072.23.072.226.069.23.068.228.067.23.065.228.064.228.063.23.06.228.06.228.058.23.057.227.055.23.054.227.054.23.051.228.051.228.05.23.048.227.047M206.222 241.417l.229.046.229.045.228.044.229.043.228.04.229.042.228.04.229.039.229.037.228.037.229.036.228.035.229.035.229.033.228.032.229.032.228.03.229.03.228.03.229.029.229.027.228.028.229.026.228.025.229.025.229.025.228.023.229.023.228.022.229.022.229.02.228.022.229.02.228.019.229.02.228.018.229.018.229.017.228.017.229.016.228.016.229.016.229.015.228.014.229.015.228.013.229.014.228.013.229.012M217.423 242.713l.23.012.227.012.23.012.227.011.23.011.228.01.228.01.23.01.227.01.23.01.228.008.228.01.23.007.227.008.23.008.227.008.23.008.228.007.228.007.23.007.227.006.23.006.228.007.228.005.23.006.227.006.23.005.227.005.23.005.228.005.228.005.23.004.227.005.23.004.228.004.228.005.23.003.227.004.23.004.228.003.228.003.23.004.227.003.23.003.227.003.23.003.228.002.228.003.23.003M228.624 243.023l.228.002.229.003.229.002.228.002.229.002.228.002.229.002.228.002.229.002.229.002h.228l.229.003.228.002h.229l.229.003h.228l.229.002.228.002h.229l.229.002.228.002h.229l.228.002h.229l.228.002h.229l.229.023H239.824M239.824 243.087H251.025M251.025 243.087H262.227M262.226 243.087H266.569"/><path stroke-dasharray="3,4,1,4" stroke="#00f" d="M38.212 237.769l.228.003.23.004.228.003.228.004.23.004.227.003.23.003.227.004.23.004.228.003.228.004.23.003.227.003.23.004.228.003.228.004.23.003.227.003.23.004.228.004.228.003.23.004.227.003.23.003.227.004.23.003.228.004.228.003.23.004.227.003.23.003.228.004.228.003.23.004.227.003.23.004.227.003.23.003.228.004.228.003.23.004.227.003.23.003.228.004.228.003.23.004.227.003.23.004.227.003M49.412 237.938l.229.003.229.004.228.003.229.003.228.004.229.003.229.003.228.004.229.003.228.004.229.003.229.004.228.003.229.003.228.003.229.004.228.003.229.004.229.003.228.003.229.003.228.004.229.003.229.004.228.003.229.003.228.003.229.004.228.003.229.004.229.003.228.003.229.003.228.004.229.003.229.004.228.003.229.003.228.003.229.004.229.003.228.003.229.004.228.003.229.003.228.003.229.004.229.003.228.003M60.613 238.1l.23.004.227.004.23.003.228.003.228.004.23.003.227.003.23.003.227.004.23.003.228.003.228.004.23.002.227.004.23.003.228.003.228.004.23.003.227.003.23.003.228.003.228.004.23.003.227.003.23.004.227.003.23.003.228.003.228.003.23.004.227.003.23.003.228.003.228.003.23.004.227.003.23.003.227.003.23.003.228.003.228.004.23.003.227.003.23.004.228.003.228.003.23.003.227.003.23.003M71.814 238.26l.228.002.23.003.228.004.228.003.23.003.227.003.23.003.228.003.228.004.23.003.227.003.23.003.228.004.228.002.23.003.227.004.23.003.227.003.23.003.228.003.228.003.23.003.227.004.23.003.228.003.228.003.23.003.227.003.23.003.227.004.23.003.228.003.228.003.228.003.23.003.228.003.23.003.227.003.23.004.227.002.23.003.228.004.228.003.23.003.227.003.23.003.227.003.23.003.228.003M83.015 238.412l.228.003.229.003.228.003.229.003.229.003.228.004.229.002.228.003.229.004.228.003.229.003.229.003.228.003.229.003.228.003.229.003.229.003.228.003.229.003.228.003.229.003.228.003.229.003.229.003.228.003.229.003.228.004.229.002.229.003.228.003.229.003.228.004.229.003.229.003.228.002.229.003.228.003.229.003.228.004.229.003.229.003.228.002.229.003.228.003.229.003.229.004.228.002.229.004.228.002M94.215 238.56l.23.004.227.003.23.003.228.003.228.003.23.003.227.003.23.003.228.002.228.004.23.003.227.003.23.003.228.003.228.002.23.003.227.003.23.003.227.003.23.003.228.003.228.003.23.003.227.003.23.003.228.003.228.003.23.003.227.002.23.003.227.003.23.003.228.003.228.003.23.003.227.003.23.003.228.003.228.003.23.003.227.003.23.003.227.002.23.003.228.003.228.003.23.003.227.003.23.003M105.416 238.704l.229.003.228.003.229.003.228.002.229.003.229.003.228.003.229.003.228.003.229.003.228.003.229.003.229.002.228.003.229.003.228.003.229.003.229.003.228.002.229.003.228.003.229.003.228.003.229.003.229.002.228.003.229.003.228.003.229.003.229.002.228.003.229.003.228.003.229.003.229.003.228.003.229.002.228.003.229.003.228.003.229.003.229.003.228.002.229.003.228.003.229.003.229.002.228.003.229.003M116.617 238.844l.228.003.229.001.228.003.229.003.229.003.228.003.229.003.228.002.229.003.229.003.228.002.229.003.228.003.229.003.229.003.228.002.229.003.228.003.229.003.228.002.229.003.229.003.228.002.229.003.228.003.229.003.229.003.228.002.229.003.228.003.229.002.228.003.229.003.229.003.228.003.229.002.228.003.229.002.229.003.228.003.229.003.228.003.229.002.229.003.228.003.229.002.228.003.229.003.228.002M127.817 238.978l.23.003.228.002.228.003.23.003.227.003.23.003.228.002.228.003.23.002.227.003.23.003.227.003.23.002.228.003.228.003.23.002.227.003.23.003.228.002.228.003.23.003.227.002.23.003.228.002.228.003.23.003.227.003.23.002.227.003.23.003.228.002.228.003.23.002.227.003.23.003.228.002.228.003.23.003.227.002.23.003.227.002.23.003.228.003.228.003.23.002.227.003.23.002.228.003.228.002M139.018 239.108l.229.003.228.002.229.003.228.003.229.002.229.003.228.003.229.002.228.003.229.002.229.003.228.003.229.002.228.003.229.003.229.002.228.002.229.003.228.003.229.002.228.003.229.003.229.002.228.002.229.003.228.003.229.002.229.003.228.002.229.003.228.003.229.002.228.003.229.002.229.003.228.002.229.003.228.003.229.002.229.003.228.002.229.003.228.002.229.003.229.002.228.003.229.003.228.002.229.002M150.22 239.235l.227.002.23.003.228.002.228.003.23.003.227.002.23.003.228.002.228.003.23.002.227.003.23.002.227.003.23.002.228.003.228.003.23.002.227.002.23.003.228.002.228.003.23.002.227.003.23.003.227.002.23.002.228.003.228.002.23.003.227.002.23.003.228.002.228.003.23.002.227.003.23.002.228.003.228.002.23.003.227.002.23.003.227.002.23.002.228.003.228.002.23.003.227.002.23.003.228.002M161.42 239.357l.229.002.228.003.229.002.228.003.228.002.229.003.229.002.228.003.229.002.228.003.229.002.229.002.228.003.229.002.228.003.229.003.229.002.228.002.229.002.228.003.229.002.228.003.229.002.229.003.228.002.229.002.228.003.229.002.229.003.228.002.229.003.228.002.229.002.228.003.229.002.229.002.228.003.23.002.227.003.229.002.229.003.228.002.229.002.228.002.229.003.229.002.228.003.229.002.228.003M172.62 239.475l.229.002.228.003.229.002.229.002.228.003.229.002.228.003.229.002.229.002.228.002.229.003.228.002.229.003.228.002.229.002.229.003.228.002.229.002.228.003.229.002.229.002.228.003.229.002.228.003.229.002.228.002.229.002.229.003.228.002.229.002.228.003.229.002.229.003.228.002.229.002.228.002.229.003.229.002.228.002.229.003.228.002.229.002.228.003.229.002.229.002.228.002.229.003.228.002.229.002M183.821 239.59l.23.002.227.003.23.002.227.002.23.003.227.002.23.002.228.003.228.002.23.002.227.002.23.003.228.002.228.002.23.003.227.002.23.002.228.003h.228l.23.004.227.002.23.002.227.003.23.002.228.002.228.003.23.002.227.002.23.002.228.002.228.003.23.002.227.002.23.003.227.002.23.002.228.002.228.002.23.003.227.002.23.002.228.003.228.002.23.002.227.003h.23l.227.004.23.002.228.002M195.022 239.701l.228.002.23.002.227.002.23.003.228.002.228.002.23.003.227.002.23.002.228.002.228.002.23.002.227.003.23.002.227.002.23.002.228.003.228.002.23.002.227.002.23.002.228.002.228.003.23.002.227.002.23.002.227.003.23.002.228.002.228.002.23.002.226.002.23.003.228.002.23.002.228.002.228.003.23.001.228.002.228.003.23.002.227.002.23.002.227.003.23.002.228.002.228.002.23.002.227.002M206.222 239.808l.229.002.229.002.228.002.229.003.228.002.229.002.228.002.229.002.229.002.228.002.229.002.228.002.229.003.229.002.228.002.229.002.228.002.229.003.228.002.229.002.229.002.228.002.229.002.228.002.229.002.229.003.228.002.229.002.228.002.229.002.229.002.228.002.229.002.228.002.229.003.228.002.229.002.229.002.228.002.229.002.228.002.229.002.229.002.228.002.229.003.228.002.229.002.228.002.229.002M217.423 239.912l.23.002.227.002.23.002.227.002.23.002.228.002.228.003.23.002.227.002.23.002.228.002.228.002.23.002.227.002.23.002.227.002.23.002.228.002.228.003.23.002.227.001.23.002.228.003.228.002.23.002.227.002.23.002.227.002.23.002.228.002.228.002.23.002.227.002.23.002.228.002.228.002.23.002.227.002.23.003.228.002.228.001.23.002.227.002.23.002.227.002.23.003.228.002.228.002.23.002M228.624 240.013l.228.002.229.002.229.002.228.002.229.002.228.002.229.002.228.002.229.002.229.002.228.002.229.002.228.002.229.002.229.002.228.002.229.002.228.002.229.002.229.002.228.002.229.002.228.002.229.002.228.002.229.002.229.002.228.002.229.002.228.002.229.002.229.002.228.002.229.002.228.002.229.002.228.002.229.002.229.002.228.002.229.002.228.002.229.002.229.002.228.002.229.002.228.002.229.002.228.002M239.824 240.11l.229.003.229.002.228.002.229.002.228.002.229.002.229.002.228.002.229.002.228.002h.229l.229.003.228.002.229.002.228.002.229.002.228.002.229.002.229.002.228.002.229.002.228.002h.229l.229.003.228.002.229.002.228.002.229.002.228.002.229.002.229.002.228.002.229.002.228.002.229.002.229.002.228.002.229.002h.228l.229.003.229.002.228.002.229.002.228.002.229.002.228.002h.229l.229.003.228.002M251.025 240.205l.23.002.227.002.23.002.228.002.228.002.23.002.227.002h.23l.227.003.23.002.228.002.228.002.23.002h.227l.23.003.228.002.228.002.23.002.227.002.23.002.227.002.23.002h.228l.228.003.23.002.227.002.23.002.228.002.228.002.23.002.227.002h.23l.228.003.228.002.23.002.227.002h.23l.227.003.23.002.228.002.228.002.23.002.227.002.23.002h.228l.228.003.23.002.227.002.23.002"/><path stroke-dasharray="3,4,1,4" stroke="#00f" d="M262.226 240.297h.229l.228.003.229.002.228.002.229.002.228.002.229.002.229.002h.228l.229.003.228.002.229.002h.229l.228.003.229.002.228.002.229.002.228.002.229.002"/></g><clipPath id="M"><path transform="matrix(1 0 0 -1 0 267.129)" d="M0 0h272.126v267.129H0z"/></clipPath><g clip-path="url(#M)"><symbol id="N"><path d="M0 0v.716h.095V0H0z"/></symbol><symbol id="O"><path d="M0 0v.716h.143L.312.209.346.103l.038.115.172.498h.127V0H.592v.6L.384 0H.298L.091.61V0H0z"/></symbol><symbol id="P"><path d="M0 0l.275.716h.102L.67 0H.562L.479.217h-.3L.101 0H0m.207.294h.242L.375.492c-.023.06-.04.11-.051.149A.913.913 0 00.285.504L.207.294z"/></symbol><symbol id="Q"><path d="M0 0v.716h.088V0H0z"/></symbol><use xlink:href="#N" transform="matrix(12.7881 0 0 -12.7881 82.598 12.89)"/><use xlink:href="#n" transform="matrix(12.7881 0 0 -12.7881 85.803 12.89)"/><use xlink:href="#o" transform="matrix(12.7881 0 0 -12.7881 92.233 12.89)"/><use xlink:href="#p" transform="matrix(12.7881 0 0 -12.7881 98.927 13.04)"/><use xlink:href="#q" transform="matrix(12.7881 0 0 -12.7881 106.405 12.89)"/><use xlink:href="#m" transform="matrix(12.7881 0 0 -12.7881 110.682 12.89)"/><use xlink:href="#p" transform="matrix(12.7881 0 0 -12.7881 113.134 13.04)"/><use xlink:href="#n" transform="matrix(12.7881 0 0 -12.7881 120.625 12.89)"/><use xlink:href="#r" transform="matrix(12.7881 0 0 -12.7881 127.117 12.978)"/><use xlink:href="#l" transform="matrix(12.7881 0 0 -12.7881 130.448 12.89)"/><use xlink:href="#O" transform="matrix(12.7881 0 0 -12.7881 134.952 12.89)"/><use xlink:href="#p" transform="matrix(12.7881 0 0 -12.7881 145.117 13.04)"/><use xlink:href="#t" transform="matrix(12.7881 0 0 -12.7881 152.159 13.04)"/><use xlink:href="#t" transform="matrix(12.7881 0 0 -12.7881 158.553 13.04)"/><use xlink:href="#l" transform="matrix(12.7881 0 0 -12.7881 164.554 12.89)"/><use xlink:href="#K" transform="matrix(12.7881 0 0 -12.7881 168.883 15.582)"/><use xlink:href="#P" transform="matrix(12.7881 0 0 -12.7881 172.348 12.89)"/><use xlink:href="#Q" transform="matrix(12.7881 0 0 -12.7881 181.715 12.89)"/><use xlink:href="#Q" transform="matrix(12.7881 0 0 -12.7881 184.554 12.89)"/><use xlink:href="#I" transform="matrix(12.7881 0 0 -12.7881 187.349 15.582)"/></g><clipPath id="R"><path transform="matrix(1 0 0 -1 0 267.129)" d="M0 267.129h272.126V0H0z"/></clipPath><g clip-path="url(#R)"><g opacity=".35"><clipPath id="S"><path transform="matrix(1 0 0 -1 0 267.129)" d="M51.44 24.042h41.763V248.43H51.44z"/></clipPath><g clip-path="url(#S)"><path d="M51.44 243.087h41.763V18.699H51.44z" fill="red" fill-rule="evenodd"/></g></g><g opacity=".35"><clipPath id="T"><path transform="matrix(1 0 0 -1 0 267.129)" d="M107.124 24.042h83.525V248.43h-83.525z"/></clipPath><g clip-path="url(#T)"><path d="M107.124 243.087h83.525V18.699h-83.525z" fill="#0f0" fill-rule="evenodd"/></g></g><g opacity=".35"><clipPath id="U"><path transform="matrix(1 0 0 -1 0 267.129)" d="M204.57 24.042h41.763V248.43H204.57z"/></clipPath><g clip-path="url(#U)"><path d="M204.57 243.087h41.763V18.699H204.57z" fill="red" fill-rule="evenodd"/></g></g></g><symbol id="V"><path d="M.483.275l.14-.044A.315.315 0 00.517.057.306.306 0 00.326 0a.308.308 0 00-.234.097A.374.374 0 000 .364C0 .483.03.575.092.64c.062.066.143.1.243.1A.298.298 0 00.548.662.282.282 0 00.622.53L.479.497a.151.151 0 01-.054.087.15.15 0 01-.097.033.164.164 0 01-.13-.057C.165.52.148.46.148.375.149.284.166.22.199.18A.159.159 0 01.325.124c.038 0 .071.012.099.036a.213.213 0 01.06.115z"/></symbol><symbol id="W"><path d="M0 0v.716h.216l.13-.488.129.488H.69V0H.557v.563L.415 0h-.14l-.14.563V0H0z"/></symbol><symbol id="X"><path d="M0 .246l.14.013A.172.172 0 01.193.155.157.157 0 01.297.122c.046 0 .081.01.105.03.024.02.035.042.035.069a.064.064 0 01-.015.043.116.116 0 01-.051.03 1.779 1.779 0 01-.116.032.393.393 0 00-.163.071.186.186 0 00-.035.246c.02.032.05.056.089.073A.36.36 0 00.287.74C.377.74.444.72.49.68A.208.208 0 00.562.525L.417.518C.411.554.397.58.377.597S.327.62.286.62A.165.165 0 01.187.595.052.052 0 01.164.551c0-.017.007-.032.022-.044A.38.38 0 01.318.46.685.685 0 00.474.408.197.197 0 00.582.22a.21.21 0 00-.13-.195A.409.409 0 00.294 0a.31.31 0 00-.208.063A.274.274 0 000 .245z"/></symbol><symbol id="Z"><path d="M0 .366C0 .439.01.5.033.549a.34.34 0 00.066.098c.028.03.06.05.093.065A.393.393 0 00.346.74C.452.74.536.708.6.642A.376.376 0 00.694.37.376.376 0 00.6.098.334.334 0 00.348 0a.337.337 0 00-.254.097A.37.37 0 000 .366M.149.37C.149.29.168.228.205.186A.183.183 0 01.348.124c.057 0 .104.02.141.062.037.041.056.104.056.187C.545.455.527.516.49.556a.182.182 0 01-.143.06.183.183 0 01-.144-.06C.167.513.149.452.149.37z"/></symbol><symbol id="aa"><path d="M0 .716h.128V.64A.191.191 0 00.29.728C.35.728.4.704.443.657A.287.287 0 00.506.459.296.296 0 00.442.257.198.198 0 00.21.203.264.264 0 00.137.26V0H0v.716m.136-.25c0-.059.011-.102.034-.13A.106.106 0 01.255.294a.1.1 0 01.08.039C.354.358.365.4.365.458c0 .055-.01.095-.033.122a.101.101 0 01-.08.04.105.105 0 01-.084-.04C.147.554.136.516.136.465z"/></symbol><symbol id="ab"><path d="M.34.177L.477.154A.225.225 0 00.394.039.245.245 0 00.25 0c-.09 0-.156.03-.2.088A.297.297 0 000 .268c0 .085.022.152.067.2a.222.222 0 00.17.074A.23.23 0 00.42.465C.465.415.486.337.484.231H.141A.14.14 0 01.174.136.104.104 0 01.253.103c.021 0 .04.005.054.017.015.012.026.03.033.057m.008.138c0 .04-.011.07-.03.09a.094.094 0 01-.072.032.095.095 0 01-.074-.033.127.127 0 01-.029-.089h.205z"/></symbol><symbol id="ac"><path d="M.473 0H.335v.265a.406.406 0 01-.008.108.076.076 0 01-.077.052.11.11 0 01-.063-.02.1.1 0 01-.04-.051.458.458 0 01-.01-.12V0H0v.519h.127V.442A.208.208 0 00.298.53C.328.53.356.525.381.514a.135.135 0 00.084-.1.416.416 0 00.008-.092V0z"/></symbol><symbol id="ad"><path d="M0 .716h.264C.324.716.37.71.4.702A.24.24 0 00.508.636.312.312 0 00.577.52.526.526 0 00.6.351.47.47 0 00.578.2.316.316 0 00.501.072.254.254 0 00.4.015.437.437 0 00.272 0H0v.716M.145.595V.12h.107c.04 0 .07.002.088.006a.132.132 0 01.058.03.15.15 0 01.038.07.47.47 0 01.015.13.428.428 0 01-.015.128.164.164 0 01-.041.07.138.138 0 01-.067.033.655.655 0 01-.119.007H.145z"/></symbol><symbol id="ae"><path d="M.139.372L.014.395c.014.05.038.087.072.11A.264.264 0 00.24.543.325.325 0 00.375.52.133.133 0 00.438.465.278.278 0 00.457.342L.456.182c0-.045.002-.08.006-.1a.304.304 0 01.025-.07H.35a.505.505 0 00-.018.056.247.247 0 00-.075-.05A.215.215 0 00.172 0a.178.178 0 00-.126.043.145.145 0 00-.046.11c0 .03.007.056.021.078.014.024.034.041.059.053a.456.456 0 00.109.032.748.748 0 01.133.034v.014C.322.39.316.409.302.42.29.43.266.437.23.437A.097.097 0 01.172.422a.099.099 0 01-.033-.05M.322.261A.858.858 0 00.24.24.252.252 0 01.164.216.057.057 0 01.137.167c0-.019.007-.035.022-.05a.075.075 0 01.054-.02c.025 0 .049.008.071.024a.086.086 0 01.033.046.27.27 0 01.005.066v.028z"/></symbol><symbol id="af"><path d="M.294.53V.42H.201V.213C.2.17.2.145.203.138A.032.032 0 01.215.12.04.04 0 01.24.114c.012 0 .03.004.055.013L.306.021A.273.273 0 00.197 0 .175.175 0 00.13.012a.102.102 0 00-.044.032.132.132 0 00-.019.054.665.665 0 00-.004.097V.42H0v.11h.063v.102l.138.08V.53h.093z"/></symbol><use xlink:href="#V" transform="matrix(9.9463 0 0 -9.9463 43.544 34.78)"/><use xlink:href="#W" transform="matrix(9.9463 0 0 -9.9463 50.959 34.66)"/><use xlink:href="#X" transform="matrix(9.9463 0 0 -9.9463 58.9 34.786)"/><use xlink:href="#Y" transform="matrix(9.9463 0 0 -9.9463 65.174 34.66)"/><use xlink:href="#Z" transform="matrix(9.9463 0 0 -9.9463 68.371 34.78)"/><use xlink:href="#aa" transform="matrix(9.9463 0 0 -9.9463 76.352 36.621)"/><use xlink:href="#ab" transform="matrix(9.9463 0 0 -9.9463 82.07 34.776)"/><use xlink:href="#ac" transform="matrix(9.9463 0 0 -9.9463 87.989 34.66)"/><use xlink:href="#Y" transform="matrix(9.9463 0 0 -9.9463 93.362 34.66)"/><use xlink:href="#ad" transform="matrix(9.9463 0 0 -9.9463 96.846 34.66)"/><use xlink:href="#ae" transform="matrix(9.9463 0 0 -9.9463 103.663 34.776)"/><use xlink:href="#af" transform="matrix(9.9463 0 0 -9.9463 108.989 34.776)"/><use xlink:href="#ae" transform="matrix(9.9463 0 0 -9.9463 112.505 34.776)"/><clipPath id="ag"><path transform="matrix(1 0 0 -1 0 267.129)" d="M0 267.129h272.126V0H0z"/></clipPath><g clip-path="url(#ag)"><path d="M190.488 101.509h70.753V21.37h-70.753z" fill="#fff" fill-rule="evenodd"/><path stroke-width=".4" stroke-miterlimit="10" fill="none" stroke="#fff" d="M190.488 101.509h70.753V21.37h-70.753z"/><path stroke-width=".75" stroke-miterlimit="10" fill="none" stroke="#000" d="M190.488 101.51h70.753M261.241 101.51V21.37M261.241 21.37h-70.753M190.488 21.37v80.139"/></g><symbol id="ah"><path d="M0 0v.716h.247a.598.598 0 00.127-.01.242.242 0 00.105-.052.29.29 0 00.084-.122.474.474 0 00.029-.17.5.5 0 00-.02-.145.354.354 0 00-.048-.104.263.263 0 00-.066-.065.266.266 0 00-.085-.036A.485.485 0 00.258 0H0m.095.084h.153c.047 0 .084.005.11.014a.159.159 0 01.065.037c.022.022.04.052.052.09a.44.44 0 01.02.138.33.33 0 01-.038.173.184.184 0 01-.09.08.37.37 0 01-.122.015h-.15V.084z"/></symbol><use xlink:href="#ah" transform="matrix(9.9463 0 0 -9.9463 208.524 29.453)"/><use xlink:href="#p" transform="matrix(9.9463 0 0 -9.9463 215.297 29.57)"/><use xlink:href="#r" transform="matrix(9.9463 0 0 -9.9463 220.643 29.521)"/><use xlink:href="#p" transform="matrix(9.9463 0 0 -9.9463 223.593 29.57)"/><clipPath id="ai"><path transform="matrix(1 0 0 -1 0 267.129)" d="M0 267.129h272.126V0H0z"/></clipPath><g clip-path="url(#ai)"><path stroke-width=".75" stroke-miterlimit="10" fill="none" stroke="#000" d="M193.14 27.095h12.383"/><path d="M197.44 27.095c0-2.524 3.785-2.524 3.785 0s-3.786 2.524-3.786 0"/></g><symbol id="aj"><path d="M.236 0v.631H0v.085h.567V.63H.331V0H.236z"/></symbol><symbol id="ak"><path d="M0 .271c0 .096.027.167.08.213a.241.241 0 00.163.058c.071 0 .13-.023.175-.07A.266.266 0 00.486.278C.486.212.476.16.456.121A.211.211 0 00.368.03.253.253 0 00.243 0a.234.234 0 00-.176.07C.022.116 0 .183 0 .27m.09 0c0-.066.015-.116.044-.15a.14.14 0 01.11-.049c.043 0 .08.017.108.05.029.033.044.084.044.152C.396.338.38.387.352.419a.138.138 0 01-.109.05.14.14 0 01-.11-.05C.106.388.09.338.09.272z"/></symbol><symbol id="al"><path d="M0 0v.716h.483V.63H.095V.41H.43V.325H.095V0H0z"/></symbol><use xlink:href="#aj" transform="matrix(9.9463 0 0 -9.9463 207.99 40.812)"/><use xlink:href="#ak" transform="matrix(9.9463 0 0 -9.9463 214.164 40.928)"/><use xlink:href="#r" transform="matrix(9.9463 0 0 -9.9463 219.539 40.88)"/><use xlink:href="#p" transform="matrix(9.9463 0 0 -9.9463 222.489 40.928)"/><use xlink:href="#Q" transform="matrix(9.9463 0 0 -9.9463 228.296 40.812)"/><use xlink:href="#l" transform="matrix(9.9463 0 0 -9.9463 229.867 40.812)"/><use xlink:href="#al" transform="matrix(9.9463 0 0 -9.9463 233.448 40.812)"/><use xlink:href="#m" transform="matrix(9.9463 0 0 -9.9463 239.37 40.812)"/><use xlink:href="#r" transform="matrix(9.9463 0 0 -9.9463 241.093 40.88)"/><clipPath id="am"><path transform="matrix(1 0 0 -1 0 267.129)" d="M0 267.129h272.126V0H0z"/></clipPath><g clip-path="url(#am)"><path stroke-width="2.25" stroke-miterlimit="10" fill="none" stroke="#00f" d="M193.14 38.543h12.383"/></g><symbol id="an"><path d="M.342.012v.076A.19.19 0 00.177 0C.147 0 .118.006.091.018a.144.144 0 00-.059.044.17.17 0 00-.027.065A.446.446 0 000 .209V.53h.088V.243C.088.197.09.166.093.15A.093.093 0 01.128.095a.11.11 0 01.067-.02c.026 0 .05.007.074.02.023.014.04.033.049.056.01.023.015.057.015.101V.53H.42V.012H.342z"/></symbol><use xlink:href="#v" transform="matrix(9.9463 0 0 -9.9463 208.286 52.29)"/><use xlink:href="#p" transform="matrix(9.9463 0 0 -9.9463 215.854 52.286)"/><use xlink:href="#an" transform="matrix(9.9463 0 0 -9.9463 221.661 52.286)"/><use xlink:href="#t" transform="matrix(9.9463 0 0 -9.9463 226.861 52.286)"/><use xlink:href="#t" transform="matrix(9.9463 0 0 -9.9463 231.834 52.286)"/><use xlink:href="#m" transform="matrix(9.9463 0 0 -9.9463 237.162 52.169)"/><use xlink:href="#p" transform="matrix(9.9463 0 0 -9.9463 239.07 52.286)"/><use xlink:href="#n" transform="matrix(9.9463 0 0 -9.9463 244.895 52.169)"/><clipPath id="ao"><path transform="matrix(1 0 0 -1 0 267.129)" d="M0 267.129h272.126V0H0z"/></clipPath><g clip-path="url(#ao)"><path stroke-width="2.25" stroke-dasharray="3,3" stroke-miterlimit="10" fill="none" stroke="#f0f" d="M193.14 49.992h12.383"/></g><symbol id="ap"><path d="M.538.263L.633.24A.32.32 0 00.525.061.295.295 0 00.336 0a.343.343 0 00-.188.047.298.298 0 00-.11.137.49.49 0 00.004.386c.03.056.07.098.122.127.053.029.11.043.174.043a.293.293 0 00.18-.054.284.284 0 00.103-.154L.527.51a.221.221 0 01-.072.114.193.193 0 01-.12.035.233.233 0 01-.137-.04A.21.21 0 01.12.514.442.442 0 01.124.216.2.2 0 01.207.115.232.232 0 01.329.08c.053 0 .098.015.134.046.037.03.062.076.075.136z"/></symbol><symbol id="aq"><path d="M.046.01l-.01.083a.196.196 0 01.05-.008c.02 0 .036.004.047.01a.08.08 0 01.03.028.431.431 0 01.034.086L0 .73h.095l.108-.3C.217.39.229.35.24.309c.01.04.022.08.036.118l.111.302h.088L.278.202a1.035 1.035 0 00-.05-.118.171.171 0 00-.053-.063A.126.126 0 00.103 0a.176.176 0 00-.057.01z"/></symbol><symbol id="ar"><path d="M0 0v.716h.269a.327.327 0 00.13-.022.166.166 0 00.079-.067.174.174 0 00.028-.094C.506.503.498.473.48.446A.178.178 0 00.406.381.173.173 0 00.54.208a.209.209 0 00-.074-.16.222.222 0 00-.079-.036A.483.483 0 00.273 0H0m.095.415H.25c.042 0 .072.003.09.008A.1.1 0 01.394.46a.102.102 0 01.019.062.114.114 0 01-.017.063.085.085 0 01-.05.037.398.398 0 01-.108.01H.095V.415m0-.33h.178a.41.41 0 01.064.003c.022.004.04.01.055.02C.407.116.42.13.428.146c.01.018.014.038.014.06 0 .027-.006.05-.02.07a.106.106 0 01-.057.041.344.344 0 01-.105.013H.095V.084z"/></symbol><use xlink:href="#ap" transform="matrix(9.9463 0 0 -9.9463 208.252 64.122)"/><use xlink:href="#q" transform="matrix(9.9463 0 0 -9.9463 215.584 64)"/><use xlink:href="#aq" transform="matrix(9.9463 0 0 -9.9463 218.41 66.093)"/><use xlink:href="#t" transform="matrix(9.9463 0 0 -9.9463 223.53 64.117)"/><use xlink:href="#r" transform="matrix(9.9463 0 0 -9.9463 228.371 64.068)"/><use xlink:href="#p" transform="matrix(9.9463 0 0 -9.9463 231.32 64.117)"/><use xlink:href="#Q" transform="matrix(9.9463 0 0 -9.9463 237.128 64)"/><use xlink:href="#l" transform="matrix(9.9463 0 0 -9.9463 238.7 64)"/><use xlink:href="#ar" transform="matrix(9.9463 0 0 -9.9463 242.193 64)"/><use xlink:href="#p" transform="matrix(9.9463 0 0 -9.9463 248.458 64.117)"/><use xlink:href="#Q" transform="matrix(9.9463 0 0 -9.9463 254.265 64)"/><use xlink:href="#Q" transform="matrix(9.9463 0 0 -9.9463 256.473 64)"/><clipPath id="as"><path transform="matrix(1 0 0 -1 0 267.129)" d="M0 267.129h272.126V0H0z"/></clipPath><g clip-path="url(#as)"><path stroke-width="2.25" stroke-dasharray="1,2" stroke-miterlimit="10" fill="none" stroke="#fc0" d="M193.14 61.44h12.383"/></g><symbol id="at"><path d="M0 0l.19.27-.176.249h.11l.08-.122A1.51 1.51 0 00.24.339l.04.057.087.123h.105L.292.274.485 0H.377L.271.161.243.205.106 0H0z"/></symbol><symbol id="au"><path d="M0 0v.717h.08V.65C.1.676.12.696.144.709c.024.013.053.02.086.02A.205.205 0 00.348.695.21.21 0 00.424.598.35.35 0 00.45.462C.45.409.44.36.421.318A.215.215 0 00.224.187a.167.167 0 00-.079.019.18.18 0 00-.057.046V0H0m.08.455C.08.388.093.34.12.307A.124.124 0 01.218.26c.04 0 .073.017.1.05C.346.342.36.393.36.462.36.528.347.578.32.611a.122.122 0 01-.098.05C.185.66.152.642.122.606.095.573.08.522.08.455z"/></symbol><use xlink:href="#J" transform="matrix(9.9463 0 0 -9.9463 208.544 75.358)"/><use xlink:href="#at" transform="matrix(9.9463 0 0 -9.9463 214.464 75.358)"/><use xlink:href="#au" transform="matrix(9.9463 0 0 -9.9463 220.02 77.334)"/><use xlink:href="#ak" transform="matrix(9.9463 0 0 -9.9463 225.225 75.474)"/><use xlink:href="#n" transform="matrix(9.9463 0 0 -9.9463 231.08 75.358)"/><use xlink:href="#w" transform="matrix(9.9463 0 0 -9.9463 236.319 75.474)"/><use xlink:href="#n" transform="matrix(9.9463 0 0 -9.9463 242.14 75.358)"/><use xlink:href="#r" transform="matrix(9.9463 0 0 -9.9463 247.19 75.425)"/><use xlink:href="#m" transform="matrix(9.9463 0 0 -9.9463 250.44 75.358)"/><use xlink:href="#p" transform="matrix(9.9463 0 0 -9.9463 252.347 75.474)"/><use xlink:href="#Q" transform="matrix(9.9463 0 0 -9.9463 258.154 75.358)"/><clipPath id="av"><path transform="matrix(1 0 0 -1 0 267.129)" d="M0 267.129h272.126V0H0z"/></clipPath><g clip-path="url(#av)"><path stroke-width="2.25" stroke-dasharray="3,4,1,4" stroke-miterlimit="10" fill="none" stroke="#00f" d="M193.14 72.888h12.383"/></g><symbol id="aw"><path d="M0 .242L.09.25A.201.201 0 01.118.162.165.165 0 01.19.106.276.276 0 01.3.085c.036 0 .068.005.095.016.028.01.049.025.062.044.014.019.02.04.02.062A.092.092 0 01.46.265a.144.144 0 01-.064.043C.375.315.333.327.267.342A.658.658 0 00.13.387a.197.197 0 00-.077.067.166.166 0 00-.025.089c0 .036.01.07.031.101a.19.19 0 00.09.072.34.34 0 00.131.024C.332.74.38.732.42.714A.2.2 0 00.513.64.217.217 0 00.548.526L.458.52a.146.146 0 01-.05.102C.38.645.338.657.283.657.226.657.184.647.158.625a.094.094 0 01-.04-.076c0-.025.01-.047.028-.063A.378.378 0 01.29.435.935.935 0 00.448.389.216.216 0 00.54.316C.56.286.57.253.57.214A.196.196 0 00.537.106.217.217 0 00.443.028a.414.414 0 00-.3 0A.23.23 0 000 .242z"/></symbol><symbol id="ax"><path d="M.018.167L.103.155C.107.128.117.109.133.097a.146.146 0 01.09-.024c.04 0 .071.008.093.024a.12.12 0 01.045.069.561.561 0 01.007.112A.18.18 0 00.224.21.196.196 0 00.06.288.343.343 0 00.027.61a.215.215 0 00.077.097.211.211 0 00.12.034.186.186 0 00.152-.074v.062h.081V.281A.42.42 0 00.432.109.178.178 0 00.354.03.27.27 0 00.223 0a.247.247 0 00-.15.042C.035.07.016.112.018.167M.09.48C.09.411.104.361.13.33A.129.129 0 01.233.283.13.13 0 01.334.33c.027.03.041.08.041.146C.375.54.361.587.333.62a.13.13 0 01-.202 0C.104.59.091.542.091.48z"/></symbol><symbol id="ay"><path d="M0 0v.716h.317a.418.418 0 00.146-.02.158.158 0 00.08-.068.203.203 0 00.03-.107.18.18 0 00-.05-.129A.25.25 0 00.37.326.246.246 0 00.428.29.492.492 0 00.506.195L.631 0H.51L.418.149C.389.192.367.225.349.248A.212.212 0 01.3.295a.14.14 0 01-.043.02.285.285 0 01-.052.003h-.11V0H0m.095.4h.203A.31.31 0 01.4.413a.11.11 0 01.056.043c.012.02.019.041.019.065a.106.106 0 01-.037.083C.412.626.373.637.32.637H.095V.4z"/></symbol><use xlink:href="#aw" transform="matrix(9.9463 0 0 -9.9463 208.204 86.836)"/><use xlink:href="#m" transform="matrix(9.9463 0 0 -9.9463 215.051 86.715)"/><use xlink:href="#ax" transform="matrix(9.9463 0 0 -9.9463 216.92 88.808)"/><use xlink:href="#n" transform="matrix(9.9463 0 0 -9.9463 222.785 86.715)"/><use xlink:href="#p" transform="matrix(9.9463 0 0 -9.9463 228.019 86.831)"/><use xlink:href="#Q" transform="matrix(9.9463 0 0 -9.9463 233.826 86.715)"/><use xlink:href="#l" transform="matrix(9.9463 0 0 -9.9463 235.398 86.715)"/><use xlink:href="#ay" transform="matrix(9.9463 0 0 -9.9463 238.945 86.715)"/><use xlink:href="#d" transform="matrix(9.9463 0 0 -9.9463 246.247 86.715)"/><clipPath id="az"><path transform="matrix(1 0 0 -1 0 267.129)" d="M0 267.129h272.126V0H0z"/></clipPath><g clip-path="url(#az)"><g opacity=".35"><clipPath id="aA"><path transform="matrix(1 0 0 -1 0 267.129)" d="M193.141 178.785h12.382v8.014h-12.382z"/></clipPath><g clip-path="url(#aA)"><path d="M193.14 88.344h12.383V80.33H193.14" fill="#0f0" fill-rule="evenodd"/></g></g><path stroke-width=".75" stroke-miterlimit="10" fill="none" stroke="#000" d="M193.14 80.33h12.383M193.14 88.344h12.383M205.523 88.344V80.33M193.14 88.344V80.33"/></g><symbol id="aB"><path d="M.368.012v.065A.161.161 0 00.223 0 .205.205 0 00.11.034a.227.227 0 00-.08.095A.334.334 0 000 .271c0 .051.009.098.026.14a.204.204 0 00.193.131.171.171 0 00.143-.071v.257H.45V.012H.368M.09.27C.09.204.104.154.132.12a.127.127 0 01.1-.049c.038 0 .07.016.097.047.027.032.04.08.04.144C.37.334.357.386.33.42a.126.126 0 01-.2.002C.103.39.09.34.09.271z"/></symbol><symbol id="aC"><path d="M.082.012H0v.716h.088V.472c.037.047.084.07.142.07a.214.214 0 00.09-.02.18.18 0 00.07-.054.256.256 0 00.044-.084A.347.347 0 00.45.28.296.296 0 00.384.073.206.206 0 00.226 0a.165.165 0 00-.144.077V.012M.08.275A.27.27 0 01.106.14C.134.095.171.072.218.072c.039 0 .072.017.1.05.028.034.042.083.042.15 0 .067-.014.117-.04.15A.122.122 0 01.221.47a.126.126 0 01-.1-.05C.096.385.082.337.082.274z"/></symbol><use xlink:href="#aw" transform="matrix(9.9463 0 0 -9.9463 208.204 98.194)"/><use xlink:href="#m" transform="matrix(9.9463 0 0 -9.9463 215.051 98.072)"/><use xlink:href="#aB" transform="matrix(9.9463 0 0 -9.9463 216.939 98.189)"/><use xlink:href="#w" transform="matrix(9.9463 0 0 -9.9463 222.493 98.189)"/><use xlink:href="#aC" transform="matrix(9.9463 0 0 -9.9463 228.31 98.189)"/><use xlink:href="#p" transform="matrix(9.9463 0 0 -9.9463 233.549 98.189)"/><use xlink:href="#n" transform="matrix(9.9463 0 0 -9.9463 239.375 98.072)"/><use xlink:href="#aB" transform="matrix(9.9463 0 0 -9.9463 244.59 98.189)"/><use xlink:href="#l" transform="matrix(9.9463 0 0 -9.9463 249.78 98.072)"/><use xlink:href="#ay" transform="matrix(9.9463 0 0 -9.9463 253.327 98.072)"/><use xlink:href="#d" transform="matrix(9.9463 0 0 -9.9463 260.63 98.072)"/><clipPath id="aD"><path transform="matrix(1 0 0 -1 0 267.129)" d="M0 267.129h272.126V0H0z"/></clipPath><g clip-path="url(#aD)"><g opacity=".35"><clipPath id="aE"><path transform="matrix(1 0 0 -1 0 267.129)" d="M193.141 167.337h12.382v8.014h-12.382z"/></clipPath><g clip-path="url(#aE)"><path d="M193.14 99.792h12.383v-8.014H193.14" fill="red" fill-rule="evenodd"/></g></g><path stroke-width=".75" stroke-miterlimit="10" fill="none" stroke="#000" d="M193.14 91.778h12.383M193.14 99.792h12.383M205.523 99.792v-8.014M193.14 99.792v-8.014"/></g></g></svg>