<?xml version="1.0" encoding="UTF-8" standalone="no"?>
<!DOCTYPE svg PUBLIC "-//W3C//DTD SVG 1.1//EN" "http://www.w3.org/Graphics/SVG/1.1/DTD/svg11.dtd">
<svg xmlns="http://www.w3.org/2000/svg" xmlns:xlink="http://www.w3.org/1999/xlink" version="1.1" width="567pt" height="387pt" viewBox="0 0 567 387">
<g enable-background="new">
<path transform="matrix(1,0,0,-1,0,387)" d="M 0 0 L 566.929 0 L 566.929 386.616 L 0 386.616 Z " fill="#ffffff" fill-rule="evenodd"/>
<path transform="matrix(1,0,0,-1,0,387)" stroke-width=".4" stroke-linecap="butt" stroke-miterlimit="10" stroke-linejoin="miter" fill="none" stroke="#ffffff" d="M 0 0 L 566.929 0 L 566.929 386.616 L 0 386.616 Z "/>
<path transform="matrix(1,0,0,-1,0,387)" d="M 68.0315 42.5278 L 549.9215 42.5278 L 549.9215 359.5528 L 68.0315 359.5528 Z " fill="#ffffff" fill-rule="evenodd"/>
<path transform="matrix(1,0,0,-1,0,387)" stroke-width=".4" stroke-linecap="butt" stroke-miterlimit="10" stroke-linejoin="miter" fill="none" stroke="#ffffff" d="M 68.0315 42.5278 L 549.9215 42.5278 L 549.9215 359.5528 L 68.0315 359.5528 Z "/>
<path transform="matrix(1,0,0,-1,0,387)" stroke-width=".75" stroke-linecap="butt" stroke-miterlimit="10" stroke-linejoin="miter" fill="none" stroke="#000000" d="M 68.0315 42.5278 L 549.9215 42.5278 L 549.9215 359.5528 L 68.0315 359.5528 Z "/>
<path transform="matrix(1,0,0,-1,0,387)" d="M 68.0315 42.5278 L 549.9215 42.5278 L 549.9215 359.5528 L 68.0315 359.5528 Z " fill="#ffffff" fill-rule="evenodd"/>
<path transform="matrix(1,0,0,-1,0,387)" stroke-width=".4" stroke-linecap="butt" stroke-miterlimit="10" stroke-linejoin="miter" fill="none" stroke="#ffffff" d="M 68.0315 42.5278 L 549.9215 42.5278 L 549.9215 359.5528 L 68.0315 359.5528 Z "/>
<path transform="matrix(1,0,0,-1,0,387)" stroke-width=".75" stroke-linecap="butt" stroke-miterlimit="10" stroke-linejoin="miter" fill="none" stroke="#000000" d="M 68.0315 42.5278 L 549.9215 42.5278 L 549.9215 359.5528 L 68.0315 359.5528 Z "/>
<path transform="matrix(1,0,0,-1,0,387)" stroke-width="1.5" stroke-linecap="butt" stroke-miterlimit="10" stroke-linejoin="miter" fill="none" stroke="#0000ff" d="M 68.0315 60.3685 L 92.126 60.3685 L 92.126 239.747 L 108.992 239.747 L 108.992 287.955 L 116.22 287.955 L 116.22 299.974 L 121.039 299.974 L 121.039 300.288 L 124.654 300.288 L 124.654 298.896 L 128.268 298.896 L 128.268 296.249 L 135.496 296.249 L 135.496 293.036 L 137.906 293.036 L 137.906 290.961 L 140.315 290.961 L 140.315 289.214 L 142.724 289.214 L 142.724 287.409 L 145.134 287.409 L 145.134 285.23 L 147.543 285.23 L 147.543 283.548 L 149.953 283.548 L 149.953 279.562 L 155.976 279.562 L 155.976 259.301 L 182.48 259.301 L 182.48 221.513 L 224.646 221.513 L 224.646 182.417 L 272.835 182.417 L 272.835 117.474 L 549.921 117.474 "/>
<path transform="matrix(1,0,0,-1,0,387)" stroke-width=".75" stroke-linecap="butt" stroke-miterlimit="10" stroke-linejoin="miter" fill="none" stroke="#000000" d="M 68.0315 42.5278 L 549.921 42.5278 "/>
<path transform="matrix(1,0,0,-1,0,387)" stroke-width=".75" stroke-linecap="butt" stroke-miterlimit="10" stroke-linejoin="miter" fill="none" stroke="#000000" d="M 68.0315 52.3865 L 68.0315 42.5278 "/>
<path transform="matrix(1,0,0,-1,0,387)" stroke-width=".75" stroke-linecap="butt" stroke-miterlimit="10" stroke-linejoin="miter" fill="none" stroke="#000000" d="M 80.0787 47.4572 L 80.0787 42.5278 "/>
<path transform="matrix(1,0,0,-1,0,387)" stroke-width=".75" stroke-linecap="butt" stroke-miterlimit="10" stroke-linejoin="miter" fill="none" stroke="#000000" d="M 92.126 47.4572 L 92.126 42.5278 "/>
<path transform="matrix(1,0,0,-1,0,387)" stroke-width=".75" stroke-linecap="butt" stroke-miterlimit="10" stroke-linejoin="miter" fill="none" stroke="#000000" d="M 104.173 47.4572 L 104.173 42.5278 "/>
<path transform="matrix(1,0,0,-1,0,387)" stroke-width=".75" stroke-linecap="butt" stroke-miterlimit="10" stroke-linejoin="miter" fill="none" stroke="#000000" d="M 116.22 47.4572 L 116.22 42.5278 "/>
<path transform="matrix(1,0,0,-1,0,387)" stroke-width=".75" stroke-linecap="butt" stroke-miterlimit="10" stroke-linejoin="miter" fill="none" stroke="#000000" d="M 128.268 52.3865 L 128.268 42.5278 "/>
<path transform="matrix(1,0,0,-1,0,387)" stroke-width=".75" stroke-linecap="butt" stroke-miterlimit="10" stroke-linejoin="miter" fill="none" stroke="#000000" d="M 140.315 47.4572 L 140.315 42.5278 "/>
<path transform="matrix(1,0,0,-1,0,387)" stroke-width=".75" stroke-linecap="butt" stroke-miterlimit="10" stroke-linejoin="miter" fill="none" stroke="#000000" d="M 152.362 47.4572 L 152.362 42.5278 "/>
<path transform="matrix(1,0,0,-1,0,387)" stroke-width=".75" stroke-linecap="butt" stroke-miterlimit="10" stroke-linejoin="miter" fill="none" stroke="#000000" d="M 164.409 47.4572 L 164.409 42.5278 "/>
<path transform="matrix(1,0,0,-1,0,387)" stroke-width=".75" stroke-linecap="butt" stroke-miterlimit="10" stroke-linejoin="miter" fill="none" stroke="#000000" d="M 176.457 47.4572 L 176.457 42.5278 "/>
<path transform="matrix(1,0,0,-1,0,387)" stroke-width=".75" stroke-linecap="butt" stroke-miterlimit="10" stroke-linejoin="miter" fill="none" stroke="#000000" d="M 188.504 52.3865 L 188.504 42.5278 "/>
<path transform="matrix(1,0,0,-1,0,387)" stroke-width=".75" stroke-linecap="butt" stroke-miterlimit="10" stroke-linejoin="miter" fill="none" stroke="#000000" d="M 200.551 47.4572 L 200.551 42.5278 "/>
<path transform="matrix(1,0,0,-1,0,387)" stroke-width=".75" stroke-linecap="butt" stroke-miterlimit="10" stroke-linejoin="miter" fill="none" stroke="#000000" d="M 212.598 47.4572 L 212.598 42.5278 "/>
<path transform="matrix(1,0,0,-1,0,387)" stroke-width=".75" stroke-linecap="butt" stroke-miterlimit="10" stroke-linejoin="miter" fill="none" stroke="#000000" d="M 224.646 47.4572 L 224.646 42.5278 "/>
<path transform="matrix(1,0,0,-1,0,387)" stroke-width=".75" stroke-linecap="butt" stroke-miterlimit="10" stroke-linejoin="miter" fill="none" stroke="#000000" d="M 236.693 47.4572 L 236.693 42.5278 "/>
<path transform="matrix(1,0,0,-1,0,387)" stroke-width=".75" stroke-linecap="butt" stroke-miterlimit="10" stroke-linejoin="miter" fill="none" stroke="#000000" d="M 248.74 52.3865 L 248.74 42.5278 "/>
<path transform="matrix(1,0,0,-1,0,387)" stroke-width=".75" stroke-linecap="butt" stroke-miterlimit="10" stroke-linejoin="miter" fill="none" stroke="#000000" d="M 260.787 47.4572 L 260.787 42.5278 "/>
<path transform="matrix(1,0,0,-1,0,387)" stroke-width=".75" stroke-linecap="butt" stroke-miterlimit="10" stroke-linejoin="miter" fill="none" stroke="#000000" d="M 272.835 47.4572 L 272.835 42.5278 "/>
<path transform="matrix(1,0,0,-1,0,387)" stroke-width=".75" stroke-linecap="butt" stroke-miterlimit="10" stroke-linejoin="miter" fill="none" stroke="#000000" d="M 284.882 47.4572 L 284.882 42.5278 "/>
<path transform="matrix(1,0,0,-1,0,387)" stroke-width=".75" stroke-linecap="butt" stroke-miterlimit="10" stroke-linejoin="miter" fill="none" stroke="#000000" d="M 296.929 47.4572 L 296.929 42.5278 "/>
<path transform="matrix(1,0,0,-1,0,387)" stroke-width=".75" stroke-linecap="butt" stroke-miterlimit="10" stroke-linejoin="miter" fill="none" stroke="#000000" d="M 308.976 52.3865 L 308.976 42.5278 "/>
<path transform="matrix(1,0,0,-1,0,387)" stroke-width=".75" stroke-linecap="butt" stroke-miterlimit="10" stroke-linejoin="miter" fill="none" stroke="#000000" d="M 321.024 47.4572 L 321.024 42.5278 "/>
<path transform="matrix(1,0,0,-1,0,387)" stroke-width=".75" stroke-linecap="butt" stroke-miterlimit="10" stroke-linejoin="miter" fill="none" stroke="#000000" d="M 333.071 47.4572 L 333.071 42.5278 "/>
<path transform="matrix(1,0,0,-1,0,387)" stroke-width=".75" stroke-linecap="butt" stroke-miterlimit="10" stroke-linejoin="miter" fill="none" stroke="#000000" d="M 345.118 47.4572 L 345.118 42.5278 "/>
<path transform="matrix(1,0,0,-1,0,387)" stroke-width=".75" stroke-linecap="butt" stroke-miterlimit="10" stroke-linejoin="miter" fill="none" stroke="#000000" d="M 357.165 47.4572 L 357.165 42.5278 "/>
<path transform="matrix(1,0,0,-1,0,387)" stroke-width=".75" stroke-linecap="butt" stroke-miterlimit="10" stroke-linejoin="miter" fill="none" stroke="#000000" d="M 369.213 52.3865 L 369.213 42.5278 "/>
<path transform="matrix(1,0,0,-1,0,387)" stroke-width=".75" stroke-linecap="butt" stroke-miterlimit="10" stroke-linejoin="miter" fill="none" stroke="#000000" d="M 381.26 47.4572 L 381.26 42.5278 "/>
<path transform="matrix(1,0,0,-1,0,387)" stroke-width=".75" stroke-linecap="butt" stroke-miterlimit="10" stroke-linejoin="miter" fill="none" stroke="#000000" d="M 393.307 47.4572 L 393.307 42.5278 "/>
<path transform="matrix(1,0,0,-1,0,387)" stroke-width=".75" stroke-linecap="butt" stroke-miterlimit="10" stroke-linejoin="miter" fill="none" stroke="#000000" d="M 405.354 47.4572 L 405.354 42.5278 "/>
<path transform="matrix(1,0,0,-1,0,387)" stroke-width=".75" stroke-linecap="butt" stroke-miterlimit="10" stroke-linejoin="miter" fill="none" stroke="#000000" d="M 417.402 47.4572 L 417.402 42.5278 "/>
<path transform="matrix(1,0,0,-1,0,387)" stroke-width=".75" stroke-linecap="butt" stroke-miterlimit="10" stroke-linejoin="miter" fill="none" stroke="#000000" d="M 429.449 52.3865 L 429.449 42.5278 "/>
<path transform="matrix(1,0,0,-1,0,387)" stroke-width=".75" stroke-linecap="butt" stroke-miterlimit="10" stroke-linejoin="miter" fill="none" stroke="#000000" d="M 441.496 47.4572 L 441.496 42.5278 "/>
<path transform="matrix(1,0,0,-1,0,387)" stroke-width=".75" stroke-linecap="butt" stroke-miterlimit="10" stroke-linejoin="miter" fill="none" stroke="#000000" d="M 453.543 47.4572 L 453.543 42.5278 "/>
<path transform="matrix(1,0,0,-1,0,387)" stroke-width=".75" stroke-linecap="butt" stroke-miterlimit="10" stroke-linejoin="miter" fill="none" stroke="#000000" d="M 465.591 47.4572 L 465.591 42.5278 "/>
<path transform="matrix(1,0,0,-1,0,387)" stroke-width=".75" stroke-linecap="butt" stroke-miterlimit="10" stroke-linejoin="miter" fill="none" stroke="#000000" d="M 477.638 47.4572 L 477.638 42.5278 "/>
<path transform="matrix(1,0,0,-1,0,387)" stroke-width=".75" stroke-linecap="butt" stroke-miterlimit="10" stroke-linejoin="miter" fill="none" stroke="#000000" d="M 489.685 52.3865 L 489.685 42.5278 "/>
<path transform="matrix(1,0,0,-1,0,387)" stroke-width=".75" stroke-linecap="butt" stroke-miterlimit="10" stroke-linejoin="miter" fill="none" stroke="#000000" d="M 501.732 47.4572 L 501.732 42.5278 "/>
<path transform="matrix(1,0,0,-1,0,387)" stroke-width=".75" stroke-linecap="butt" stroke-miterlimit="10" stroke-linejoin="miter" fill="none" stroke="#000000" d="M 513.78 47.4572 L 513.78 42.5278 "/>
<path transform="matrix(1,0,0,-1,0,387)" stroke-width=".75" stroke-linecap="butt" stroke-miterlimit="10" stroke-linejoin="miter" fill="none" stroke="#000000" d="M 525.827 47.4572 L 525.827 42.5278 "/>
<path transform="matrix(1,0,0,-1,0,387)" stroke-width=".75" stroke-linecap="butt" stroke-miterlimit="10" stroke-linejoin="miter" fill="none" stroke="#000000" d="M 537.874 47.4572 L 537.874 42.5278 "/>
<path transform="matrix(1,0,0,-1,0,387)" stroke-width=".75" stroke-linecap="butt" stroke-miterlimit="10" stroke-linejoin="miter" fill="none" stroke="#000000" d="M 549.921 52.3865 L 549.921 42.5278 "/>
<clipPath id="cp0">
<path transform="matrix(1,0,0,-1,0,387)" d="M 0 0 L 566.929 0 L 566.929 386.616 L 0 386.616 Z "/>
</clipPath>
<g clip-path="url(#cp0)">
<text xml:space="preserve" transform="matrix(1 0 -0 1 63.3531 356.9479)" font-size="12.9955" font-family="Helvetica"><tspan y="0" x="0">0</tspan></text>
</g>
<clipPath id="cp1">
<path transform="matrix(1,0,0,-1,0,387)" d="M 0 0 L 566.929 0 L 566.929 386.616 L 0 386.616 Z "/>
</clipPath>
<g clip-path="url(#cp1)">
<text xml:space="preserve" transform="matrix(1 0 -0 1 123.457 356.9479)" font-size="12.9955" font-family="Helvetica"><tspan y="0" x="0">5</tspan></text>
</g>
<clipPath id="cp2">
<path transform="matrix(1,0,0,-1,0,387)" d="M 0 0 L 566.929 0 L 566.929 386.616 L 0 386.616 Z "/>
</clipPath>
<g clip-path="url(#cp2)">
<text xml:space="preserve" transform="matrix(1 0 -0 1 181.125 356.9479)" font-size="12.9955" font-family="Helvetica"><tspan y="0" x="0 7.2254989">10</tspan></text>
</g>
<clipPath id="cp3">
<path transform="matrix(1,0,0,-1,0,387)" d="M 0 0 L 566.929 0 L 566.929 386.616 L 0 386.616 Z "/>
</clipPath>
<g clip-path="url(#cp3)">
<text xml:space="preserve" transform="matrix(1 0 -0 1 241.229 356.9479)" font-size="12.9955" font-family="Helvetica"><tspan y="0" x="0 7.2254989">15</tspan></text>
</g>
<clipPath id="cp4">
<path transform="matrix(1,0,0,-1,0,387)" d="M 0 0 L 566.929 0 L 566.929 386.616 L 0 386.616 Z "/>
</clipPath>
<g clip-path="url(#cp4)">
<text xml:space="preserve" transform="matrix(1 0 -0 1 301.333 356.9479)" font-size="12.9955" font-family="Helvetica"><tspan y="0" x="0 7.2254989">20</tspan></text>
</g>
<clipPath id="cp5">
<path transform="matrix(1,0,0,-1,0,387)" d="M 0 0 L 566.929 0 L 566.929 386.616 L 0 386.616 Z "/>
</clipPath>
<g clip-path="url(#cp5)">
<text xml:space="preserve" transform="matrix(1 0 -0 1 361.438 356.9479)" font-size="12.9955" font-family="Helvetica"><tspan y="0" x="0 7.2254989">25</tspan></text>
</g>
<clipPath id="cp6">
<path transform="matrix(1,0,0,-1,0,387)" d="M 0 0 L 566.929 0 L 566.929 386.616 L 0 386.616 Z "/>
</clipPath>
<g clip-path="url(#cp6)">
<text xml:space="preserve" transform="matrix(1 0 -0 1 421.542 356.9479)" font-size="12.9955" font-family="Helvetica"><tspan y="0" x="0 7.2254989">30</tspan></text>
</g>
<clipPath id="cp7">
<path transform="matrix(1,0,0,-1,0,387)" d="M 0 0 L 566.929 0 L 566.929 386.616 L 0 386.616 Z "/>
</clipPath>
<g clip-path="url(#cp7)">
<text xml:space="preserve" transform="matrix(1 0 -0 1 481.646 356.9479)" font-size="12.9955" font-family="Helvetica"><tspan y="0" x="0 7.2254989">35</tspan></text>
</g>
<clipPath id="cp8">
<path transform="matrix(1,0,0,-1,0,387)" d="M 0 0 L 566.929 0 L 566.929 386.616 L 0 386.616 Z "/>
</clipPath>
<g clip-path="url(#cp8)">
<text xml:space="preserve" transform="matrix(1 0 -0 1 542.563 356.9479)" font-size="12.9955" font-family="Helvetica"><tspan y="0" x="0 7.2254989">40</tspan></text>
</g>
<clipPath id="cp9">
<path transform="matrix(1,0,0,-1,0,387)" d="M 0 0 L 566.929 0 L 566.929 386.616 L 0 386.616 Z "/>
</clipPath>
<g clip-path="url(#cp9)">
<text xml:space="preserve" transform="matrix(1 0 -0 1 503.576 367.5067)" font-size="12.9955" font-family="Helvetica"><tspan y="0" x="0 3.6127494 7.2254989 17.335999 24.561497 33.229497 36.842248 43.339998"> [GeV/c]</tspan></text>
</g>
<clipPath id="cp10">
<path transform="matrix(1,0,0,-1,0,387)" d="M 0 0 L 566.929 0 L 566.929 386.616 L 0 386.616 Z "/>
</clipPath>
<g clip-path="url(#cp10)">
<text xml:space="preserve" transform="matrix(1 0 -0 1 501.139 374.0045)" font-size="8.12219" font-family="Helvetica"><tspan y="0" x="0">t</tspan></text>
</g>
<clipPath id="cp11">
<path transform="matrix(1,0,0,-1,0,387)" d="M 0 0 L 566.929 0 L 566.929 386.616 L 0 386.616 Z "/>
</clipPath>
<g clip-path="url(#cp11)">
<text xml:space="preserve" transform="matrix(1 0 -0 1 493.829 367.5067)" font-size="12.9955" font-family="Helvetica"><tspan y="0" x="0">p</tspan></text>
</g>
<path transform="matrix(1,0,0,-1,0,387)" stroke-width=".75" stroke-linecap="butt" stroke-miterlimit="10" stroke-linejoin="miter" fill="none" stroke="#000000" d="M 68.0315 42.5278 L 68.0315 359.553 "/>
<path transform="matrix(1,0,0,-1,0,387)" stroke-width=".75" stroke-linecap="butt" stroke-miterlimit="10" stroke-linejoin="miter" fill="none" stroke="#000000" d="M 75.0047 48.2712 L 68.0315 48.2712 "/>
<path transform="matrix(1,0,0,-1,0,387)" stroke-width=".75" stroke-linecap="butt" stroke-miterlimit="10" stroke-linejoin="miter" fill="none" stroke="#000000" d="M 75.0047 52.9639 L 68.0315 52.9639 "/>
<path transform="matrix(1,0,0,-1,0,387)" stroke-width=".75" stroke-linecap="butt" stroke-miterlimit="10" stroke-linejoin="miter" fill="none" stroke="#000000" d="M 75.0047 56.9315 L 68.0315 56.9315 "/>
<path transform="matrix(1,0,0,-1,0,387)" stroke-width=".75" stroke-linecap="butt" stroke-miterlimit="10" stroke-linejoin="miter" fill="none" stroke="#000000" d="M 75.0047 60.3685 L 68.0315 60.3685 "/>
<path transform="matrix(1,0,0,-1,0,387)" stroke-width=".75" stroke-linecap="butt" stroke-miterlimit="10" stroke-linejoin="miter" fill="none" stroke="#000000" d="M 75.0047 63.4 L 68.0315 63.4 "/>
<path transform="matrix(1,0,0,-1,0,387)" stroke-width=".75" stroke-linecap="butt" stroke-miterlimit="10" stroke-linejoin="miter" fill="none" stroke="#000000" d="M 81.978 66.1119 L 68.0315 66.1119 "/>
<clipPath id="cp12">
<path transform="matrix(1,0,0,-1,0,387)" d="M 0 0 L 566.929 0 L 566.929 386.616 L 0 386.616 Z "/>
</clipPath>
<g clip-path="url(#cp12)">
<text xml:space="preserve" transform="matrix(1 0 -0 1 58.4798 320.398)" font-size="8.12219" font-family="Helvetica"><tspan y="0" x="0">2</tspan></text>
</g>
<clipPath id="cp13">
<path transform="matrix(1,0,0,-1,0,387)" d="M 0 0 L 566.929 0 L 566.929 386.616 L 0 386.616 Z "/>
</clipPath>
<g clip-path="url(#cp13)">
<text xml:space="preserve" transform="matrix(1 0 -0 1 43.8598 326.8958)" font-size="12.9955" font-family="Helvetica"><tspan y="0" x="0 7.2254989">10</tspan></text>
</g>
<path transform="matrix(1,0,0,-1,0,387)" stroke-width=".75" stroke-linecap="butt" stroke-miterlimit="10" stroke-linejoin="miter" fill="none" stroke="#000000" d="M 75.0047 83.9526 L 68.0315 83.9526 "/>
<path transform="matrix(1,0,0,-1,0,387)" stroke-width=".75" stroke-linecap="butt" stroke-miterlimit="10" stroke-linejoin="miter" fill="none" stroke="#000000" d="M 75.0047 94.3887 L 68.0315 94.3887 "/>
<path transform="matrix(1,0,0,-1,0,387)" stroke-width=".75" stroke-linecap="butt" stroke-miterlimit="10" stroke-linejoin="miter" fill="none" stroke="#000000" d="M 75.0047 101.793 L 68.0315 101.793 "/>
<path transform="matrix(1,0,0,-1,0,387)" stroke-width=".75" stroke-linecap="butt" stroke-miterlimit="10" stroke-linejoin="miter" fill="none" stroke="#000000" d="M 75.0047 107.537 L 68.0315 107.537 "/>
<path transform="matrix(1,0,0,-1,0,387)" stroke-width=".75" stroke-linecap="butt" stroke-miterlimit="10" stroke-linejoin="miter" fill="none" stroke="#000000" d="M 75.0047 112.229 L 68.0315 112.229 "/>
<path transform="matrix(1,0,0,-1,0,387)" stroke-width=".75" stroke-linecap="butt" stroke-miterlimit="10" stroke-linejoin="miter" fill="none" stroke="#000000" d="M 75.0047 116.197 L 68.0315 116.197 "/>
<path transform="matrix(1,0,0,-1,0,387)" stroke-width=".75" stroke-linecap="butt" stroke-miterlimit="10" stroke-linejoin="miter" fill="none" stroke="#000000" d="M 75.0047 119.634 L 68.0315 119.634 "/>
<path transform="matrix(1,0,0,-1,0,387)" stroke-width=".75" stroke-linecap="butt" stroke-miterlimit="10" stroke-linejoin="miter" fill="none" stroke="#000000" d="M 75.0047 122.666 L 68.0315 122.666 "/>
<path transform="matrix(1,0,0,-1,0,387)" stroke-width=".75" stroke-linecap="butt" stroke-miterlimit="10" stroke-linejoin="miter" fill="none" stroke="#000000" d="M 81.978 125.377 L 68.0315 125.377 "/>
<clipPath id="cp14">
<path transform="matrix(1,0,0,-1,0,387)" d="M 0 0 L 566.929 0 L 566.929 386.616 L 0 386.616 Z "/>
</clipPath>
<g clip-path="url(#cp14)">
<text xml:space="preserve" transform="matrix(1 0 -0 1 58.4798 260.294)" font-size="8.12219" font-family="Helvetica"><tspan y="0" x="0">3</tspan></text>
</g>
<clipPath id="cp15">
<path transform="matrix(1,0,0,-1,0,387)" d="M 0 0 L 566.929 0 L 566.929 386.616 L 0 386.616 Z "/>
</clipPath>
<g clip-path="url(#cp15)">
<text xml:space="preserve" transform="matrix(1 0 -0 1 43.8598 267.604)" font-size="12.9955" font-family="Helvetica"><tspan y="0" x="0 7.2254989">10</tspan></text>
</g>
<path transform="matrix(1,0,0,-1,0,387)" stroke-width=".75" stroke-linecap="butt" stroke-miterlimit="10" stroke-linejoin="miter" fill="none" stroke="#000000" d="M 75.0047 143.218 L 68.0315 143.218 "/>
<path transform="matrix(1,0,0,-1,0,387)" stroke-width=".75" stroke-linecap="butt" stroke-miterlimit="10" stroke-linejoin="miter" fill="none" stroke="#000000" d="M 75.0047 153.654 L 68.0315 153.654 "/>
<path transform="matrix(1,0,0,-1,0,387)" stroke-width=".75" stroke-linecap="butt" stroke-miterlimit="10" stroke-linejoin="miter" fill="none" stroke="#000000" d="M 75.0047 161.059 L 68.0315 161.059 "/>
<path transform="matrix(1,0,0,-1,0,387)" stroke-width=".75" stroke-linecap="butt" stroke-miterlimit="10" stroke-linejoin="miter" fill="none" stroke="#000000" d="M 75.0047 166.802 L 68.0315 166.802 "/>
<path transform="matrix(1,0,0,-1,0,387)" stroke-width=".75" stroke-linecap="butt" stroke-miterlimit="10" stroke-linejoin="miter" fill="none" stroke="#000000" d="M 75.0047 171.495 L 68.0315 171.495 "/>
<path transform="matrix(1,0,0,-1,0,387)" stroke-width=".75" stroke-linecap="butt" stroke-miterlimit="10" stroke-linejoin="miter" fill="none" stroke="#000000" d="M 75.0047 175.463 L 68.0315 175.463 "/>
<path transform="matrix(1,0,0,-1,0,387)" stroke-width=".75" stroke-linecap="butt" stroke-miterlimit="10" stroke-linejoin="miter" fill="none" stroke="#000000" d="M 75.0047 178.9 L 68.0315 178.9 "/>
<path transform="matrix(1,0,0,-1,0,387)" stroke-width=".75" stroke-linecap="butt" stroke-miterlimit="10" stroke-linejoin="miter" fill="none" stroke="#000000" d="M 75.0047 181.931 L 68.0315 181.931 "/>
<path transform="matrix(1,0,0,-1,0,387)" stroke-width=".75" stroke-linecap="butt" stroke-miterlimit="10" stroke-linejoin="miter" fill="none" stroke="#000000" d="M 81.978 184.643 L 68.0315 184.643 "/>
<clipPath id="cp16">
<path transform="matrix(1,0,0,-1,0,387)" d="M 0 0 L 566.929 0 L 566.929 386.616 L 0 386.616 Z "/>
</clipPath>
<g clip-path="url(#cp16)">
<text xml:space="preserve" transform="matrix(1 0 -0 1 58.4798 201.814)" font-size="8.12219" font-family="Helvetica"><tspan y="0" x="0">4</tspan></text>
</g>
<clipPath id="cp17">
<path transform="matrix(1,0,0,-1,0,387)" d="M 0 0 L 566.929 0 L 566.929 386.616 L 0 386.616 Z "/>
</clipPath>
<g clip-path="url(#cp17)">
<text xml:space="preserve" transform="matrix(1 0 -0 1 43.8598 208.312)" font-size="12.9955" font-family="Helvetica"><tspan y="0" x="0 7.2254989">10</tspan></text>
</g>
<path transform="matrix(1,0,0,-1,0,387)" stroke-width=".75" stroke-linecap="butt" stroke-miterlimit="10" stroke-linejoin="miter" fill="none" stroke="#000000" d="M 75.0047 202.484 L 68.0315 202.484 "/>
<path transform="matrix(1,0,0,-1,0,387)" stroke-width=".75" stroke-linecap="butt" stroke-miterlimit="10" stroke-linejoin="miter" fill="none" stroke="#000000" d="M 75.0047 212.92 L 68.0315 212.92 "/>
<path transform="matrix(1,0,0,-1,0,387)" stroke-width=".75" stroke-linecap="butt" stroke-miterlimit="10" stroke-linejoin="miter" fill="none" stroke="#000000" d="M 75.0047 220.324 L 68.0315 220.324 "/>
<path transform="matrix(1,0,0,-1,0,387)" stroke-width=".75" stroke-linecap="butt" stroke-miterlimit="10" stroke-linejoin="miter" fill="none" stroke="#000000" d="M 75.0047 226.068 L 68.0315 226.068 "/>
<path transform="matrix(1,0,0,-1,0,387)" stroke-width=".75" stroke-linecap="butt" stroke-miterlimit="10" stroke-linejoin="miter" fill="none" stroke="#000000" d="M 75.0047 230.761 L 68.0315 230.761 "/>
<path transform="matrix(1,0,0,-1,0,387)" stroke-width=".75" stroke-linecap="butt" stroke-miterlimit="10" stroke-linejoin="miter" fill="none" stroke="#000000" d="M 75.0047 234.728 L 68.0315 234.728 "/>
<path transform="matrix(1,0,0,-1,0,387)" stroke-width=".75" stroke-linecap="butt" stroke-miterlimit="10" stroke-linejoin="miter" fill="none" stroke="#000000" d="M 75.0047 238.165 L 68.0315 238.165 "/>
<path transform="matrix(1,0,0,-1,0,387)" stroke-width=".75" stroke-linecap="butt" stroke-miterlimit="10" stroke-linejoin="miter" fill="none" stroke="#000000" d="M 75.0047 241.197 L 68.0315 241.197 "/>
<path transform="matrix(1,0,0,-1,0,387)" stroke-width=".75" stroke-linecap="butt" stroke-miterlimit="10" stroke-linejoin="miter" fill="none" stroke="#000000" d="M 81.978 243.909 L 68.0315 243.909 "/>
<clipPath id="cp18">
<path transform="matrix(1,0,0,-1,0,387)" d="M 0 0 L 566.929 0 L 566.929 386.616 L 0 386.616 Z "/>
</clipPath>
<g clip-path="url(#cp18)">
<text xml:space="preserve" transform="matrix(1 0 -0 1 58.4798 141.71)" font-size="8.12219" font-family="Helvetica"><tspan y="0" x="0">5</tspan></text>
</g>
<clipPath id="cp19">
<path transform="matrix(1,0,0,-1,0,387)" d="M 0 0 L 566.929 0 L 566.929 386.616 L 0 386.616 Z "/>
</clipPath>
<g clip-path="url(#cp19)">
<text xml:space="preserve" transform="matrix(1 0 -0 1 43.8598 149.02)" font-size="12.9955" font-family="Helvetica"><tspan y="0" x="0 7.2254989">10</tspan></text>
</g>
<path transform="matrix(1,0,0,-1,0,387)" stroke-width=".75" stroke-linecap="butt" stroke-miterlimit="10" stroke-linejoin="miter" fill="none" stroke="#000000" d="M 75.0047 261.749 L 68.0315 261.749 "/>
<path transform="matrix(1,0,0,-1,0,387)" stroke-width=".75" stroke-linecap="butt" stroke-miterlimit="10" stroke-linejoin="miter" fill="none" stroke="#000000" d="M 75.0047 272.185 L 68.0315 272.185 "/>
<path transform="matrix(1,0,0,-1,0,387)" stroke-width=".75" stroke-linecap="butt" stroke-miterlimit="10" stroke-linejoin="miter" fill="none" stroke="#000000" d="M 75.0047 279.59 L 68.0315 279.59 "/>
<path transform="matrix(1,0,0,-1,0,387)" stroke-width=".75" stroke-linecap="butt" stroke-miterlimit="10" stroke-linejoin="miter" fill="none" stroke="#000000" d="M 75.0047 285.333 L 68.0315 285.333 "/>
<path transform="matrix(1,0,0,-1,0,387)" stroke-width=".75" stroke-linecap="butt" stroke-miterlimit="10" stroke-linejoin="miter" fill="none" stroke="#000000" d="M 75.0047 290.026 L 68.0315 290.026 "/>
<path transform="matrix(1,0,0,-1,0,387)" stroke-width=".75" stroke-linecap="butt" stroke-miterlimit="10" stroke-linejoin="miter" fill="none" stroke="#000000" d="M 75.0047 293.994 L 68.0315 293.994 "/>
<path transform="matrix(1,0,0,-1,0,387)" stroke-width=".75" stroke-linecap="butt" stroke-miterlimit="10" stroke-linejoin="miter" fill="none" stroke="#000000" d="M 75.0047 297.431 L 68.0315 297.431 "/>
<path transform="matrix(1,0,0,-1,0,387)" stroke-width=".75" stroke-linecap="butt" stroke-miterlimit="10" stroke-linejoin="miter" fill="none" stroke="#000000" d="M 75.0047 300.462 L 68.0315 300.462 "/>
<path transform="matrix(1,0,0,-1,0,387)" stroke-width=".75" stroke-linecap="butt" stroke-miterlimit="10" stroke-linejoin="miter" fill="none" stroke="#000000" d="M 81.978 303.174 L 68.0315 303.174 "/>
<clipPath id="cp20">
<path transform="matrix(1,0,0,-1,0,387)" d="M 0 0 L 566.929 0 L 566.929 386.616 L 0 386.616 Z "/>
</clipPath>
<g clip-path="url(#cp20)">
<text xml:space="preserve" transform="matrix(1 0 -0 1 58.4798 82.418)" font-size="8.12219" font-family="Helvetica"><tspan y="0" x="0">6</tspan></text>
</g>
<clipPath id="cp21">
<path transform="matrix(1,0,0,-1,0,387)" d="M 0 0 L 566.929 0 L 566.929 386.616 L 0 386.616 Z "/>
</clipPath>
<g clip-path="url(#cp21)">
<text xml:space="preserve" transform="matrix(1 0 -0 1 43.8598 89.728)" font-size="12.9955" font-family="Helvetica"><tspan y="0" x="0 7.2254989">10</tspan></text>
</g>
<path transform="matrix(1,0,0,-1,0,387)" stroke-width=".75" stroke-linecap="butt" stroke-miterlimit="10" stroke-linejoin="miter" fill="none" stroke="#000000" d="M 75.0047 321.015 L 68.0315 321.015 "/>
<path transform="matrix(1,0,0,-1,0,387)" stroke-width=".75" stroke-linecap="butt" stroke-miterlimit="10" stroke-linejoin="miter" fill="none" stroke="#000000" d="M 75.0047 331.451 L 68.0315 331.451 "/>
<path transform="matrix(1,0,0,-1,0,387)" stroke-width=".75" stroke-linecap="butt" stroke-miterlimit="10" stroke-linejoin="miter" fill="none" stroke="#000000" d="M 75.0047 338.856 L 68.0315 338.856 "/>
<path transform="matrix(1,0,0,-1,0,387)" stroke-width=".75" stroke-linecap="butt" stroke-miterlimit="10" stroke-linejoin="miter" fill="none" stroke="#000000" d="M 75.0047 344.599 L 68.0315 344.599 "/>
<path transform="matrix(1,0,0,-1,0,387)" stroke-width=".75" stroke-linecap="butt" stroke-miterlimit="10" stroke-linejoin="miter" fill="none" stroke="#000000" d="M 75.0047 349.292 L 68.0315 349.292 "/>
<path transform="matrix(1,0,0,-1,0,387)" stroke-width=".75" stroke-linecap="butt" stroke-miterlimit="10" stroke-linejoin="miter" fill="none" stroke="#000000" d="M 75.0047 353.259 L 68.0315 353.259 "/>
<path transform="matrix(1,0,0,-1,0,387)" stroke-width=".75" stroke-linecap="butt" stroke-miterlimit="10" stroke-linejoin="miter" fill="none" stroke="#000000" d="M 75.0047 356.696 L 68.0315 356.696 "/>
<clipPath id="cp22">
<path transform="matrix(1,0,0,-1,0,387)" d="M 0 0 L 566.929 0 L 566.929 386.616 L 0 386.616 Z "/>
</clipPath>
<g clip-path="url(#cp22)">
<text xml:space="preserve" transform="matrix(0 -1 1 0 33.301 66.98599)" font-size="12.9955" font-family="Helvetica"><tspan y="0" x="0 8.667999 15.165749 22.391247 29.616745 33.229497">Events</tspan></text>
</g>
<path transform="matrix(1,0,0,-1,0,387)" stroke-width="1.5" stroke-linecap="butt" stroke-dasharray="3,3" stroke-miterlimit="10" stroke-linejoin="miter" fill="none" stroke="#0000ff" d="M 68.0315 42.5278 L 92.126 42.5278 L 92.126 171.663 L 108.992 171.663 L 108.992 212.928 L 116.22 212.928 L 116.22 224.095 L 121.039 224.095 L 121.039 224.557 L 124.654 224.557 L 124.654 223.978 L 128.268 223.978 L 128.268 221.356 L 135.496 221.356 L 135.496 217.954 L 137.906 217.954 L 137.906 216.05 L 140.315 216.05 L 140.315 213.867 L 142.724 213.867 L 142.724 212.299 L 145.134 212.299 L 145.134 210.041 L 147.543 210.041 L 147.543 208.02 L 149.953 208.02 L 149.953 204.555 L 155.976 204.555 L 155.976 186.141 L 182.48 186.141 L 182.48 150.902 L 224.646 150.902 L 224.646 115.451 L 272.835 115.451 L 272.835 54.1486 L 549.921 54.1486 "/>
<path transform="matrix(1,0,0,-1,0,387)" stroke-width="1.5" stroke-linecap="butt" stroke-miterlimit="10" stroke-linejoin="miter" fill="none" stroke="#ff00ff" d="M 68.0315 55.3658 L 92.126 55.3658 L 92.126 237.901 L 108.992 237.901 L 108.992 286.558 L 116.22 286.558 L 116.22 298.624 L 121.039 298.624 L 121.039 298.929 L 124.654 298.929 L 124.654 297.493 L 128.268 297.493 L 128.268 294.845 L 135.496 294.845 L 135.496 291.642 L 137.906 291.642 L 137.906 289.557 L 140.315 289.557 L 140.315 287.835 L 142.724 287.835 L 142.724 286.017 L 145.134 286.017 L 145.134 283.842 L 147.543 283.842 L 147.543 282.179 L 149.953 282.179 L 149.953 278.163 L 155.976 278.163 L 155.976 257.796 L 182.48 257.796 L 182.48 219.845 L 224.646 219.845 L 224.646 180.487 L 272.835 180.487 L 272.835 115.237 L 549.921 115.237 "/>
<clipPath id="cp23">
<path transform="matrix(1,0,0,-1,0,387)" d="M 0 0 L 566.929 0 L 566.929 386.616 L 0 386.616 Z "/>
</clipPath>
<g clip-path="url(#cp23)">
<text xml:space="preserve" transform="matrix(1 0 -0 1 224.985 19.065003)" font-size="17.0566" font-family="Helvetica"><tspan y="0" x="0 11.376754 15.16332 18.949885 23.69162 37.89977 47.38324 56.86671 66.35018 71.09192 82.46867 88.14852 97.63199 107.11546">All Muon Probe</tspan></text>
</g>
<path transform="matrix(1,0,0,-1,0,387)" d="M 419.528 289.962 L 532.914 289.962 L 532.914 344.08833 L 419.528 344.08833 Z " fill="#ffffff" fill-rule="evenodd"/>
<path transform="matrix(1,0,0,-1,0,387)" stroke-width=".4" stroke-linecap="butt" stroke-miterlimit="10" stroke-linejoin="miter" fill="none" stroke="#ffffff" d="M 419.528 289.962 L 532.914 289.962 L 532.914 344.08833 L 419.528 344.08833 Z "/>
<path transform="matrix(1,0,0,-1,0,387)" stroke-width=".75" stroke-linecap="butt" stroke-miterlimit="10" stroke-linejoin="miter" fill="none" stroke="#000000" d="M 419.528 289.962 L 532.913 289.962 "/>
<path transform="matrix(1,0,0,-1,0,387)" stroke-width=".75" stroke-linecap="butt" stroke-miterlimit="10" stroke-linejoin="miter" fill="none" stroke="#000000" d="M 532.913 289.962 L 532.913 344.089 "/>
<path transform="matrix(1,0,0,-1,0,387)" stroke-width=".75" stroke-linecap="butt" stroke-miterlimit="10" stroke-linejoin="miter" fill="none" stroke="#000000" d="M 532.913 344.089 L 419.528 344.089 "/>
<path transform="matrix(1,0,0,-1,0,387)" stroke-width=".75" stroke-linecap="butt" stroke-miterlimit="10" stroke-linejoin="miter" fill="none" stroke="#000000" d="M 419.528 344.089 L 419.528 289.962 "/>
<clipPath id="cp24">
<path transform="matrix(1,0,0,-1,0,387)" d="M 0 0 L 566.929 0 L 566.929 386.616 L 0 386.616 Z "/>
</clipPath>
<g clip-path="url(#cp24)">
<text xml:space="preserve" transform="matrix(1 0 -0 1 447.533 55.61499)" font-size="14.6199" font-family="Helvetica"><tspan y="0" x="0 8.932758 17.061425 21.125758 29.254422">Total</tspan></text>
</g>
<path transform="matrix(1,0,0,-1,0,387)" stroke-width="1.5" stroke-linecap="butt" stroke-miterlimit="10" stroke-linejoin="miter" fill="none" stroke="#0000ff" d="M 423.78 335.068 L 443.622 335.068 "/>
<clipPath id="cp25">
<path transform="matrix(1,0,0,-1,0,387)" d="M 0 0 L 566.929 0 L 566.929 386.616 L 0 386.616 Z "/>
</clipPath>
<g clip-path="url(#cp25)">
<text xml:space="preserve" transform="matrix(1 0 -0 1 447.533 73.483)" font-size="14.6199" font-family="Helvetica"><tspan y="0" x="0 9.751474 17.880139 25.190089 32.50004 40.628705 45.49713 53.625799 61.754465 69.883129">Background</tspan></text>
</g>
<path transform="matrix(1,0,0,-1,0,387)" stroke-width="1.5" stroke-linecap="butt" stroke-dasharray="3,3" stroke-miterlimit="10" stroke-linejoin="miter" fill="none" stroke="#0000ff" d="M 423.78 317.025 L 443.622 317.025 "/>
<clipPath id="cp26">
<path transform="matrix(1,0,0,-1,0,387)" d="M 0 0 L 566.929 0 L 566.929 386.616 L 0 386.616 Z "/>
</clipPath>
<g clip-path="url(#cp26)">
<text xml:space="preserve" transform="matrix(1 0 -0 1 447.533 91.35199)" font-size="14.6199" font-family="Helvetica"><tspan y="0" x="0 9.751474 12.997092 21.125758 29.254422 37.383089">Signal</tspan></text>
</g>
<path transform="matrix(1,0,0,-1,0,387)" stroke-width="1.5" stroke-linecap="butt" stroke-miterlimit="10" stroke-linejoin="miter" fill="none" stroke="#ff00ff" d="M 423.78 298.983 L 443.622 298.983 "/>
<clipPath id="cp27">
<path transform="matrix(1,0,0,-1,0,387)" d="M 0 0 L 566.929 0 L 566.929 386.616 L 0 386.616 Z "/>
</clipPath>
<g clip-path="url(#cp27)">
<text xml:space="preserve" transform="matrix(1 0 -0 1 84.4708 58.050996)" font-size="14.6199" font-family="Helvetica" font-weight="bold"><tspan y="0" x="0 10.555569 22.733946 32.48542 36.54975 47.924036 56.856794 64.98546 73.91821 77.982547 88.53812 96.66678 101.5352">CMS Open Data</tspan></text>
</g>
</g>
</svg>
